<svg width="28" height="28" viewBox="0 0 28 28" fill="none" xmlns="http://www.w3.org/2000/svg">
<path opacity="0.5" d="M13.9992 2.33337C19.4989 2.33337 22.2488 2.33337 23.9573 4.04192C24.8411 4.92565 25.2677 6.08799 25.4736 7.76535V11.6667H2.52475V7.76535C2.73071 6.08799 3.15733 4.92565 4.04107 4.04192C5.74961 2.33337 8.49947 2.33337 13.9992 2.33337Z" fill="white"/>
<path fill-rule="evenodd" clip-rule="evenodd" d="M2.33334 16.3333C2.33334 13.0664 2.33334 11.4329 2.96914 10.1851C3.5284 9.08744 4.42079 8.19506 5.5184 7.6358C6.76622 7 8.3997 7 11.6667 7H16.3333C19.6003 7 21.2338 7 22.4816 7.6358C23.5792 8.19506 24.4716 9.08744 25.0309 10.1851C25.6667 11.4329 25.6667 13.0664 25.6667 16.3333C25.6667 19.6003 25.6667 21.2338 25.0309 22.4816C24.4716 23.5792 23.5792 24.4716 22.4816 25.0309C21.2338 25.6667 19.6003 25.6667 16.3333 25.6667H11.6667C8.3997 25.6667 6.76622 25.6667 5.5184 25.0309C4.42079 24.4716 3.5284 23.5792 2.96914 22.4816C2.33334 21.2338 2.33334 19.6003 2.33334 16.3333ZM14.6187 12.2146C14.4546 12.0505 14.2321 11.9583 14 11.9583C13.7679 11.9583 13.5454 12.0505 13.3813 12.2146L10.4646 15.1313C10.1229 15.473 10.1229 16.027 10.4646 16.3687C10.8063 16.7104 11.3604 16.7104 11.7021 16.3687L13.125 14.9458V19.8333C13.125 20.3166 13.5168 20.7083 14 20.7083C14.4833 20.7083 14.875 20.3166 14.875 19.8333V14.9458L16.298 16.3687C16.6397 16.7104 17.1937 16.7104 17.5354 16.3687C17.8771 16.027 17.8771 15.473 17.5354 15.1313L14.6187 12.2146Z" fill="white"/>
</svg>
