<svg width="48" height="48" viewBox="0 0 48 48" fill="none" xmlns="http://www.w3.org/2000/svg">
<circle cx="24" cy="24" r="24" fill="#2A8AA3"/>
<path opacity="0.5" d="M16.8778 25.6959C14.9593 23.7773 14 22.8181 14 21.6261C14 20.434 14.9593 19.4748 16.8778 17.5562L17.5561 16.8779C19.4746 14.9594 20.4339 14.0001 21.6259 14.0001C22.818 14.0001 23.7772 14.9594 25.6958 16.8779L31.1222 22.3044C33.0407 24.2229 34 25.1822 34 26.3742C34 27.5662 33.0407 28.5255 31.1222 30.444L30.4439 31.1223C28.5254 33.0409 27.5661 34.0001 26.3741 34.0001C25.182 34.0001 24.2228 33.0409 22.3042 31.1223L16.8778 25.6959Z" fill="white"/>
<path d="M21.4775 18.087C21.7704 17.7941 21.7704 17.3192 21.4775 17.0263C21.1846 16.7334 20.7098 16.7334 20.4169 17.0263L17.0253 20.4178C16.7324 20.7107 16.7324 21.1856 17.0253 21.4785C17.3182 21.7714 17.7931 21.7714 18.086 21.4785L21.4775 18.087Z" fill="white"/>
<path d="M28.7476 28.7488C29.3095 28.1869 29.3095 27.2759 28.7476 26.7139C28.1857 26.152 27.2746 26.152 26.7127 26.7139C26.1508 27.2759 26.1508 28.1869 26.7127 28.7488C27.2746 29.3108 28.1857 29.3108 28.7476 28.7488Z" fill="white"/>
<path fill-rule="evenodd" clip-rule="evenodd" d="M28.2606 13.8743C28.3301 13.466 28.7174 13.1913 29.1258 13.2607C32.3254 13.8051 34.75 16.6212 34.75 20.0001C34.75 20.2776 34.5968 20.5324 34.3518 20.6625C34.1067 20.7926 33.8098 20.7769 33.58 20.6215L32.08 19.6074C31.7368 19.3755 31.6467 18.9092 31.8787 18.5661C32.1106 18.2229 32.5769 18.1328 32.92 18.3648L33.0196 18.4321C32.4426 16.5227 30.8399 15.0739 28.8742 14.7395C28.4659 14.67 28.1912 14.2827 28.2606 13.8743Z" fill="white"/>
<path fill-rule="evenodd" clip-rule="evenodd" d="M19.7394 34.1259C19.6699 34.5343 19.2826 34.809 18.8742 34.7395C15.6746 34.1952 13.25 31.379 13.25 28.0001C13.25 27.7227 13.4032 27.4679 13.6482 27.3377C13.8933 27.2076 14.1902 27.2234 14.42 27.3788L15.92 28.3928C16.2632 28.6248 16.3533 29.091 16.1213 29.4342C15.8894 29.7773 15.4231 29.8675 15.08 29.6355L14.9804 29.5682C15.5574 31.4775 17.1601 32.9263 19.1258 33.2607C19.5341 33.3302 19.8088 33.7176 19.7394 34.1259Z" fill="white"/>
</svg>
