<svg width="20" height="20" viewBox="0 0 20 20" fill="none" xmlns="http://www.w3.org/2000/svg">
<path fill-rule="evenodd" clip-rule="evenodd" d="M5.83342 4.16675H9.16675C10.7381 4.16675 11.5238 4.16675 12.0119 4.6549C12.5001 5.14306 12.5001 5.92873 12.5001 7.50008V17.7084H13.7501H17.5001H18.3334C18.6786 17.7084 18.9584 17.9882 18.9584 18.3334C18.9584 18.6786 18.6786 18.9584 18.3334 18.9584H1.66675C1.32157 18.9584 1.04175 18.6786 1.04175 18.3334C1.04175 17.9882 1.32157 17.7084 1.66675 17.7084H2.50008V7.50008C2.50008 5.92873 2.50008 5.14306 2.98824 4.6549C3.47639 4.16675 4.26207 4.16675 5.83342 4.16675ZM4.37508 6.66675C4.37508 6.32157 4.6549 6.04175 5.00008 6.04175H10.0001C10.3453 6.04175 10.6251 6.32157 10.6251 6.66675C10.6251 7.01193 10.3453 7.29175 10.0001 7.29175H5.00008C4.6549 7.29175 4.37508 7.01193 4.37508 6.66675ZM4.37508 9.16675C4.37508 8.82157 4.6549 8.54175 5.00008 8.54175H10.0001C10.3453 8.54175 10.6251 8.82157 10.6251 9.16675C10.6251 9.51193 10.3453 9.79175 10.0001 9.79175H5.00008C4.6549 9.79175 4.37508 9.51193 4.37508 9.16675ZM4.37508 11.6667C4.37508 11.3216 4.6549 11.0417 5.00008 11.0417H10.0001C10.3453 11.0417 10.6251 11.3216 10.6251 11.6667C10.6251 12.0119 10.3453 12.2917 10.0001 12.2917H5.00008C4.6549 12.2917 4.37508 12.0119 4.37508 11.6667ZM7.50008 15.2084C7.84526 15.2084 8.12508 15.4882 8.12508 15.8334V17.7084H6.87508V15.8334C6.87508 15.4882 7.1549 15.2084 7.50008 15.2084Z" fill="white"/>
<path opacity="0.5" d="M12.5001 1.66675H14.1667C15.7381 1.66675 16.5237 1.66675 17.0119 2.1549C17.5001 2.64306 17.5001 3.42873 17.5001 5.00008V17.7084H12.5001V7.50008C12.5001 5.92873 12.5001 5.14306 12.0119 4.6549C11.5348 4.17774 10.7733 4.167 9.27173 4.16675V2.91674C9.34197 2.59404 9.45921 2.35057 9.65488 2.1549C10.143 1.66675 10.9287 1.66675 12.5001 1.66675Z" fill="white"/>
</svg>
