<svg xmlns="http://www.w3.org/2000/svg" width="21" height="22" viewBox="0 0 21 22" >
  <path d="M6.92857 2.85721C6.92857 2.50217 6.64075 2.21436 6.28571 2.21436C5.93067 2.21436 5.64286 2.50217 5.64286 2.85721V4.21086C4.40915 4.30965 3.59923 4.55211 3.00421 5.14713C2.40918 5.74216 2.16673 6.55207 2.06793 7.78578H19.0749C18.9761 6.55207 18.7337 5.74216 18.1387 5.14713C17.5436 4.55211 16.7337 4.30965 15.5 4.21086V2.85721C15.5 2.50217 15.2122 2.21436 14.8571 2.21436C14.5021 2.21436 14.2143 2.50217 14.2143 2.85721V4.15399C13.6441 4.14293 13.0049 4.14293 12.2857 4.14293H8.85714C8.13797 4.14293 7.4988 4.14293 6.92857 4.15399V2.85721Z" />
  <path fill-rule="evenodd" clip-rule="evenodd" d="M2 11.0001C2 10.2809 2 9.64173 2.01106 9.0715H19.1318C19.1429 9.64173 19.1429 10.2809 19.1429 11.0001V12.7144C19.1429 15.9468 19.1429 17.5631 18.1387 18.5673C17.1344 19.5715 15.5182 19.5715 12.2857 19.5715H8.85714C5.62465 19.5715 4.00841 19.5715 3.00421 18.5673C2 17.5631 2 15.9468 2 12.7144V11.0001ZM14.8571 12.7144C15.3305 12.7144 15.7143 12.3306 15.7143 11.8572C15.7143 11.3838 15.3305 11.0001 14.8571 11.0001C14.3838 11.0001 14 11.3838 14 11.8572C14 12.3306 14.3838 12.7144 14.8571 12.7144ZM14.8571 16.1429C15.3305 16.1429 15.7143 15.7592 15.7143 15.2858C15.7143 14.8124 15.3305 14.4286 14.8571 14.4286C14.3838 14.4286 14 14.8124 14 15.2858C14 15.7592 14.3838 16.1429 14.8571 16.1429ZM11.4286 11.8572C11.4286 12.3306 11.0448 12.7144 10.5714 12.7144C10.098 12.7144 9.71429 12.3306 9.71429 11.8572C9.71429 11.3838 10.098 11.0001 10.5714 11.0001C11.0448 11.0001 11.4286 11.3838 11.4286 11.8572ZM11.4286 15.2858C11.4286 15.7592 11.0448 16.1429 10.5714 16.1429C10.098 16.1429 9.71429 15.7592 9.71429 15.2858C9.71429 14.8124 10.098 14.4286 10.5714 14.4286C11.0448 14.4286 11.4286 14.8124 11.4286 15.2858ZM6.28571 12.7144C6.7591 12.7144 7.14286 12.3306 7.14286 11.8572C7.14286 11.3838 6.7591 11.0001 6.28571 11.0001C5.81233 11.0001 5.42857 11.3838 5.42857 11.8572C5.42857 12.3306 5.81233 12.7144 6.28571 12.7144ZM6.28571 16.1429C6.7591 16.1429 7.14286 15.7592 7.14286 15.2858C7.14286 14.8124 6.7591 14.4286 6.28571 14.4286C5.81233 14.4286 5.42857 14.8124 5.42857 15.2858C5.42857 15.7592 5.81233 16.1429 6.28571 16.1429Z" />
</svg>