<svg width="48" height="48" viewBox="0 0 48 48" fill="none" xmlns="http://www.w3.org/2000/svg">
<circle cx="24" cy="24" r="24" fill="#2A8AA3"/>
<path fill-rule="evenodd" clip-rule="evenodd" d="M19 17H23C24.8856 17 25.8284 17 26.4142 17.5858C27 18.1716 27 19.1144 27 21V33.25H28.5H33H34C34.4142 33.25 34.75 33.5858 34.75 34C34.75 34.4142 34.4142 34.75 34 34.75H14C13.5858 34.75 13.25 34.4142 13.25 34C13.25 33.5858 13.5858 33.25 14 33.25H15V21C15 19.1144 15 18.1716 15.5858 17.5858C16.1716 17 17.1144 17 19 17ZM17.25 20C17.25 19.5858 17.5858 19.25 18 19.25H24C24.4142 19.25 24.75 19.5858 24.75 20C24.75 20.4142 24.4142 20.75 24 20.75H18C17.5858 20.75 17.25 20.4142 17.25 20ZM17.25 23C17.25 22.5858 17.5858 22.25 18 22.25H24C24.4142 22.25 24.75 22.5858 24.75 23C24.75 23.4142 24.4142 23.75 24 23.75H18C17.5858 23.75 17.25 23.4142 17.25 23ZM17.25 26C17.25 25.5858 17.5858 25.25 18 25.25H24C24.4142 25.25 24.75 25.5858 24.75 26C24.75 26.4142 24.4142 26.75 24 26.75H18C17.5858 26.75 17.25 26.4142 17.25 26ZM21 30.25C21.4142 30.25 21.75 30.5858 21.75 31V33.25H20.25V31C20.25 30.5858 20.5858 30.25 21 30.25Z" fill="white"/>
<path opacity="0.5" d="M27 14H29C30.8856 14 31.8284 14 32.4142 14.5858C33 15.1716 33 16.1144 33 18V33.25H27V21C27 19.1144 27 18.1716 26.4142 17.5858C25.8416 17.0132 24.9279 17.0003 23.126 17V15.5C23.2103 15.1127 23.351 14.8206 23.5858 14.5858C24.1715 14 25.1144 14 27 14Z" fill="white"/>
</svg>
