<svg width="40" height="40" viewBox="0 0 40 40" fill="none" xmlns="http://www.w3.org/2000/svg">
<path opacity="0.5" d="M36.6667 20.0002C36.6667 29.2049 29.2048 36.6668 20 36.6668C10.7953 36.6668 3.33337 29.2049 3.33337 20.0002C3.33337 10.7954 10.7953 3.3335 20 3.3335C29.2048 3.3335 36.6667 10.7954 36.6667 20.0002Z" fill="white"/>
<path d="M14.9495 14.9496C15.4376 14.4615 16.2291 14.4615 16.7173 14.9496L20.0001 18.2324L23.2828 14.9496C23.771 14.4615 24.5624 14.4615 25.0506 14.9496C25.5387 15.4378 25.5387 16.2293 25.0506 16.7174L21.7678 20.0002L25.0506 23.2829C25.5387 23.7711 25.5387 24.5625 25.0506 25.0507C24.5624 25.5388 23.7709 25.5388 23.2828 25.0507L20.0001 21.7679L16.7173 25.0507C16.2291 25.5389 15.4377 25.5389 14.9495 25.0507C14.4614 24.5626 14.4614 23.7711 14.9495 23.2829L18.2323 20.0002L14.9495 16.7174C14.4613 16.2292 14.4613 15.4378 14.9495 14.9496Z" fill="white"/>
</svg>
