<svg width="48" height="48" viewBox="0 0 48 48" fill="none" xmlns="http://www.w3.org/2000/svg">
<circle cx="24" cy="24" r="24" fill="#2A8AA3"/>
<path d="M22.9264 14.3602C23.2798 14.5763 23.3912 15.0379 23.1752 15.3913C23.0184 15.6477 23.0577 15.9782 23.2702 16.1908L23.3681 16.2886C23.9567 16.8773 24.1738 17.7421 23.9329 18.5389C23.8131 18.9354 23.3945 19.1597 22.998 19.0398C22.6015 18.92 22.3772 18.5014 22.4971 18.1049C22.578 17.8373 22.5051 17.547 22.3074 17.3493L22.2095 17.2514C21.507 16.5489 21.3771 15.4566 21.8954 14.6089C22.1114 14.2555 22.573 14.1442 22.9264 14.3602Z" fill="white"/>
<path d="M31.9747 19.0468C31.8363 19.1001 31.7136 19.2228 31.4682 19.4682C31.2228 19.7136 31.1002 19.8363 31.0468 19.9747C30.9844 20.1367 30.9844 20.3161 31.0468 20.4781C31.1002 20.6165 31.2228 20.7392 31.4682 20.9846C31.7136 21.23 31.8363 21.3527 31.9747 21.406C32.1367 21.4684 32.3161 21.4684 32.4781 21.406C32.6165 21.3527 32.7392 21.23 32.9846 20.9846C33.23 20.7392 33.3527 20.6165 33.406 20.4781C33.4684 20.3161 33.4684 20.1367 33.406 19.9747C33.3527 19.8363 33.23 19.7136 32.9846 19.4682C32.7392 19.2228 32.6165 19.1001 32.4781 19.0468C32.3161 18.9844 32.1367 18.9844 31.9747 19.0468Z" fill="white"/>
<path d="M33.4082 24.5596C33.0465 24.4015 32.6258 24.4679 32.3305 24.7298C31.5212 25.4474 30.3435 25.5667 29.4069 25.0259L29.194 24.903C28.8353 24.6959 28.7124 24.2372 28.9195 23.8785C29.1266 23.5198 29.5853 23.3968 29.944 23.604L30.1569 23.7268C30.5344 23.9448 31.0091 23.8967 31.3352 23.6075C32.0681 22.9577 33.1117 22.7929 34.0091 23.1852L34.3006 23.3127C34.6801 23.4786 34.8533 23.9208 34.6873 24.3003C34.5214 24.6799 34.0792 24.853 33.6997 24.6871L33.4082 24.5596Z" fill="white"/>
<path opacity="0.7" d="M25.561 16.3965C25.7621 16.1954 25.8626 16.0949 25.9788 16.058C26.0772 16.0269 26.1827 16.0269 26.281 16.058C26.3973 16.0949 26.4978 16.1954 26.6989 16.3965C26.8999 16.5975 27.0004 16.6981 27.0373 16.8143C27.0685 16.9126 27.0685 17.0182 27.0373 17.1165C27.0004 17.2327 26.8999 17.3332 26.6989 17.5343C26.4978 17.7354 26.3973 17.8359 26.281 17.8727C26.1827 17.9039 26.0772 17.9039 25.9788 17.8727C25.8626 17.8359 25.7621 17.7354 25.561 17.5343C25.36 17.3333 25.2594 17.2327 25.2226 17.1165C25.1914 17.0182 25.1914 16.9126 25.2226 16.8143C25.2594 16.6981 25.36 16.5975 25.561 16.3965Z" fill="white"/>
<path opacity="0.7" d="M31.0575 27.3134C31.267 27.1039 31.6066 27.1039 31.816 27.3134C32.0255 27.5228 32.0255 27.8624 31.816 28.0719C31.6066 28.2814 31.267 28.2814 31.0575 28.0719C30.848 27.8624 30.848 27.5228 31.0575 27.3134Z" fill="white"/>
<g opacity="0.5">
<path d="M18.9266 15.9408C19.1361 15.7313 19.4757 15.7313 19.6852 15.9408C19.8947 16.1503 19.8947 16.4899 19.6852 16.6993C19.4757 16.9088 19.1361 16.9088 18.9266 16.6993C18.7172 16.4899 18.7172 16.1503 18.9266 15.9408Z" fill="white"/>
<path d="M29.6887 16.7216C30.0949 16.8029 30.3583 17.198 30.2771 17.6042L30.1331 18.3241C29.9349 19.3149 29.221 20.1236 28.2625 20.4431C27.8145 20.5924 27.481 20.9703 27.3884 21.4333L27.2444 22.1532C27.1631 22.5594 26.768 22.8228 26.3618 22.7415C25.9557 22.6603 25.6923 22.2652 25.7735 21.859L25.9175 21.1391C26.1156 20.1483 26.8295 19.3396 27.7881 19.0201C28.236 18.8708 28.5696 18.4929 28.6622 18.0299L28.8062 17.31C28.8874 16.9038 29.2825 16.6404 29.6887 16.7216Z" fill="white"/>
</g>
<path opacity="0.2" d="M29.4999 21.7416C29.7093 21.5321 30.049 21.5321 30.2584 21.7416C30.4679 21.951 30.4679 22.2907 30.2584 22.5001C30.049 22.7096 29.7093 22.7096 29.4999 22.5001C29.2904 22.2907 29.2904 21.951 29.4999 21.7416Z" fill="white"/>
<path opacity="0.5" d="M16.0121 27.7618L17.7016 22.6933C18.4676 20.3952 18.8506 19.2462 19.7568 19.0323C20.6631 18.8183 21.5195 19.6748 23.2324 21.3876L26.6114 24.7666C28.3242 26.4795 29.1807 27.3359 28.9667 28.2422C28.7528 29.1484 27.6038 29.5314 25.3057 30.2975L20.2372 31.987L20.2372 31.987C17.4718 32.9088 16.0891 33.3697 15.3592 32.6398C14.6294 31.9099 15.0903 30.5272 16.0121 27.7618Z" fill="white"/>
<path d="M20.8001 19.5042L20.8507 19.2592C20.4576 19.0286 20.111 18.9487 19.7568 19.0323C19.6123 19.0664 19.4812 19.1242 19.3597 19.2067L20.0561 19.3506C19.5776 19.2517 19.415 19.2181 19.3597 19.2067C19.348 19.2146 19.3364 19.2228 19.3249 19.2311L19.3196 19.2574C19.3124 19.2933 19.302 19.3457 19.2889 19.4133C19.2626 19.5482 19.2255 19.7435 19.1816 19.9866C19.0941 20.4726 18.9794 21.1518 18.8708 21.9257C18.6556 23.4589 18.4564 25.4179 18.559 26.9834C18.6211 27.9306 18.8182 29.1057 18.9941 30.0238C19.0829 30.4872 19.1678 30.8933 19.2307 31.1838C19.2621 31.3291 19.288 31.4457 19.3062 31.5264L19.3273 31.6195L19.333 31.6441L19.3349 31.6525C19.3349 31.6526 19.3351 31.6533 20.0656 31.4833L19.3349 31.6525L19.4719 32.2412C19.7145 32.1612 19.9693 32.0762 20.2372 31.987L20.9013 31.7656L20.7945 31.3066L20.7894 31.2845L20.7695 31.1968C20.7522 31.1199 20.7272 31.0075 20.6968 30.8667C20.6358 30.585 20.5534 30.1909 20.4673 29.7416C20.2936 28.8346 20.1116 27.7351 20.0558 26.8852C19.9638 25.4814 20.1436 23.6495 20.3562 22.1342C20.4615 21.3838 20.5729 20.7243 20.6579 20.2527C20.7003 20.017 20.7361 19.8287 20.7612 19.6998C20.7738 19.6354 20.7836 19.5859 20.7903 19.5528L20.7978 19.5156L20.7996 19.5067L20.8001 19.5042Z" fill="white"/>
<path d="M25.0393 30.3863L23.6162 30.8606L23.5238 30.5826L24.2356 30.3461C23.5238 30.5826 23.5239 30.5827 23.5238 30.5826L23.5229 30.5798L23.5209 30.5738L23.5138 30.552C23.5077 30.5333 23.499 30.5064 23.4881 30.472C23.4663 30.4031 23.4354 30.3042 23.3986 30.1811C23.325 29.9354 23.227 29.5917 23.1288 29.1985C22.9367 28.4293 22.7274 27.407 22.7274 26.5552C22.7274 25.7034 22.9367 24.6811 23.1288 23.9119C23.227 23.5187 23.325 23.175 23.3986 22.9293C23.4354 22.8062 23.4663 22.7073 23.4881 22.6384C23.499 22.604 23.5077 22.5771 23.5138 22.5584L23.5209 22.5366L23.5229 22.5305L23.5235 22.5287C23.5235 22.5287 23.5238 22.5278 24.2356 22.7643L23.5238 22.5278L23.7355 21.8908L24.9224 23.0777C24.921 23.0824 24.9194 23.0872 24.9178 23.0922C24.8982 23.154 24.8698 23.245 24.8356 23.3594C24.767 23.5886 24.6755 23.9095 24.5841 24.2753C24.3971 25.0241 24.2274 25.8973 24.2274 26.5552C24.2274 27.2131 24.3971 28.0863 24.5841 28.8351C24.6755 29.2009 24.767 29.5218 24.8356 29.751C24.8698 29.8654 24.8982 29.9564 24.9178 30.0182C24.9276 30.0491 24.9352 30.0727 24.9403 30.0881L24.9458 30.1052L24.9471 30.109L25.0393 30.3863Z" fill="white"/>
</svg>
