<svg width="48" height="49" viewBox="0 0 48 49" fill="none" xmlns="http://www.w3.org/2000/svg">
<rect x="0.5" y="1" width="47" height="47" rx="23.5" stroke="#F2F2F7" stroke-opacity="0.12"/>
<path opacity="0.5" d="M33.8382 24.1263L33.609 26.5616C33.2313 30.5742 33.0425 32.5805 31.8599 33.7902C30.6773 35 28.9048 35 25.3599 35H22.6401C19.0952 35 17.3227 35 16.1401 33.7902C14.9575 32.5805 14.7687 30.5742 14.391 26.5616L14.1618 24.1263C13.9818 22.2137 13.8918 21.2574 14.219 20.8621C14.396 20.6482 14.6367 20.5172 14.894 20.4946C15.3697 20.4528 15.9671 21.1329 17.1619 22.4931C17.7798 23.1965 18.0887 23.5482 18.4334 23.6027C18.6243 23.6328 18.8189 23.6018 18.9953 23.5131C19.3135 23.3529 19.5257 22.9181 19.9501 22.0485L22.1869 17.4649C22.9888 15.8216 23.3898 15 24 15C24.6102 15 25.0112 15.8216 25.8131 17.4649L28.0499 22.0485C28.4743 22.9181 28.6865 23.3529 29.0047 23.5131C29.1811 23.6018 29.3757 23.6328 29.5666 23.6027C29.9113 23.5482 30.2202 23.1965 30.8381 22.4931C32.0329 21.1329 32.6303 20.4528 33.106 20.4946C33.3633 20.5172 33.604 20.6482 33.781 20.8621C34.1082 21.2574 34.0182 22.2137 33.8382 24.1263Z" fill="white"/>
<path d="M24.9524 25.6989L24.8541 25.5225C24.4741 24.8408 24.2841 24.5 24 24.5C23.7159 24.5 23.5259 24.8408 23.1459 25.5225L23.0476 25.6989C22.9397 25.8926 22.8857 25.9894 22.8015 26.0533C22.7173 26.1172 22.6125 26.141 22.4028 26.1884L22.2119 26.2316C21.474 26.3986 21.105 26.482 21.0172 26.7643C20.9294 27.0466 21.181 27.3407 21.684 27.929L21.8142 28.0812C21.9571 28.2483 22.0286 28.3319 22.0608 28.4353C22.0929 28.5387 22.0821 28.6502 22.0605 28.8733L22.0408 29.0763C21.9648 29.8612 21.9267 30.2536 22.1565 30.4281C22.3864 30.6025 22.7318 30.4435 23.4227 30.1254L23.4227 30.1253L23.6014 30.0431L23.6015 30.043C23.7978 29.9527 23.8959 29.9075 24 29.9075C24.1041 29.9075 24.2022 29.9527 24.3986 30.0431L24.3986 30.0431L24.5773 30.1254C25.2682 30.4435 25.6136 30.6025 25.8435 30.4281C26.0733 30.2536 26.0352 29.8612 25.9592 29.0763L25.9395 28.8733C25.9179 28.6502 25.9071 28.5387 25.9392 28.4353C25.9714 28.3319 26.0429 28.2483 26.1858 28.0812L26.316 27.929L26.316 27.929C26.819 27.3407 27.0706 27.0466 26.9828 26.7643C26.895 26.482 26.526 26.3986 25.7881 26.2316L25.5972 26.1884C25.3875 26.141 25.2827 26.1172 25.1985 26.0533C25.1143 25.9894 25.0603 25.8926 24.9524 25.6989Z" fill="white"/>
</svg>
