<svg  fill="none" xmlns="http://www.w3.org/2000/svg">
<g clip-path="url(#clip0_7_2)">
<path d="M11.4999 22.08V18.906M11.4999 4.09404V0.920044M22.0799 11.5H18.9059M4.09392 11.5H0.919922M18.9811 4.01885L16.7367 6.26321M6.26309 16.7369L4.01873 18.9812M4.01845 4.01909L6.2628 6.26345M16.7365 16.7371L18.9808 18.9815" stroke="white" stroke-width="1.37956" stroke-linecap="round"/>
<path d="M12.2189 15.64H11.7012C11.3365 15.64 11.04 15.9077 11.04 16.2371V16.8829C11.04 17.2123 11.3365 17.48 11.7012 17.48H12.2189C12.5837 17.48 12.88 17.2123 12.88 16.8829V16.2371C12.88 15.9067 12.5837 15.64 12.2189 15.64Z" fill="white"/>
<path d="M8.58262 9.70852L9.51025 9.83198C9.80447 9.8709 10.0838 9.69021 10.1897 9.39397C10.3234 9.02001 10.5096 8.72495 10.7482 8.50994C11.0863 8.20573 11.5068 8.05248 12.0097 8.05248C12.5307 8.05248 12.9459 8.19887 13.254 8.4905C13.5622 8.78327 13.7152 9.13323 13.7152 9.54384C13.7152 9.83888 13.6285 10.1087 13.4552 10.3535C13.3428 10.509 12.9972 10.8362 12.4205 11.3359C11.8427 11.8356 11.4586 12.2863 11.2661 12.6866C11.0692 13.096 11.0007 13.55 10.9836 14.0052C10.9686 14.3952 11.2596 14.7199 11.6256 14.7199H12.1498C12.4837 14.7199 12.7597 14.4466 12.7897 14.092C12.8111 13.837 12.8507 13.6438 12.9106 13.5123C13.0111 13.2869 13.2711 12.9896 13.6884 12.619C14.4963 11.9043 15.0226 11.3393 15.2698 10.923C15.5159 10.5079 15.64 10.0676 15.64 9.60216C15.64 8.76154 15.3052 8.0239 14.6343 7.39031C13.9645 6.75673 13.0615 6.43994 11.9273 6.43994C10.8488 6.43994 9.9789 6.75215 9.31558 7.37773C8.75061 7.91067 8.40716 8.54197 8.28625 9.27051C8.24879 9.48321 8.38467 9.68221 8.58262 9.70852Z" fill="white"/>
</g>
<defs>
<clipPath id="clip0_7_2">
<rect width="23" height="23" fill="white"/>
</clipPath>
</defs>
</svg>
