<svg width="104" height="104" viewBox="0 0 104 104" fill="none" xmlns="http://www.w3.org/2000/svg">
<path d="M52 84.6626L49.1156 87.5468C45.9296 90.7328 45.9296 95.8985 49.1156 99.0843L52 101.969L54.8843 99.0843C58.0704 95.8985 58.0704 90.733 54.8843 87.5468L52 84.6626Z" fill="#FCB96D" stroke="#2A8AA3" stroke-width="4.0625" stroke-miterlimit="10" stroke-linecap="round" stroke-linejoin="round"/>
<path d="M23.272 79.5337L20.3876 82.4181C17.2006 85.6051 17.2006 90.7706 20.3876 93.9556L23.272 96.8399L26.1563 93.9556C29.3413 90.7706 29.3413 85.6051 26.1563 82.4181L23.272 79.5337Z" fill="#FCB96D" stroke="#2A8AA3" stroke-width="4" stroke-miterlimit="10" stroke-linecap="round" stroke-linejoin="round"/>
<path d="M23.27 79.5335V69.3062" stroke="#2A8AA3" stroke-width="4.0625" stroke-miterlimit="10" stroke-linecap="round" stroke-linejoin="round"/>
<path d="M80.728 79.5337L77.8436 82.4181C74.6586 85.6051 74.6586 90.7706 77.8436 93.9556L80.728 96.8399L83.6123 93.9556C86.7994 90.7706 86.7994 85.6051 83.6123 82.4181L80.728 79.5337Z" fill="#FCB96D" stroke="#2A8AA3" stroke-width="4.0625" stroke-miterlimit="10" stroke-linecap="round" stroke-linejoin="round"/>
<path d="M80.73 79.5335V69.3062" stroke="#2A8AA3" stroke-width="4.0625" stroke-miterlimit="10" stroke-linecap="round" stroke-linejoin="round"/>
<path d="M52 84.6625V81.573" stroke="#2A8AA3" stroke-width="4.0625" stroke-miterlimit="10" stroke-linecap="round" stroke-linejoin="round"/>
<path d="M51.9999 0C28.9495 0 10.1968 18.7527 10.1968 41.8031C10.1968 64.8523 28.9495 83.6042 51.9999 83.6042C75.0503 83.6042 93.803 64.8523 93.803 41.8031C93.803 18.7527 75.0501 0 51.9999 0ZM51.9999 73.4155C34.5421 73.4155 20.3876 59.2611 20.3876 41.8031C20.3876 24.3482 34.5362 10.1888 51.9999 10.1888C69.4597 10.1888 83.6122 24.3445 83.6122 41.8031C83.6122 59.2554 69.4636 73.4155 51.9999 73.4155Z" fill="#2A8AA3"/>
<path d="M56.8344 36.5483C53.9183 33.8652 49.3925 34.0829 46.7472 36.9687C44.2291 39.7054 44.2376 43.9128 46.7472 46.6355C49.2997 49.4628 53.8635 49.7896 56.8344 47.0559C58.2577 45.7513 59.9733 39.4692 56.8344 36.5483Z" stroke="#215B7B" stroke-width="4.0625" stroke-miterlimit="10" stroke-linecap="round" stroke-linejoin="round"/>
<path d="M83.6124 41.8031C83.6124 24.3482 69.4637 10.1887 52 10.1887C34.5402 10.1887 20.3877 24.3445 20.3877 41.8031C20.3877 59.2554 34.5364 73.4154 52 73.4154C60.7304 73.4154 68.6339 69.877 74.3539 64.155C80.0739 58.4329 83.6124 50.5314 83.6124 41.8031Z" fill="#FCB96D" stroke="#215B7B" stroke-width="4.0625" stroke-miterlimit="10" stroke-linecap="round" stroke-linejoin="round"/>
<path d="M56.8343 36.5483C60.3016 32.5426 60.131 26.4794 56.3264 22.6728L51.9999 18.3483L47.6733 22.6728C43.8688 26.4794 43.6982 32.5426 47.1655 36.5483" stroke="#215B7B" stroke-width="4.0625" stroke-miterlimit="10" stroke-linecap="round" stroke-linejoin="round"/>
<path d="M46.7472 36.9687C42.7395 33.5014 36.6763 33.67 32.8717 37.4765L28.5452 41.8031L32.8717 46.1276C36.6763 49.9342 42.7395 50.1028 46.7472 46.6354" stroke="#215B7B" stroke-width="4.0625" stroke-miterlimit="10" stroke-linecap="round" stroke-linejoin="round"/>
<path d="M47.1655 47.056C43.6982 51.0617 43.8688 57.1249 47.6733 60.9315L51.9999 65.2581L56.3264 60.9315C60.131 57.1249 60.3016 51.0617 56.8343 47.056" stroke="#215B7B" stroke-width="4.0625" stroke-miterlimit="10" stroke-linecap="round" stroke-linejoin="round"/>
<path d="M57.2549 46.6354C61.2605 50.1028 67.3238 49.9342 71.1283 46.1276L75.4549 41.8031L71.1283 37.4765C67.3238 33.67 61.2605 33.5014 57.2549 36.9687" stroke="#215B7B" stroke-width="4.0625" stroke-miterlimit="10" stroke-linecap="round" stroke-linejoin="round"/>
<path d="M52 18.3484V10.1888" stroke="#215B7B" stroke-width="4.0625" stroke-miterlimit="10" stroke-linecap="round" stroke-linejoin="round"/>
<path d="M35.4147 25.218L29.646 19.4492" stroke="#215B7B" stroke-width="4.0625" stroke-miterlimit="10" stroke-linecap="round" stroke-linejoin="round"/>
<path d="M28.5452 41.8032H20.3877" stroke="#215B7B" stroke-width="4.0625" stroke-miterlimit="10" stroke-linecap="round" stroke-linejoin="round"/>
<path d="M35.4147 58.3882L29.646 64.1549" stroke="#215B7B" stroke-width="4.0625" stroke-miterlimit="10" stroke-linecap="round" stroke-linejoin="round"/>
<path d="M52 65.2581V73.4156" stroke="#215B7B" stroke-width="4.0625" stroke-miterlimit="10" stroke-linecap="round" stroke-linejoin="round"/>
<path d="M68.5852 58.3882L74.354 64.1549" stroke="#215B7B" stroke-width="4.0625" stroke-miterlimit="10" stroke-linecap="round" stroke-linejoin="round"/>
<path d="M75.4548 41.8032H83.6123" stroke="#215B7B" stroke-width="4.0625" stroke-miterlimit="10" stroke-linecap="round" stroke-linejoin="round"/>
<path d="M68.5852 25.218L74.354 19.4492" stroke="#215B7B" stroke-width="4.0625" stroke-miterlimit="10" stroke-linecap="round" stroke-linejoin="round"/>
</svg>
