<svg width="24" height="24" viewBox="0 0 24 24" fill="none" xmlns="http://www.w3.org/2000/svg">
<path fill-rule="evenodd" clip-rule="evenodd" d="M2.91858 6.60489C2.70062 6.09808 2.11327 5.86348 1.60603 6.08087C1.0984 6.29843 0.863613 6.88714 1.08117 7.39477L1.0816 7.39577L1.08267 7.39826L1.08566 7.40514L1.09505 7.42643C1.10282 7.44391 1.11363 7.46789 1.12752 7.49796C1.15529 7.55808 1.19539 7.64259 1.2481 7.74801C1.35345 7.9587 1.5096 8.25381 1.71879 8.60525C2.12772 9.29225 2.74529 10.2045 3.59029 11.1243L2.79285 11.9217C2.40232 12.3123 2.40232 12.9454 2.79285 13.336C3.18337 13.7265 3.81654 13.7265 4.20706 13.336L5.04746 12.4956C5.61245 12.9518 6.24405 13.3816 6.94417 13.7522L6.16177 14.9546C5.86056 15.4175 5.99165 16.037 6.45457 16.3382C6.91748 16.6394 7.53693 16.5083 7.83814 16.0454L8.82334 14.5313C9.50014 14.7388 10.2253 14.8866 11 14.9558V16.5C11 17.0523 11.4477 17.5 12 17.5V13C9.25227 13 7.18102 11.8014 5.69633 10.4112C5.68823 10.4033 5.68003 10.3956 5.67173 10.3881C5.47324 10.2011 5.28532 10.0108 5.10775 9.81956C4.35439 9.00826 3.80137 8.1938 3.43737 7.58228C3.25594 7.27747 3.12302 7.02571 3.03696 6.85358C2.99397 6.7676 2.96278 6.70172 2.94319 6.6593C2.93339 6.63809 2.92651 6.62277 2.9225 6.61376L2.91858 6.60489ZM1.08117 7.39477L1.99995 7.00001C1.08081 7.39393 1.08117 7.39477 1.08117 7.39477Z" fill="white"/>
<path opacity="0.5" d="M15.2209 12.3981C14.2784 12.7691 13.209 12.9999 12 12.9999V17.4999C12.5523 17.4999 13 17.0522 13 16.4999V14.9556C13.772 14.8865 14.4974 14.739 15.1764 14.5308L16.1618 16.0453C16.463 16.5083 17.0825 16.6393 17.5454 16.3381C18.0083 16.0369 18.1394 15.4175 17.8382 14.9546L17.0558 13.7521C17.757 13.3813 18.3885 12.9515 18.9527 12.4957L19.7929 13.3359C20.1834 13.7264 20.8166 13.7264 21.2071 13.3359C21.5976 12.9454 21.5976 12.3122 21.2071 11.9217L20.4097 11.1242C21.1521 10.3161 21.7181 9.51478 22.1207 8.86862C22.384 8.44602 22.5799 8.08584 22.7116 7.82768C22.7775 7.69849 22.8274 7.59452 22.8619 7.52066C22.8791 7.48372 22.8924 7.45428 22.902 7.43296L22.9134 7.40711L22.917 7.39889L22.9191 7.39387C23.1367 6.88624 22.9015 6.29836 22.3939 6.0808C21.8864 5.8633 21.2985 6.09868 21.0809 6.60603L21.0759 6.61722C21.0706 6.62902 21.0617 6.64866 21.0492 6.67556C21.0241 6.72937 20.9844 6.8121 20.9299 6.91904C20.8207 7.13313 20.6526 7.44286 20.4233 7.81094C19.9628 8.54999 19.2652 9.50833 18.3156 10.3997C17.4746 11.1891 16.4469 11.9156 15.2209 12.3981Z" fill="white"/>
</svg>
