<svg xmlns="http://www.w3.org/2000/svg" width="19" height="20" viewBox="0 0 19 20" fill="none">
  <g clip-path="url(#clip0_242_3176)">
    <path d="M11.3077 3.66665H13.6154C13.8278 3.66665 14 3.48941 14 3.2708V0.895808C14 0.677234 13.8278 0.5 13.6154 0.5H11.3077C8.97216 0.502635 7.07946 2.4505 7.07694 4.85415V7.62499H4.38463C4.17221 7.62499 4 7.80222 4 8.02083V10.3958C4 10.6144 4.17221 10.7917 4.38463 10.7917H7.07694V19.1042C7.07694 19.3228 7.24915 19.5 7.46157 19.5H9.76925C9.98167 19.5 10.1539 19.3228 10.1539 19.1042V10.7917H12.8462C13.0117 10.7916 13.1585 10.6825 13.2108 10.5209L13.98 8.14593C14.0472 7.93852 13.9382 7.71438 13.7367 7.64529C13.6976 7.63189 13.6566 7.62502 13.6154 7.62499H10.1539V4.85415C10.1538 4.19831 10.6704 3.66665 11.3077 3.66665Z" fill="#2079FF"/>
  </g>
  <defs>
    <clipPath id="clip0_242_3176">
      <rect width="19" height="19" fill="white" transform="translate(0 0.5)"/>
    </clipPath>
  </defs>
</svg>
