<svg width="20" height="20" viewBox="0 0 20 20" fill="none" xmlns="http://www.w3.org/2000/svg">
<path opacity="0.5" d="M11.6636 17.5H8.33029C8.00399 17.5 7.69464 17.5 7.40113 17.4989C4.86771 17.4895 3.51488 17.3986 2.63993 16.5237C2.58406 16.4678 2.53139 16.4086 2.48173 16.3461C1.77961 15.4949 1.68247 14.2145 1.66903 11.9836C1.66715 11.8316 1.66592 11.6953 1.66741 11.5727C1.66688 11.3363 1.66688 11.0901 1.66688 10.8333V9.16667C1.66688 6.02397 1.66688 4.45262 2.64319 3.47631C3.6195 2.5 5.19084 2.5 8.33354 2.5H11.6669C14.8096 2.5 16.3809 2.5 17.3572 3.47631C17.4131 3.53219 17.4658 3.59139 17.5155 3.65392C18.2175 4.50512 18.3147 5.78551 18.3281 8.01632C18.33 8.16836 18.3312 8.30468 18.3298 8.42737C18.3303 8.66367 18.3303 8.90992 18.3303 9.16667V10.8333C18.3303 13.976 18.3303 15.5474 17.354 16.5237C16.3777 17.5 14.8063 17.5 11.6636 17.5Z" fill="white"/>
<path d="M10.8333 14.1668C10.8333 12.5955 10.8333 11.8098 11.3214 11.3217C11.8096 10.8335 12.5952 10.8335 14.1666 10.8335H14.9999C16.5713 10.8335 17.3569 10.8335 17.8451 11.3217C18.3333 11.8098 18.3333 12.5955 18.3333 14.1668C18.3333 15.7382 18.3333 16.5239 17.8451 17.012C17.3569 17.5002 16.5713 17.5002 14.9999 17.5002H14.1666C12.5952 17.5002 11.8096 17.5002 11.3214 17.012C10.8333 16.5239 10.8333 15.7382 10.8333 14.1668Z" fill="white"/>
<path d="M9.14139 10.0253C9.38547 10.2694 9.7812 10.2694 10.0253 10.0253C10.2694 9.7812 10.2694 9.38547 10.0253 9.14139L7.75888 6.875H8.75C9.09518 6.875 9.375 6.59518 9.375 6.25C9.375 5.90482 9.09518 5.625 8.75 5.625H6.25C5.90482 5.625 5.625 5.90482 5.625 6.25V8.75C5.625 9.09518 5.90482 9.375 6.25 9.375C6.59518 9.375 6.875 9.09518 6.875 8.75V7.75888L9.14139 10.0253Z" fill="white"/>
</svg>
