<svg width="48" height="48" viewBox="0 0 48 48" fill="none" xmlns="http://www.w3.org/2000/svg">
<circle cx="24" cy="24" r="24" fill="#2A8AA3"/>
<path fill-rule="evenodd" clip-rule="evenodd" d="M23.9426 13.25H24.0574C26.3658 13.25 28.1748 13.25 29.5863 13.4397C31.031 13.634 32.1711 14.0393 33.0659 14.9341C33.9607 15.8289 34.366 16.969 34.5603 18.4137C34.75 19.8252 34.75 21.6342 34.75 23.9426V24.0309C34.75 25.9397 34.75 27.5023 34.6463 28.7745C34.5422 30.0531 34.3287 31.1214 33.8509 32.0087C33.6401 32.4001 33.3812 32.7506 33.0659 33.0659C32.1711 33.9607 31.031 34.366 29.5863 34.5603C28.1748 34.75 26.3658 34.75 24.0574 34.75H23.9426C21.6342 34.75 19.8252 34.75 18.4137 34.5603C16.969 34.366 15.8289 33.9607 14.9341 33.0659C14.1409 32.2726 13.7312 31.2852 13.5134 30.0604C13.2993 28.8573 13.2602 27.3603 13.2521 25.5015C13.25 25.0287 13.25 24.5286 13.25 24.001L13.25 23.9426C13.25 21.6342 13.25 19.8252 13.4397 18.4137C13.634 16.969 14.0393 15.8289 14.9341 14.9341C15.8289 14.0393 16.969 13.634 18.4137 13.4397C19.8252 13.25 21.6342 13.25 23.9426 13.25ZM18.6136 14.9264C17.3352 15.0982 16.5645 15.4251 15.9948 15.9948C15.4251 16.5645 15.0982 17.3352 14.9264 18.6136C14.7516 19.9136 14.75 21.6218 14.75 24C14.75 24.5287 14.75 25.0257 14.7521 25.4949C14.7603 27.369 14.8021 28.7406 14.9902 29.7978C15.1744 30.8333 15.4877 31.4981 15.9948 32.0052C16.5645 32.5749 17.3352 32.9018 18.6136 33.0736C19.9136 33.2484 21.6218 33.25 24 33.25C26.3782 33.25 28.0864 33.2484 29.3864 33.0736C30.6648 32.9018 31.4355 32.5749 32.0052 32.0052C32.2151 31.7953 32.3872 31.5631 32.5302 31.2976C32.8619 30.6816 33.0531 29.8578 33.1513 28.6527C33.2494 27.4482 33.25 25.9459 33.25 24C33.25 21.6218 33.2484 19.9136 33.0736 18.6136C32.9018 17.3352 32.5749 16.5645 32.0052 15.9948C31.4355 15.4251 30.6648 15.0982 29.3864 14.9264C28.0864 14.7516 26.3782 14.75 24 14.75C21.6218 14.75 19.9136 14.7516 18.6136 14.9264Z" fill="white"/>
<path opacity="0.5" d="M33.2487 25.2804L33.0266 25.2497C30.1828 24.8559 27.5805 26.3343 26.2554 28.5626C24.5459 24.2376 20.0284 21.2881 14.9807 22.0129L14.755 22.0454C14.7501 22.6421 14.75 23.2913 14.75 24C14.75 24.5287 14.75 25.0257 14.7521 25.4949C14.7603 27.369 14.8021 28.7406 14.9902 29.7978C15.1744 30.8333 15.4877 31.4981 15.9948 32.0052C16.5645 32.5749 17.3352 32.9018 18.6136 33.0736C19.9136 33.2484 21.6218 33.25 24 33.25C26.3782 33.25 28.0864 33.2484 29.3864 33.0736C30.6648 32.9018 31.4355 32.5749 32.0052 32.0052C32.2151 31.7953 32.3872 31.5631 32.5302 31.2976C32.8619 30.6816 33.0531 29.8578 33.1513 28.6527C33.2267 27.7267 33.2445 26.6247 33.2487 25.2804Z" fill="white"/>
<path d="M30 20C30 21.1046 29.1046 22 28 22C26.8954 22 26 21.1046 26 20C26 18.8954 26.8954 18 28 18C29.1046 18 30 18.8954 30 20Z" fill="white"/>
</svg>
