<svg width="103" height="103" viewBox="0 0 103 103" fill="none" xmlns="http://www.w3.org/2000/svg">
<path d="M51.5 98.2831C77.3376 98.2831 98.2831 77.3376 98.2831 51.5C98.2831 25.6623 77.3376 4.7168 51.5 4.7168C25.6623 4.7168 4.7168 25.6623 4.7168 51.5C4.7168 77.3376 25.6623 98.2831 51.5 98.2831Z" fill="#2A8AA3"/>
<path d="M61.0729 51.2239C60.7261 51.2239 60.3788 51.1043 60.0984 50.8636L52.2648 44.163L45.2155 50.4462C44.6696 50.9347 43.8515 50.9539 43.2803 50.4965L35.7906 44.4911L28.3009 50.4965C27.6548 51.0143 26.71 50.9106 26.1935 50.2645C25.6751 49.6184 25.7788 48.6749 26.4255 48.1572L34.8529 41.3996C35.3999 40.9602 36.1814 40.9602 36.7285 41.3996L44.1672 47.3641L51.2468 41.053C51.8057 40.5539 52.6496 40.5446 53.219 41.0331L61.0524 47.7337L68.1009 41.4501C68.6364 40.9738 69.4317 40.9417 70.0023 41.3727L78.4296 47.7332C79.0909 48.2316 79.2221 49.1724 78.7231 49.833C78.2247 50.4936 77.2846 50.6265 76.6233 50.1264L69.1781 44.5076L62.071 50.844C61.7869 51.0967 61.4296 51.2239 61.0729 51.2239Z" fill="white"/>
<path d="M61.0725 62.3537C60.7257 62.3537 60.3784 62.2342 60.0979 61.9935L52.2643 55.2929L45.2157 61.5765C44.6687 62.065 43.851 62.0842 43.2798 61.6268L35.7901 55.6214L28.3006 61.6268C27.6546 62.1452 26.7097 62.0409 26.1933 61.3948C25.6748 60.7488 25.7785 59.8053 26.4252 59.2875L34.8526 52.5299C35.3997 52.0905 36.1812 52.0905 36.7282 52.5299L44.1663 58.4937L51.2459 52.1826C51.806 51.6836 52.6493 51.6742 53.2187 52.1627L61.0521 58.8633L68.1014 52.5801C68.6355 52.1039 69.4315 52.0718 70.002 52.5028L78.4294 58.8626C79.0906 59.361 79.2218 60.3018 78.7228 60.9624C78.2245 61.6232 77.2843 61.7562 76.6231 61.2558L69.1778 55.6375L62.0701 61.9734C61.7865 62.2266 61.4291 62.3537 61.0725 62.3537Z" fill="white"/>
<path d="M51.4998 94.7682C27.6414 94.7682 8.23169 75.3585 8.23169 51.5001C8.23169 27.6417 27.6414 8.23193 51.4998 8.23193C75.3583 8.23193 94.768 27.6417 94.768 51.5001C94.768 75.3585 75.3583 94.7682 51.4998 94.7682ZM51.4998 8.39931C27.7339 8.39931 8.39929 27.7342 8.39929 51.4999C8.39929 75.2655 27.7342 94.6004 51.4998 94.6004C75.2655 94.6004 94.6004 75.2658 94.6004 51.5001C94.6004 27.7344 75.2655 8.39931 51.4998 8.39931Z" fill="#FCB96D"/>
<path d="M51.4998 88.1583C31.2865 88.1583 14.8416 71.7134 14.8416 51.5001C14.8416 31.2867 31.2865 14.8418 51.4998 14.8418C71.7132 14.8418 88.1581 31.2867 88.1581 51.5001C88.1581 71.7134 71.7132 88.1583 51.4998 88.1583ZM51.4998 14.9848C31.3649 14.9848 14.9846 31.3652 14.9846 51.5001C14.9846 71.635 31.3649 88.0153 51.4998 88.0153C71.6347 88.0153 88.0151 71.635 88.0151 51.5001C88.0151 31.3652 71.6347 14.9848 51.4998 14.9848Z" fill="#FCB96D"/>
<path d="M51.5003 81.8418C51.3667 81.8418 51.2326 81.8412 51.0992 81.8396C51.0663 81.8389 51.0406 81.8121 51.0406 81.7799C51.0413 81.7477 51.0676 81.7214 51.0998 81.7214H51.1005C51.4994 81.7254 51.9012 81.7236 52.2976 81.7131C52.2983 81.7131 52.2988 81.7131 52.2994 81.7131C52.3309 81.7131 52.3573 81.7388 52.3587 81.7705C52.3593 81.8034 52.3334 81.8302 52.3012 81.8316C52.0362 81.8383 51.7667 81.8418 51.5003 81.8418ZM50.4998 81.8253C50.4991 81.8253 50.4987 81.8253 50.498 81.8253C50.102 81.8123 49.6984 81.7913 49.298 81.7621C49.2651 81.7598 49.2412 81.7317 49.2434 81.6995C49.2452 81.6684 49.2716 81.6445 49.302 81.6445C49.3031 81.6445 49.3049 81.6445 49.306 81.6452C49.7056 81.6738 50.1074 81.695 50.5016 81.7073C50.5344 81.7084 50.5597 81.7359 50.559 81.7683C50.5579 81.8003 50.5315 81.8253 50.4998 81.8253ZM52.8983 81.8097C52.8673 81.8097 52.8409 81.7851 52.8398 81.7533C52.838 81.7205 52.8633 81.693 52.8954 81.6912C53.2997 81.6724 53.7015 81.6467 54.0903 81.6139C54.0915 81.6139 54.0933 81.6132 54.095 81.6132C54.1254 81.6132 54.1514 81.6367 54.1536 81.6678C54.1565 81.6999 54.1326 81.7288 54.0997 81.731C53.7095 81.7638 53.3066 81.7902 52.9012 81.809C52.9001 81.8097 52.899 81.8097 52.8983 81.8097ZM48.7051 81.7147C48.7033 81.7147 48.7015 81.714 48.6997 81.714C48.3066 81.6783 47.9048 81.6338 47.5055 81.581C47.4733 81.5764 47.4505 81.5471 47.4545 81.5149C47.4592 81.4832 47.4914 81.4639 47.5207 81.4639C47.9189 81.5167 48.3189 81.5611 48.7102 81.5969C48.7424 81.5998 48.7666 81.6286 48.7634 81.6608C48.7607 81.6912 48.7357 81.7147 48.7051 81.7147ZM54.6919 81.676C54.662 81.676 54.6363 81.6532 54.6334 81.6228C54.6298 81.5906 54.6533 81.5618 54.6861 81.5585C55.0774 81.5173 55.4768 81.4677 55.8739 81.4096C55.9003 81.4114 55.9353 81.4273 55.9407 81.4599C55.9454 81.4916 55.9226 81.522 55.8909 81.5267C55.492 81.5846 55.0908 81.6345 54.6977 81.6756C54.696 81.6754 54.6937 81.676 54.6919 81.676ZM46.9193 81.4972C46.9164 81.4972 46.9135 81.4966 46.9106 81.4961C46.5193 81.4369 46.1204 81.3685 45.7262 81.293C45.6945 81.2865 45.6735 81.2561 45.6793 81.2239C45.6851 81.1922 45.7161 81.1705 45.7483 81.177C46.1414 81.2525 46.5379 81.3205 46.928 81.3801C46.9602 81.3848 46.9826 81.4148 46.9772 81.447C46.9732 81.4762 46.9479 81.4972 46.9193 81.4972ZM56.4737 81.4365C56.4455 81.4365 56.4203 81.4159 56.4158 81.3866C56.4104 81.3549 56.4321 81.3245 56.4643 81.3194C56.8574 81.2537 57.2532 81.1806 57.6411 81.0997C57.6668 81.0939 57.7043 81.1138 57.7108 81.1459C57.7173 81.1777 57.6968 81.2085 57.6646 81.2157C57.2757 81.2959 56.8786 81.3703 56.4831 81.4353C56.4802 81.4358 56.4766 81.4365 56.4737 81.4365ZM45.1499 81.1745C45.1458 81.1745 45.1416 81.1739 45.1376 81.1728C44.7505 81.0901 44.3568 80.9982 43.9672 80.8986C43.9357 80.891 43.917 80.8588 43.9246 80.827C43.9328 80.796 43.9626 80.7732 43.9965 80.7848C44.3842 80.8831 44.7762 80.9752 45.1622 81.0577C45.1939 81.0641 45.2142 81.0957 45.2073 81.1274C45.2013 81.1553 45.1774 81.1745 45.1499 81.1745ZM58.2391 81.0896C58.2121 81.0896 58.1875 81.0709 58.1817 81.0434C58.1748 81.0119 58.1946 80.9801 58.2262 80.9732C58.6081 80.8865 58.9994 80.7893 59.3882 80.6845C59.4193 80.674 59.4515 80.6945 59.4602 80.726C59.4689 80.7571 59.4503 80.7899 59.4186 80.798C59.0284 80.9035 58.6356 81.0007 58.2519 81.0878C58.2478 81.0892 58.2431 81.0896 58.2391 81.0896ZM43.4032 80.7477C43.3978 80.7477 43.3927 80.7466 43.3873 80.7455C42.9978 80.6371 42.6108 80.5218 42.2358 80.4016C42.2047 80.3915 42.1877 80.3582 42.1978 80.3271C42.2076 80.2967 42.2382 80.2802 42.2722 80.2891C42.6454 80.4087 43.0313 80.524 43.4191 80.6317C43.4501 80.6404 43.4689 80.6728 43.46 80.7044C43.453 80.7301 43.4289 80.7477 43.4032 80.7477ZM59.9804 80.6387C59.9547 80.6387 59.9313 80.6217 59.9237 80.596C59.9149 80.5649 59.9324 80.5321 59.9641 80.5227C60.3449 80.4114 60.7291 80.2914 61.1063 80.1653C61.1373 80.1542 61.1702 80.1712 61.1807 80.2022C61.1912 80.2333 61.1749 80.2666 61.1438 80.2766C60.7648 80.4038 60.3795 80.5245 59.997 80.6362C59.9916 80.6375 59.9858 80.6387 59.9804 80.6387ZM41.6829 80.2152C41.6764 80.2152 41.6699 80.2141 41.6635 80.2116C41.2845 80.0822 40.9037 79.9428 40.5314 79.7982C40.5014 79.7866 40.4862 79.7519 40.4981 79.722C40.5103 79.6916 40.5461 79.6775 40.5743 79.688C40.945 79.8326 41.3245 79.9709 41.7023 80.1003C41.7327 80.1108 41.7493 80.1443 41.7386 80.1752C41.7303 80.1993 41.7075 80.2152 41.6829 80.2152ZM61.6907 80.0847C61.6667 80.0847 61.6437 80.0695 61.635 80.0453C61.6245 80.0149 61.6404 79.981 61.6708 79.9698C62.0527 79.8333 62.4299 79.6898 62.7901 79.5445C62.8205 79.5322 62.8545 79.5463 62.8668 79.5767C62.8791 79.6071 62.8646 79.6417 62.8346 79.6534C62.4721 79.7997 62.0942 79.9432 61.7105 80.0809C61.7043 80.0833 61.6971 80.0847 61.6907 80.0847ZM39.9943 79.5792C39.9867 79.5792 39.9792 79.5774 39.972 79.5745C39.6071 79.4252 39.2357 79.2634 38.8674 79.0942C38.8381 79.0808 38.8247 79.0462 38.8385 79.0162C38.8515 78.9863 38.8859 78.9722 38.9165 78.9874C39.2833 79.1555 39.6533 79.3166 40.0165 79.4654C40.0469 79.4777 40.0609 79.5123 40.0487 79.5421C40.0393 79.5651 40.0176 79.5792 39.9943 79.5792ZM63.364 79.4297C63.3412 79.4297 63.3196 79.4163 63.3095 79.3932C63.2972 79.3633 63.3106 79.3289 63.3412 79.3159C63.7102 79.1584 64.0769 78.9939 64.43 78.8263C64.4599 78.8122 64.495 78.8252 64.5084 78.8544C64.5225 78.8837 64.5095 78.9188 64.4803 78.9329C64.1258 79.1009 63.758 79.2661 63.3868 79.425C63.3799 79.4279 63.3716 79.4297 63.364 79.4297ZM38.3485 78.8446C38.3398 78.8446 38.3308 78.8424 38.3228 78.8388C37.965 78.6654 37.6041 78.4821 37.2497 78.2935C37.2211 78.2783 37.2099 78.2426 37.2251 78.214C37.2403 78.1851 37.276 78.1742 37.3049 78.1894C37.6579 78.3773 38.0177 78.5601 38.3744 78.7324C38.4037 78.7472 38.416 78.7823 38.4019 78.8115C38.3912 78.8323 38.3699 78.8446 38.3485 78.8446ZM64.9929 78.6777C64.9712 78.6777 64.9507 78.6654 64.9402 78.6448C64.9257 78.6156 64.9373 78.5805 64.9665 78.5657C65.3257 78.3858 65.6817 78.1997 66.0249 78.0117C66.0524 77.9941 66.0888 78.0059 66.1047 78.0352C66.1206 78.0634 66.1101 78.0991 66.0812 78.1147C65.7373 78.304 65.3802 78.4909 65.0193 78.6712C65.0112 78.6752 65.0019 78.6777 64.9929 78.6777ZM36.7493 78.0122C36.7392 78.0122 36.7294 78.0093 36.7207 78.0046C36.3681 77.8073 36.019 77.6028 35.6815 77.3965C35.6541 77.3795 35.6451 77.3431 35.6621 77.3152C35.6791 77.2877 35.7142 77.279 35.7434 77.2959C36.0784 77.5015 36.427 77.7053 36.7779 77.9016C36.8065 77.9174 36.8166 77.9536 36.8007 77.9818C36.7897 78.0012 36.7699 78.0122 36.7493 78.0122ZM66.5744 77.8289C66.5539 77.8289 66.534 77.8184 66.5235 77.799C66.5072 77.7708 66.517 77.7351 66.5452 77.7188C66.8931 77.5178 67.2381 77.3105 67.5691 77.1026C67.5973 77.0839 67.6335 77.0933 67.6505 77.1207C67.6681 77.1489 67.6598 77.1851 67.6324 77.2021C67.2992 77.4113 66.9534 77.6191 66.6037 77.8207C66.5943 77.826 66.5845 77.8289 66.5744 77.8289ZM35.2042 77.0881C35.193 77.0881 35.1825 77.0852 35.1727 77.0787C34.8453 76.8696 34.509 76.6447 34.1722 76.411C34.1452 76.3922 34.1389 76.3553 34.157 76.329C34.1758 76.3008 34.2127 76.295 34.239 76.3138C34.5747 76.5475 34.9103 76.7712 35.2359 76.9791C35.2634 76.9967 35.2717 77.0329 35.254 77.0604C35.2429 77.0781 35.2234 77.0881 35.2042 77.0881ZM68.1043 76.8888C68.0851 76.8888 68.0663 76.8794 68.0552 76.8617C68.0371 76.8347 68.0447 76.7978 68.0721 76.7804C68.3984 76.5661 68.7305 76.3381 69.0579 76.1039C69.0843 76.0847 69.1211 76.0905 69.1406 76.1173C69.1593 76.1444 69.1535 76.1813 69.1272 76.2C68.798 76.4356 68.4648 76.664 68.1367 76.8789C68.1267 76.8854 68.1155 76.8888 68.1043 76.8888ZM33.717 76.0729C33.7047 76.0729 33.6929 76.0689 33.6824 76.0613C33.3514 75.821 33.0287 75.5768 32.7241 75.3356C32.6984 75.3151 32.6942 75.2782 32.714 75.253C32.7339 75.2266 32.7722 75.2226 32.7967 75.2429C33.1007 75.4831 33.4218 75.7267 33.7514 75.9663C33.7778 75.9851 33.7836 76.0219 33.7644 76.0483C33.7534 76.0642 33.7351 76.0729 33.717 76.0729ZM69.5757 75.8579C69.5576 75.8579 69.5399 75.8496 69.5283 75.834C69.5091 75.8083 69.5142 75.7707 69.5406 75.7513C69.8622 75.5117 70.1802 75.2652 70.4859 75.0179C70.51 74.9973 70.5473 75.0009 70.5686 75.0266C70.5891 75.0518 70.5849 75.0887 70.5599 75.1093C70.2535 75.3575 69.9344 75.6054 69.611 75.8461C69.6003 75.8539 69.588 75.8579 69.5757 75.8579ZM32.2926 74.9723C32.2792 74.9723 32.2662 74.9676 32.255 74.9589C31.9493 74.7081 31.6418 74.4451 31.3413 74.1776C31.3173 74.1559 31.3149 74.1191 31.3366 74.0945C31.3582 74.0699 31.3958 74.0681 31.4197 74.0898C31.7189 74.3564 32.0253 74.6181 32.3299 74.8677C32.3551 74.8882 32.3585 74.9256 32.3382 74.9508C32.3265 74.9647 32.3096 74.9723 32.2926 74.9723ZM70.9851 74.7416C70.9681 74.7416 70.9518 74.7341 70.94 74.7206C70.919 74.6954 70.9223 74.6585 70.9469 74.6375C71.2515 74.3816 71.5543 74.1161 71.8473 73.8498C71.873 73.8274 71.9094 73.8292 71.9304 73.8533C71.9528 73.8775 71.951 73.9148 71.9268 73.9365C71.6327 74.2042 71.3288 74.4706 71.0231 74.7278C71.0119 74.737 70.9985 74.7416 70.9851 74.7416ZM30.9365 73.7899C30.9225 73.7899 30.9079 73.7847 30.8968 73.774C30.5987 73.4982 30.3075 73.2176 30.031 72.9405C30.0082 72.9177 30.0082 72.8801 30.031 72.8573C30.0545 72.8339 30.092 72.8339 30.1142 72.8573C30.3899 73.1331 30.68 73.4127 30.9763 73.6873C31.0002 73.7097 31.002 73.747 30.9799 73.7704C30.9683 73.7834 30.9524 73.7899 30.9365 73.7899ZM72.3257 73.5443C72.3099 73.5443 72.2947 73.5378 72.2831 73.5255C72.2607 73.502 72.2614 73.4645 72.2853 73.4424C72.5733 73.1688 72.8605 72.8859 73.1381 72.6019C73.1615 72.5791 73.1988 72.5784 73.2212 72.6008C73.2447 72.6236 73.2453 72.6604 73.2223 72.6839C72.9441 72.9697 72.6558 73.2533 72.366 73.528C72.355 73.5385 72.3405 73.5443 72.3257 73.5443ZM29.6534 72.5299C29.6382 72.5299 29.6223 72.5235 29.6107 72.5118C29.3325 72.222 29.0583 71.925 28.7959 71.6291C28.7742 71.6045 28.7765 71.5677 28.8006 71.546C28.8245 71.5243 28.8616 71.5261 28.8837 71.5507C29.145 71.8459 29.4185 72.1418 29.696 72.4298C29.7184 72.4533 29.7177 72.4908 29.6943 72.5136C29.6826 72.5241 29.6679 72.5299 29.6534 72.5299ZM73.5944 72.2687C73.5799 72.2687 73.5658 72.2633 73.5539 72.2524C73.5305 72.23 73.5294 72.1932 73.5517 72.1693C73.8235 71.8794 74.093 71.5806 74.3531 71.2801C74.3736 71.2555 74.411 71.2519 74.4362 71.2742C74.4608 71.2953 74.4632 71.3328 74.442 71.3574C74.1808 71.6584 73.9102 71.959 73.6373 72.2499C73.6261 72.2622 73.6103 72.2687 73.5944 72.2687ZM28.4466 71.1967C28.4303 71.1967 28.4133 71.1898 28.4015 71.1757C28.146 70.8758 27.8902 70.5629 27.6405 70.246C27.6207 70.2208 27.6247 70.1835 27.6506 70.1634C27.6752 70.1428 27.7127 70.1482 27.7333 70.1734C27.9816 70.4885 28.237 70.8003 28.4918 71.0995C28.5128 71.1241 28.5099 71.1616 28.4848 71.1826C28.4736 71.192 28.4602 71.1967 28.4466 71.1967ZM74.7857 70.9214C74.7723 70.9214 74.7593 70.9167 74.7482 70.9073C74.7229 70.8867 74.7196 70.8499 74.7406 70.8246C75.0036 70.5071 75.2548 70.192 75.4881 69.8887C75.508 69.8623 75.5449 69.8577 75.5708 69.8775C75.5965 69.8974 75.6018 69.9343 75.582 69.9602C75.3478 70.2655 75.0952 70.5817 74.8311 70.8997C74.8197 70.9138 74.8027 70.9214 74.7857 70.9214ZM27.3214 69.7951C27.3038 69.7951 27.2863 69.7868 27.2745 69.7716C27.0367 69.457 26.7994 69.1302 26.5692 68.7999C26.5511 68.7729 26.5576 68.736 26.5844 68.7173C26.6097 68.6985 26.647 68.7043 26.6664 68.7325C26.8955 69.061 27.1315 69.3872 27.3681 69.7001C27.388 69.7265 27.3829 69.7633 27.357 69.7828C27.346 69.7911 27.3337 69.7951 27.3214 69.7951ZM75.8957 69.5041C75.8834 69.5041 75.8711 69.5001 75.8606 69.4925C75.8349 69.4733 75.8289 69.4362 75.8483 69.4098C76.0821 69.0929 76.3152 68.7638 76.54 68.4317C76.5576 68.4042 76.5938 68.3966 76.6213 68.4158C76.6484 68.4339 76.6553 68.4703 76.6372 68.4971C76.4117 68.831 76.178 69.162 75.9431 69.48C75.9315 69.4952 75.9138 69.5041 75.8957 69.5041ZM26.2818 68.3302C26.2631 68.3302 26.2443 68.3208 26.2327 68.3038C26.0112 67.9711 25.794 67.6307 25.5873 67.2917C25.5703 67.2642 25.579 67.2278 25.6072 67.2108C25.6342 67.1939 25.6711 67.2026 25.6881 67.2307C25.8937 67.5682 26.1104 67.9072 26.3312 68.2381C26.3493 68.2652 26.3417 68.3021 26.3149 68.3202C26.3046 68.3266 26.293 68.3302 26.2818 68.3302ZM76.9201 68.0227C76.9089 68.0227 76.8978 68.0191 76.8879 68.0129C76.8609 67.9952 76.8528 67.959 76.8709 67.9315C77.0866 67.5995 77.2998 67.2566 77.5029 66.9141C77.5199 66.8855 77.5568 66.8776 77.5838 66.8931C77.612 66.91 77.6214 66.9462 77.6048 66.974C77.3999 67.319 77.1867 67.6623 76.9693 67.9961C76.9583 68.0127 76.9396 68.0227 76.9201 68.0227ZM25.3305 66.8068C25.3099 66.8068 25.2907 66.7963 25.2796 66.7775C25.0769 66.4302 24.8807 66.0776 24.6956 65.7297C24.6804 65.7011 24.6916 65.6653 24.7202 65.6501C24.7484 65.6342 24.7846 65.6461 24.7998 65.6747C24.9837 66.0208 25.1792 66.3724 25.3815 66.7179C25.3978 66.746 25.3886 66.7822 25.3604 66.7988C25.3511 66.8039 25.3406 66.8068 25.3305 66.8068ZM77.8549 66.4846C77.8448 66.4846 77.835 66.4816 77.8256 66.477C77.7975 66.4606 77.7876 66.4249 77.8033 66.3961C78.0031 66.0441 78.195 65.689 78.3749 65.3417C78.389 65.3124 78.4254 65.3013 78.454 65.3165C78.4833 65.3312 78.4945 65.3667 78.4793 65.3956C78.2994 65.7446 78.1061 66.1008 77.9065 66.4546C77.8954 66.4734 77.8755 66.4846 77.8549 66.4846ZM24.4712 65.23C24.4496 65.23 24.429 65.2177 24.4185 65.1971C24.2353 64.8351 24.0601 64.4713 23.8985 64.1171C23.8844 64.0871 23.8978 64.0527 23.9271 64.0391C23.9575 64.0246 23.9921 64.038 24.0051 64.0677C24.1667 64.421 24.3414 64.7828 24.524 65.1444C24.5387 65.173 24.5269 65.2087 24.4976 65.2235C24.4896 65.2277 24.4802 65.23 24.4712 65.23ZM78.6985 64.8907C78.6898 64.8907 78.6809 64.8885 78.6728 64.8843C78.6435 64.8702 78.6312 64.8351 78.646 64.8058C78.8199 64.4509 78.9904 64.0853 79.1526 63.7186C79.166 63.6894 79.1995 63.6753 79.2306 63.6887C79.2605 63.7016 79.2733 63.7367 79.2605 63.7667C79.0976 64.1338 78.9267 64.5012 78.7515 64.8572C78.7412 64.8785 78.7202 64.8907 78.6985 64.8907ZM23.7092 63.6069C23.6864 63.6069 23.6647 63.5935 23.6554 63.5711C23.496 63.2051 23.3425 62.8319 23.1997 62.4623C23.1881 62.4319 23.2033 62.3979 23.2337 62.3861C23.2636 62.3756 23.2976 62.3896 23.3099 62.42C23.4522 62.7879 23.6044 63.1593 23.7633 63.5242C23.7762 63.5541 23.7626 63.5886 23.7329 63.6015C23.7251 63.6051 23.717 63.6069 23.7092 63.6069ZM79.444 63.2502C79.4364 63.2502 79.4288 63.2484 79.4212 63.2455C79.3913 63.2326 79.3772 63.1982 79.3895 63.1682C79.5459 62.795 79.6941 62.4196 79.8311 62.0524C79.8427 62.0213 79.8784 62.0055 79.9066 62.0178C79.937 62.0289 79.9529 62.0629 79.9412 62.0933C79.8042 62.4623 79.6548 62.8395 79.4985 63.2138C79.4892 63.2361 79.4668 63.2502 79.444 63.2502ZM23.0433 61.9393C23.0193 61.9393 22.9963 61.9241 22.9876 61.9C22.8517 61.5264 22.7212 61.1438 22.5988 60.7632C22.5887 60.7321 22.6057 60.6988 22.6368 60.6888C22.6696 60.6787 22.7007 60.6964 22.7112 60.7268C22.8325 61.1062 22.963 61.4877 23.0989 61.8602C23.1101 61.8906 23.0942 61.9246 23.0631 61.9358C23.0569 61.9382 23.0497 61.9393 23.0433 61.9393ZM80.0901 61.5657C80.0836 61.5657 80.0771 61.5646 80.0709 61.5621C80.0398 61.5516 80.0239 61.5176 80.0344 61.487C80.1634 61.1192 80.2892 60.7355 80.4088 60.3466C80.4181 60.3149 80.4543 60.2968 80.4821 60.3073C80.5138 60.3167 80.5308 60.3495 80.5214 60.3806C80.4018 60.7712 80.2753 61.1567 80.1459 61.5257C80.137 61.5505 80.1147 61.5657 80.0901 61.5657ZM22.4781 60.232C22.4528 60.232 22.4294 60.215 22.4218 60.1898C22.3083 59.8096 22.2003 59.4201 22.1013 59.0317C22.0931 59 22.1118 58.9678 22.1436 58.9602C22.1757 58.949 22.2075 58.9714 22.2151 59.0025C22.3141 59.3895 22.4213 59.7775 22.5344 60.1558C22.5438 60.1869 22.5261 60.2197 22.4951 60.2291C22.4893 60.2309 22.4839 60.232 22.4781 60.232ZM80.6338 59.8483C80.6284 59.8483 80.6233 59.8472 80.6175 59.8461C80.5864 59.8373 80.5683 59.8045 80.577 59.7728C80.6836 59.3991 80.7862 59.0096 80.8816 58.6147C80.8892 58.583 80.9221 58.5638 80.9531 58.5714C80.9849 58.579 81.0041 58.6112 80.9965 58.6429C80.9004 59.0389 80.7974 59.4302 80.6908 59.8056C80.6829 59.8313 80.6595 59.8483 80.6338 59.8483ZM22.0155 58.4936C21.9885 58.4936 21.9646 58.4748 21.9581 58.448C21.8696 58.0686 21.7847 57.673 21.7069 57.2726C21.7011 57.2408 21.7214 57.21 21.7538 57.2035C21.7849 57.1948 21.8159 57.2183 21.8229 57.2504C21.9002 57.6493 21.9844 58.0435 22.0729 58.4212C22.0805 58.4529 22.0606 58.4844 22.0289 58.492C22.0242 58.4929 22.0195 58.4936 22.0155 58.4936ZM81.0736 58.1041C81.0696 58.1041 81.0653 58.1034 81.0606 58.1023C81.0289 58.0954 81.009 58.0643 81.0161 58.0319C81.1022 57.6395 81.1813 57.2446 81.2503 56.8582C81.2562 56.8265 81.2883 56.8062 81.319 56.8109C81.3507 56.8167 81.3721 56.8473 81.3663 56.8795C81.2966 57.2672 81.2175 57.6638 81.1308 58.0578C81.1252 58.0853 81.1004 58.1041 81.0736 58.1041ZM21.6575 56.7311C21.6293 56.7311 21.6041 56.7105 21.5994 56.6819C21.5333 56.2964 21.4722 55.8964 21.4191 55.4942C21.415 55.462 21.4378 55.4327 21.47 55.428C21.5033 55.432 21.5321 55.4468 21.5362 55.479C21.5889 55.8796 21.6497 56.2779 21.7154 56.662C21.7212 56.6942 21.6995 56.7246 21.6673 56.73C21.664 56.7306 21.6611 56.7311 21.6575 56.7311ZM81.4081 56.3358C81.4052 56.3358 81.4023 56.3351 81.3987 56.3346C81.3666 56.3299 81.3449 56.2995 81.3502 56.2674C81.4128 55.872 81.4684 55.4731 81.5143 55.0818C81.5183 55.0501 81.5489 55.0302 81.5797 55.0302C81.6119 55.0342 81.6347 55.0635 81.6314 55.0957C81.5851 55.4881 81.5295 55.8888 81.4662 56.2859C81.4613 56.3147 81.4367 56.3358 81.4081 56.3358ZM21.4052 54.95C21.3753 54.95 21.3502 54.9277 21.3467 54.8973C21.3033 54.5077 21.2664 54.1053 21.2372 53.7006C21.2349 53.6684 21.2588 53.6402 21.2917 53.638C21.2928 53.6373 21.2946 53.6373 21.2957 53.6373C21.3261 53.6373 21.352 53.6615 21.3543 53.6923C21.3842 54.0952 21.4211 54.4966 21.4638 54.8843C21.4673 54.9165 21.4439 54.9458 21.4117 54.9493C21.4092 54.9493 21.4074 54.95 21.4052 54.95ZM81.637 54.5522C81.6352 54.5522 81.6329 54.5515 81.6311 54.5515C81.599 54.5486 81.5748 54.5194 81.5784 54.4872C81.6171 54.0977 81.6481 53.6965 81.672 53.2941C81.6738 53.263 81.6995 53.2384 81.7306 53.2384C81.7317 53.2384 81.7328 53.2384 81.7342 53.2391C81.7663 53.2409 81.7916 53.2684 81.7891 53.3012C81.7657 53.7048 81.7342 54.1077 81.6955 54.499C81.6926 54.5294 81.6669 54.5522 81.637 54.5522ZM21.2597 53.1575C21.2287 53.1575 21.2023 53.1329 21.2012 53.1012C21.1806 52.7099 21.1679 52.3059 21.1614 51.9005C21.1614 51.8683 21.1871 51.8413 21.2199 51.8408H21.2206C21.2528 51.8408 21.2792 51.8665 21.2798 51.8994C21.2856 52.303 21.2986 52.7054 21.3185 53.0954C21.3203 53.1276 21.2957 53.1557 21.2628 53.1568C21.2615 53.1575 21.2611 53.1575 21.2597 53.1575ZM81.7594 52.7582C81.7588 52.7582 81.7576 52.7582 81.7572 52.7582C81.7243 52.7564 81.6993 52.7293 81.7004 52.6967C81.7163 52.3061 81.7239 51.9032 81.7239 51.5C81.7239 51.4672 81.7503 51.4408 81.7831 51.4408C81.816 51.4408 81.8423 51.4672 81.8423 51.5C81.8423 51.9047 81.8341 52.309 81.8189 52.7014C81.8169 52.7329 81.7912 52.7582 81.7594 52.7582ZM21.2182 51.3595C21.2182 51.3595 21.2182 51.3595 21.2175 51.3595C21.1853 51.3588 21.1589 51.3324 21.1589 51.2998C21.1614 50.9051 21.1719 50.5009 21.19 50.0984C21.1918 50.0667 21.2175 50.0421 21.2492 50.0421C21.2499 50.0421 21.251 50.0421 21.2521 50.0428C21.2843 50.0439 21.3096 50.0714 21.3084 50.1042C21.2897 50.5042 21.2798 50.9071 21.2774 51.3009C21.2767 51.3331 21.2506 51.3595 21.2182 51.3595ZM81.7829 51.3552C81.7507 51.3552 81.7243 51.3288 81.7237 51.2967C81.7208 50.8978 81.7103 50.4948 81.6922 50.1C81.691 50.0671 81.7161 50.0396 81.7485 50.0378C81.7496 50.0378 81.7507 50.0378 81.7514 50.0378C81.7831 50.0378 81.8088 50.0624 81.8106 50.0942C81.8282 50.4913 81.8392 50.8955 81.8423 51.2955C81.8423 51.3284 81.8159 51.3548 81.7838 51.3552C81.7829 51.3552 81.7829 51.3552 81.7829 51.3552ZM21.2827 49.5618C21.2816 49.5618 21.2805 49.5618 21.2787 49.5612C21.2465 49.5594 21.222 49.5312 21.2242 49.4984C21.2499 49.099 21.2845 48.6966 21.3261 48.3012C21.329 48.2713 21.3547 48.2485 21.3846 48.2485C21.3864 48.2485 21.3887 48.2492 21.3911 48.2492C21.4233 48.2527 21.4468 48.2813 21.4432 48.3142C21.4021 48.7073 21.3677 49.1084 21.3413 49.5066C21.3395 49.5377 21.3138 49.5618 21.2827 49.5618ZM81.7185 49.5578C81.6875 49.5578 81.6618 49.5339 81.66 49.5028C81.6336 49.1046 81.599 48.7033 81.5581 48.3104C81.5545 48.2775 81.578 48.2489 81.6101 48.2454C81.6124 48.2454 81.6148 48.2447 81.6166 48.2447C81.6466 48.2447 81.6723 48.2675 81.6752 48.2974C81.7167 48.6928 81.7514 49.0952 81.7771 49.4946C81.7795 49.5274 81.7547 49.5556 81.7225 49.5572C81.7208 49.5578 81.7196 49.5578 81.7185 49.5578ZM21.4526 47.7712C21.4503 47.7712 21.4479 47.7705 21.4454 47.7705C21.4126 47.7665 21.3898 47.7372 21.3938 47.7048C21.4436 47.3088 21.5015 46.9088 21.5665 46.5152C21.5717 46.4831 21.6028 46.4567 21.6338 46.4665C21.666 46.4719 21.6877 46.5023 21.6823 46.5338C21.6179 46.9262 21.5598 47.3251 21.5107 47.7186C21.5069 47.749 21.4819 47.7712 21.4526 47.7712ZM81.548 47.7667C81.5187 47.7667 81.4935 47.7443 81.4895 47.7146C81.4403 47.3197 81.3822 46.9215 81.3178 46.5302C81.3125 46.4987 81.3341 46.4681 81.3665 46.4629C81.3965 46.4576 81.4287 46.4788 81.4338 46.5114C81.4988 46.9039 81.5567 47.3039 81.6066 47.7005C81.6106 47.7327 81.5878 47.762 81.5549 47.7662C81.5527 47.766 81.5502 47.7667 81.548 47.7667ZM21.7279 45.9941C21.7243 45.9941 21.721 45.9934 21.7174 45.993C21.6852 45.9872 21.664 45.9561 21.67 45.9244C21.7426 45.532 21.8247 45.136 21.9132 44.7476C21.9208 44.7158 21.9541 44.6942 21.9833 44.7031C22.0148 44.71 22.0349 44.7418 22.0278 44.7733C21.94 45.1603 21.8586 45.5552 21.786 45.9454C21.7806 45.9742 21.7558 45.9941 21.7279 45.9941ZM81.2727 45.9907C81.2445 45.9907 81.22 45.9709 81.2148 45.942C81.1411 45.5472 81.0595 45.1529 80.9723 44.7695C80.9654 44.738 80.9853 44.7062 81.0168 44.6993C81.0497 44.6899 81.0796 44.7123 81.0872 44.7438C81.175 45.1286 81.2566 45.5246 81.3308 45.921C81.3366 45.9525 81.3156 45.9836 81.2834 45.9896C81.2796 45.9901 81.2763 45.9907 81.2727 45.9907ZM22.1091 44.2365C22.1044 44.2365 22.0998 44.2358 22.0951 44.2347C22.0636 44.2264 22.0441 44.1949 22.0517 44.1632C22.1482 43.7755 22.2537 43.3848 22.365 43.0029C22.3737 42.9712 22.4066 42.9538 22.4383 42.9625C22.4701 42.9719 22.4875 43.0047 22.4788 43.0358C22.3675 43.4166 22.2627 43.8054 22.1666 44.1913C22.1594 44.2182 22.1355 44.2365 22.1091 44.2365ZM80.8901 44.2322C80.8637 44.2322 80.8398 44.2141 80.8327 44.1871C80.7377 43.8059 80.6329 43.4168 80.5212 43.0315C80.5124 43.0005 80.5305 42.9676 80.5616 42.9582C80.5927 42.9506 80.6255 42.9676 80.6349 42.9987C80.7469 43.3853 80.8521 43.7752 80.9478 44.1589C80.9554 44.1907 80.9361 44.2222 80.9044 44.2305C80.8995 44.2318 80.895 44.2322 80.8901 44.2322ZM22.5947 42.5043C22.5889 42.5043 22.5831 42.5032 22.5771 42.5014C22.546 42.4914 22.5286 42.4588 22.5384 42.4277C22.6569 42.0494 22.7856 41.6652 22.9215 41.2849C22.9326 41.2545 22.9659 41.2375 22.997 41.2491C23.0274 41.2603 23.0433 41.2942 23.0328 41.3246C22.8976 41.703 22.7686 42.086 22.6508 42.4628C22.6432 42.488 22.6198 42.5043 22.5947 42.5043ZM80.4047 42.5003C80.3795 42.5003 80.356 42.484 80.3484 42.4588C80.2295 42.0797 80.1019 41.6978 79.9676 41.3237C79.9571 41.2933 79.973 41.2594 80.0034 41.2482C80.0349 41.2388 80.0677 41.2536 80.0789 41.284C80.213 41.6601 80.3413 42.0431 80.4608 42.4237C80.4706 42.4547 80.4532 42.4876 80.4222 42.4974C80.4163 42.4992 80.4105 42.5003 80.4047 42.5003ZM79.8161 40.801C79.7922 40.801 79.7698 40.7863 79.7611 40.763C79.6241 40.4017 79.4742 40.0292 79.3148 39.6555C79.3026 39.6256 79.316 39.5912 79.3464 39.5782C79.375 39.5666 79.4103 39.5793 79.4237 39.6097C79.583 39.9847 79.7336 40.3583 79.8711 40.7208C79.8827 40.7512 79.8675 40.7852 79.8371 40.797C79.8299 40.7999 79.823 40.801 79.8161 40.801ZM23.1852 40.7995C23.1782 40.7995 23.1711 40.7984 23.1642 40.7955C23.1338 40.7836 23.1186 40.7496 23.1302 40.7192C23.2732 40.3431 23.4247 39.9673 23.5807 39.6023C23.5937 39.5719 23.6305 39.5585 23.658 39.5708C23.6884 39.5838 23.7021 39.6182 23.6895 39.6481C23.5338 40.0124 23.3832 40.3867 23.2404 40.7617C23.2314 40.7847 23.2091 40.7995 23.1852 40.7995ZM79.1289 39.1442C79.1066 39.1442 79.0849 39.1312 79.0751 39.1091C78.9151 38.7536 78.743 38.3904 78.5638 38.0302C78.549 38.0009 78.5609 37.9658 78.5901 37.9511C78.6212 37.937 78.6545 37.9493 78.6692 37.9775C78.8491 38.3395 79.0219 38.7037 79.183 39.0611C79.1964 39.0904 79.183 39.1254 79.1531 39.1391C79.1455 39.1424 79.1372 39.1442 79.1289 39.1442ZM23.8764 39.1335C23.8681 39.1335 23.8601 39.1317 23.8525 39.1281C23.8225 39.1147 23.8091 39.0796 23.8225 39.0501C23.9894 38.6794 24.1633 38.3138 24.3392 37.9625C24.3544 37.9339 24.3901 37.9227 24.4183 37.9361C24.4476 37.9509 24.4592 37.986 24.4447 38.0152C24.2695 38.365 24.096 38.7299 23.9304 39.0982C23.9202 39.1207 23.8985 39.1335 23.8764 39.1335ZM78.3448 37.531C78.3237 37.531 78.3032 37.5193 78.2927 37.4995C78.1094 37.1493 77.9161 36.7971 77.7175 36.4516C77.7011 36.4234 77.711 36.3872 77.7391 36.3714C77.7677 36.3555 77.8035 36.3644 77.8194 36.393C78.0185 36.7399 78.2129 37.0936 78.3968 37.4445C78.412 37.4738 78.4008 37.5088 78.3722 37.524C78.3633 37.5287 78.3539 37.531 78.3448 37.531ZM24.6652 37.5135C24.6558 37.5135 24.6465 37.5113 24.6377 37.5066C24.6091 37.4914 24.598 37.4556 24.6132 37.427C24.7971 37.0769 24.9922 36.7224 25.1935 36.3727C25.2094 36.3441 25.2451 36.3352 25.2737 36.351C25.3019 36.3673 25.3117 36.4031 25.2954 36.4312C25.0952 36.7796 24.9008 37.133 24.7173 37.482C24.7068 37.5017 24.6862 37.5135 24.6652 37.5135ZM77.4649 35.9653C77.445 35.9653 77.4256 35.9548 77.4147 35.9365C77.2084 35.5943 76.9941 35.2542 76.778 34.925C76.7599 34.898 76.7675 34.8611 76.795 34.8437C76.822 34.8256 76.8589 34.8325 76.8763 34.8607C77.0935 35.191 77.3085 35.5324 77.5152 35.8757C77.5322 35.9039 77.5235 35.9396 77.4953 35.9566C77.4859 35.9624 77.4754 35.9653 77.4649 35.9653ZM25.5491 35.9436C25.5386 35.9436 25.5281 35.9407 25.5187 35.9349C25.4905 35.9186 25.4818 35.8822 25.4988 35.854C25.7068 35.5085 25.9229 35.1657 26.1401 34.8365C26.1578 34.8091 26.1947 34.8026 26.2215 34.8196C26.249 34.8377 26.2566 34.8741 26.2385 34.9009C26.0217 35.2294 25.8067 35.5704 25.5993 35.9148C25.5884 35.9331 25.569 35.9436 25.5491 35.9436ZM76.4937 34.4549C76.475 34.4549 76.4569 34.4455 76.445 34.4292C76.2213 34.1022 75.9869 33.7748 75.7491 33.4562C75.7299 33.4305 75.735 33.3936 75.7614 33.3735C75.7871 33.3547 75.8246 33.3594 75.8441 33.3858C76.0825 33.7056 76.3174 34.0341 76.5422 34.3621C76.5603 34.3892 76.5538 34.426 76.527 34.4441C76.5165 34.4513 76.5056 34.4549 76.4937 34.4549ZM26.5243 34.4296C26.5127 34.4296 26.5008 34.426 26.491 34.4191C26.4642 34.4003 26.4577 34.3641 26.4758 34.3371C26.7002 34.0108 26.9362 33.6816 27.1764 33.3596C27.1958 33.3326 27.2327 33.3279 27.2591 33.3473C27.2854 33.3672 27.2906 33.4041 27.2714 33.43C27.0311 33.7509 26.7963 34.079 26.5732 34.4041C26.5612 34.4202 26.5431 34.4296 26.5243 34.4296ZM75.4347 33.0034C75.417 33.0034 75.3996 32.9951 75.3884 32.9806C75.1464 32.6695 74.8934 32.3562 74.6358 32.0505C74.6148 32.0253 74.6181 31.9884 74.6427 31.9674C74.668 31.9464 74.7053 31.9504 74.7258 31.9745C74.9842 32.282 75.2383 32.596 75.4809 32.9082C75.5015 32.9339 75.4968 32.9708 75.4711 32.9907C75.4599 32.9992 75.4477 33.0034 75.4347 33.0034ZM27.5874 32.9775C27.5744 32.9775 27.5621 32.9735 27.5512 32.9645C27.5255 32.9446 27.5208 32.9078 27.5411 32.8818C27.79 32.562 28.0448 32.2481 28.2978 31.9482C28.3188 31.9242 28.3557 31.92 28.3809 31.9412C28.4055 31.9622 28.4091 31.9993 28.3878 32.0244C28.1353 32.3231 27.8817 32.6358 27.6334 32.9545C27.6224 32.9694 27.605 32.9775 27.5874 32.9775ZM74.291 31.6174C74.2746 31.6174 74.2581 31.6105 74.2465 31.5969C73.9893 31.3034 73.7182 31.0058 73.4404 30.7124C73.4181 30.6889 73.4187 30.6513 73.4429 30.6292C73.4663 30.6069 73.5039 30.6082 73.526 30.6315C73.8049 30.9255 74.0771 31.2241 74.3354 31.5193C74.3564 31.5439 74.3542 31.5808 74.3296 31.6024C74.3184 31.6123 74.3048 31.6174 74.291 31.6174ZM28.7342 31.5899C28.7201 31.5899 28.7067 31.5846 28.6956 31.5754C28.671 31.5537 28.6687 31.5162 28.6897 31.4923C28.955 31.1901 29.2281 30.8914 29.5003 30.6049C29.5226 30.581 29.5606 30.581 29.5834 30.6026C29.6073 30.625 29.608 30.6623 29.5856 30.6858C29.3139 30.9716 29.0426 31.2686 28.7785 31.5696C28.7671 31.583 28.7508 31.5899 28.7342 31.5899ZM73.0661 30.3003C73.0509 30.3003 73.0357 30.2945 73.0239 30.2826C72.745 29.9997 72.4569 29.7179 72.1668 29.4462C72.1434 29.4238 72.1423 29.3869 72.1646 29.363C72.1856 29.3396 72.2232 29.3378 72.2477 29.3608C72.5389 29.6332 72.8281 29.9155 73.1081 30.1995C73.1309 30.2229 73.1305 30.2605 73.1074 30.2833C73.096 30.2945 73.0813 30.3003 73.0661 30.3003ZM29.9602 30.2739C29.945 30.2739 29.9302 30.2681 29.9186 30.2569C29.8958 30.2335 29.8952 30.1966 29.918 30.1731C30.2009 29.8873 30.4907 29.6055 30.7794 29.3355C30.8034 29.3121 30.8409 29.3145 30.8626 29.338C30.8849 29.3619 30.8836 29.399 30.8601 29.4211C30.5725 29.6906 30.2838 29.9718 30.002 30.2565C29.9906 30.2681 29.9754 30.2739 29.9602 30.2739ZM71.767 29.058C71.753 29.058 71.7389 29.0526 71.7277 29.0428C71.4325 28.7762 71.1279 28.5127 70.8222 28.258C70.797 28.2374 70.7934 28.1998 70.8146 28.1753C70.8352 28.15 70.8732 28.1467 70.8973 28.1677C71.2043 28.4231 71.5105 28.6877 71.8064 28.955C71.831 28.9766 71.8328 29.0142 71.8111 29.0381C71.7992 29.0508 71.7827 29.058 71.767 29.058ZM31.2617 29.0321C31.2454 29.0321 31.2295 29.0251 31.2177 29.0122C31.196 28.9883 31.1978 28.9507 31.2224 28.929C31.5205 28.6609 31.8262 28.3967 32.1315 28.1442C32.1572 28.1232 32.194 28.1272 32.2141 28.1518C32.2351 28.1771 32.2318 28.2139 32.2065 28.2345C31.9031 28.4863 31.5985 28.7494 31.301 29.0171C31.2899 29.0269 31.2758 29.0321 31.2617 29.0321ZM70.3947 27.8928C70.3817 27.8928 70.369 27.8881 70.3578 27.8798C70.0497 27.6327 69.7305 27.3873 69.4078 27.15C69.3821 27.1305 69.3761 27.0937 69.3956 27.0673C69.4148 27.0416 69.4512 27.0362 69.4782 27.055C69.8016 27.2934 70.1225 27.5399 70.4318 27.7871C70.4571 27.8077 70.4611 27.845 70.4412 27.8702C70.4291 27.8852 70.4117 27.8928 70.3947 27.8928ZM32.6329 27.8707C32.6153 27.8707 32.5983 27.8631 32.5867 27.8483C32.5668 27.8226 32.5708 27.7858 32.5961 27.7652C32.9082 27.5162 33.2292 27.2709 33.5496 27.0353C33.5753 27.0166 33.6122 27.0219 33.6321 27.0476C33.6515 27.074 33.6455 27.1109 33.6198 27.1303C33.3 27.3652 32.9809 27.6094 32.6698 27.8577C32.6586 27.866 32.6457 27.8707 32.6329 27.8707ZM68.9555 26.8105C68.9439 26.8105 68.9321 26.8069 68.9216 26.7993C68.5993 26.5714 68.2654 26.3459 67.9293 26.1276C67.9023 26.1099 67.8943 26.0737 67.9124 26.0462C67.93 26.0199 67.9669 26.0116 67.9937 26.0293C68.3312 26.2478 68.6661 26.4744 68.9895 26.7035C69.0159 26.7222 69.0224 26.7591 69.0036 26.7855C68.9924 26.8016 68.9736 26.8105 68.9555 26.8105ZM34.0703 26.7929C34.0515 26.7929 34.0334 26.7841 34.0223 26.7676C34.0035 26.7412 34.01 26.7044 34.0363 26.6856C34.3597 26.4577 34.694 26.2311 35.0303 26.0132C35.0574 25.9951 35.0943 26.0031 35.1117 26.0301C35.1298 26.0576 35.1217 26.0941 35.0947 26.1115C34.759 26.3294 34.4263 26.5542 34.1043 26.7815C34.0935 26.7893 34.0819 26.7929 34.0703 26.7929ZM67.4549 25.8154C67.4444 25.8154 67.4332 25.8125 67.4239 25.806C67.0882 25.598 66.7416 25.3919 66.393 25.1939C66.3648 25.178 66.355 25.1423 66.3713 25.1137C66.3865 25.0855 66.4229 25.0761 66.4515 25.092C66.8013 25.2907 67.1492 25.4974 67.486 25.7063C67.5135 25.7233 67.5222 25.7595 67.5047 25.7872C67.4936 25.8053 67.4748 25.8154 67.4549 25.8154ZM35.5685 25.8013C35.5486 25.8013 35.5298 25.7913 35.5182 25.7732C35.5012 25.7457 35.5099 25.7092 35.5376 25.6918C35.8813 25.4793 36.2288 25.273 36.5696 25.0797C36.5982 25.0656 36.634 25.0739 36.6505 25.1021C36.6664 25.1307 36.6563 25.1664 36.6282 25.183C36.2878 25.3751 35.9423 25.5801 35.5995 25.7928C35.5901 25.7984 35.579 25.8013 35.5685 25.8013ZM65.8962 24.9117C65.8868 24.9117 65.877 24.9094 65.868 24.9041C65.519 24.7155 65.1605 24.5304 64.8032 24.3541C64.7739 24.34 64.7616 24.3043 64.7761 24.2757C64.7902 24.2464 64.8264 24.2352 64.8546 24.2488C65.2137 24.4252 65.5733 24.6109 65.9241 24.8013C65.9527 24.8165 65.9635 24.8522 65.9476 24.8811C65.9373 24.9005 65.9174 24.9117 65.8962 24.9117ZM37.1218 24.9009C37.1008 24.9009 37.0809 24.8898 37.0698 24.8699C37.0546 24.8411 37.0651 24.8055 37.0937 24.7897C37.4392 24.6035 37.7976 24.4189 38.1596 24.2408C38.1882 24.2274 38.2247 24.2386 38.2381 24.2678C38.2526 24.2964 38.2403 24.3322 38.211 24.3463C37.8508 24.5237 37.4935 24.7076 37.1498 24.894C37.1413 24.8987 37.1312 24.9009 37.1218 24.9009ZM64.2879 24.1009C64.2796 24.1009 64.2709 24.0991 64.2626 24.0951C63.9042 23.9275 63.5352 23.7641 63.1656 23.6095C63.1356 23.5965 63.1216 23.5621 63.1338 23.5322C63.1461 23.5022 63.1808 23.4881 63.2112 23.5004C63.5819 23.6562 63.9527 23.8202 64.3129 23.9883C64.3422 24.0017 64.3551 24.037 64.341 24.0667C64.3312 24.0879 64.31 24.1009 64.2879 24.1009ZM38.725 24.0951C38.7027 24.0951 38.6817 24.0821 38.6716 24.0605C38.6575 24.0312 38.6705 23.9961 38.7002 23.9825C39.054 23.8173 39.4225 23.6544 39.7961 23.4975C39.8265 23.4859 39.8612 23.4993 39.8734 23.5293C39.8857 23.5592 39.8717 23.5936 39.8417 23.6066C39.4699 23.7623 39.102 23.9253 38.7494 24.0893C38.742 24.0933 38.7333 24.0951 38.725 24.0951ZM62.6315 23.388C62.6245 23.388 62.617 23.3862 62.6098 23.384C62.2384 23.2365 61.86 23.0953 61.4853 22.9645C61.4542 22.954 61.4384 22.9201 61.4491 22.8897C61.4603 22.8586 61.4931 22.8428 61.5239 22.8535C61.9005 22.9847 62.2802 23.1263 62.6532 23.2741C62.6835 23.2864 62.6983 23.3203 62.6865 23.3507C62.6771 23.374 62.6547 23.388 62.6315 23.388ZM40.372 23.3869C40.3485 23.3869 40.3262 23.3722 40.317 23.3494C40.3054 23.319 40.3199 23.285 40.3503 23.2727C40.7146 23.1292 41.0936 22.988 41.4766 22.8533C41.507 22.8432 41.5406 22.8586 41.5515 22.8895C41.562 22.9199 41.5461 22.9534 41.5153 22.9643C41.1341 23.0984 40.7562 23.239 40.3937 23.3824C40.3868 23.3851 40.3792 23.3869 40.372 23.3869ZM42.0642 22.7755C42.0396 22.7755 42.0161 22.7596 42.0078 22.7346C41.9978 22.7042 42.0148 22.6707 42.0458 22.6602C42.4266 22.5355 42.8132 22.417 43.1945 22.3087C43.2284 22.3015 43.2584 22.3174 43.2678 22.3496C43.2765 22.3806 43.2584 22.4135 43.2273 22.4222C42.8472 22.5299 42.4624 22.6477 42.0823 22.7724C42.0764 22.7741 42.0702 22.7755 42.0642 22.7755ZM60.934 22.7748C60.9282 22.7748 60.9217 22.7737 60.9159 22.7719C60.5311 22.6465 60.1462 22.5288 59.7708 22.4222C59.7397 22.4135 59.7216 22.3806 59.7304 22.3496C59.7397 22.3174 59.7672 22.3008 59.8037 22.3087C60.1798 22.4159 60.5664 22.5341 60.9523 22.6595C60.9834 22.67 61.0003 22.7029 60.9903 22.7339C60.982 22.759 60.9586 22.7748 60.934 22.7748ZM59.2083 22.2671C59.2036 22.2671 59.1983 22.2664 59.1931 22.2649C58.8166 22.1652 58.4253 22.0709 58.03 21.9837C57.9984 21.9768 57.9783 21.9457 57.9855 21.9136C57.992 21.8818 58.0219 21.8601 58.0556 21.8691C58.4521 21.9565 58.8452 22.0512 59.2235 22.1513C59.2546 22.1596 59.2733 22.1918 59.2651 22.2233C59.2582 22.2494 59.2347 22.2671 59.2083 22.2671ZM43.7891 22.2671C43.7628 22.2671 43.7393 22.2494 43.7324 22.2231C43.7241 22.1916 43.7429 22.1592 43.7739 22.1511C44.1594 22.0499 44.5523 21.9549 44.9418 21.8693C44.9787 21.8599 45.0057 21.8823 45.012 21.9138C45.0189 21.946 44.999 21.977 44.9675 21.9839C44.5791 22.0695 44.188 22.1638 43.8043 22.2646C43.7992 22.2664 43.7938 22.2671 43.7891 22.2671ZM45.5423 21.8624C45.5148 21.8624 45.4902 21.8429 45.4842 21.815C45.4777 21.7828 45.4989 21.7518 45.5304 21.7453C45.9206 21.668 46.3182 21.5964 46.7137 21.5343C46.7531 21.5307 46.7763 21.5513 46.781 21.5828C46.7864 21.615 46.7647 21.6456 46.7325 21.6501C46.3383 21.7127 45.9419 21.7837 45.5541 21.861C45.5499 21.8617 45.5459 21.8624 45.5423 21.8624ZM57.4572 21.8624C57.4536 21.8624 57.4496 21.8617 57.4456 21.8613C57.0572 21.7839 56.6607 21.7131 56.2672 21.6503C56.235 21.6456 56.2133 21.6152 56.2187 21.583C56.2234 21.5515 56.2491 21.5314 56.286 21.5345C56.6808 21.5967 57.0784 21.6682 57.469 21.7455C57.5008 21.752 57.5218 21.783 57.5153 21.8152C57.5093 21.8429 57.4847 21.8624 57.4572 21.8624ZM55.683 21.5636C55.6801 21.5636 55.6777 21.5629 55.6748 21.5629C55.2882 21.5084 54.8888 21.4617 54.4863 21.4217C54.4542 21.4188 54.43 21.3895 54.4336 21.3573C54.4365 21.3269 54.4622 21.3039 54.4921 21.3039C54.4939 21.3039 54.4957 21.3046 54.498 21.3046C54.9016 21.3444 55.3034 21.3917 55.6911 21.4458C55.7233 21.4505 55.7456 21.4805 55.7414 21.5126C55.7373 21.5419 55.7121 21.5636 55.683 21.5636ZM47.3158 21.5636C47.2865 21.5636 47.2612 21.5419 47.2572 21.5126C47.2532 21.4805 47.2753 21.4505 47.3075 21.4458C47.701 21.392 48.1024 21.3446 48.5006 21.3053C48.5357 21.3071 48.5621 21.3258 48.565 21.358C48.5686 21.3902 48.5444 21.4195 48.5122 21.4224C48.1151 21.4617 47.7151 21.5084 47.3238 21.5629C47.3211 21.5629 47.3182 21.5636 47.3158 21.5636ZM53.8953 21.3703C53.8935 21.3703 53.8923 21.3703 53.8906 21.3696C53.4957 21.3392 53.0939 21.3151 52.6956 21.2999C52.6635 21.2981 52.6378 21.2713 52.6389 21.2384C52.6407 21.2067 52.6664 21.1817 52.6981 21.1817C52.6988 21.1817 52.6999 21.1817 52.7003 21.1817C53.0999 21.1975 53.5033 21.2215 53.8999 21.2525C53.9321 21.2548 53.9567 21.2829 53.9538 21.3158C53.9516 21.3468 53.9256 21.3703 53.8953 21.3703ZM49.1035 21.3703C49.0732 21.3703 49.0472 21.3468 49.045 21.3158C49.0421 21.2829 49.0667 21.2548 49.0989 21.2525C49.4953 21.2215 49.8989 21.1975 50.2985 21.1817C50.2991 21.1817 50.3002 21.1817 50.3007 21.1817C50.3324 21.1817 50.3581 21.2069 50.3599 21.2384C50.361 21.2713 50.3353 21.2981 50.3032 21.2999C49.9049 21.3151 49.5031 21.3392 49.1082 21.3696C49.1065 21.3703 49.1053 21.3703 49.1035 21.3703ZM52.0983 21.2825C52.0976 21.2825 52.0976 21.2825 52.0972 21.2825C51.6983 21.2742 51.2965 21.2742 50.9 21.2825C50.8994 21.2825 50.8994 21.2825 50.8989 21.2825C50.8667 21.2825 50.841 21.2568 50.8397 21.2246C50.839 21.1924 50.865 21.1654 50.8978 21.1643C51.296 21.1555 51.6978 21.1555 52.0996 21.1643C52.1325 21.1654 52.1582 21.1924 52.1575 21.2246C52.1562 21.2565 52.1305 21.2825 52.0983 21.2825Z" fill="#FCB96D"/>
<path d="M51.5003 97.3082C26.2413 97.3082 5.69189 76.7586 5.69189 51.4999C5.69189 26.2412 26.2413 5.69128 51.5003 5.69128C76.7592 5.69128 97.3086 26.241 97.3086 51.4996C97.3086 76.7583 76.759 97.3082 51.5003 97.3082ZM51.5003 6.14114C26.4892 6.14114 6.14175 26.4886 6.14175 51.4996C6.14175 76.5107 26.4892 96.8582 51.5003 96.8582C76.5114 96.8582 96.8588 76.5107 96.8588 51.4996C96.8588 26.4886 76.5114 6.14114 51.5003 6.14114Z" fill="#FCB96D"/>
<path d="M51.5 103C23.1029 103 0 79.8971 0 51.5C0 23.1029 23.1029 0 51.5 0C79.8971 0 103 23.1029 103 51.5C103 79.8971 79.8971 103 51.5 103ZM51.5 0.449851C23.3507 0.449851 0.449851 23.3507 0.449851 51.5C0.449851 79.6493 23.3507 102.55 51.5 102.55C79.6493 102.55 102.55 79.6495 102.55 51.5C102.55 23.3505 79.6493 0.449851 51.5 0.449851Z" fill="#FCB96D"/>
<path d="M52.7705 5.91614H52.6274V14.9129H52.7705V5.91614Z" fill="#FCB96D"/>
<path d="M52.7705 88.0862H52.6274V97.083H52.7705V88.0862Z" fill="#FCB96D"/>
<path d="M74.0354 22.8186L73.9219 22.733L79.3018 15.5222L79.4153 15.6076L74.0354 22.8186Z" fill="#FCB96D"/>
<path d="M24.99 88.491L24.8765 88.4056L30.2564 81.1946L30.3699 81.2802L24.99 88.491Z" fill="#FCB96D"/>
<path d="M86.4261 40.325L86.3792 40.1902L94.6273 37.3394L94.6742 37.4741L86.4261 40.325Z" fill="#FCB96D"/>
<path d="M8.54337 66.8608L8.49756 66.7261L17.0141 63.8263L17.0597 63.9608L8.54337 66.8608Z" fill="#FCB96D"/>
<path d="M86.4179 62.2317L86.3782 62.3677L94.9897 64.8844L95.0294 64.7484L86.4179 62.2317Z" fill="#FCB96D"/>
<path d="M7.56806 39.1863L7.52832 39.3223L16.1399 41.839L16.1796 41.703L7.56806 39.1863Z" fill="#FCB96D"/>
<path d="M80.0782 87.0248L74.4031 80.0753L74.5133 79.985L80.1883 86.9345L80.0782 87.0248Z" fill="#FCB96D"/>
<path d="M28.1495 23.4181L22.4744 16.4684L22.5845 16.3783L28.2596 23.3279L28.1495 23.4181Z" fill="#FCB96D"/>
<path d="M13.7924 65.4482C13.7924 66.5135 12.9289 67.377 11.8636 67.377C10.7986 67.377 9.93506 66.5135 9.93506 65.4482C9.93506 64.3832 10.7986 63.5197 11.8636 63.5197C12.9287 63.5194 13.7924 64.3829 13.7924 65.4482Z" fill="white"/>
<path d="M89.9653 29.5453C89.9653 30.2219 89.4169 30.7703 88.7402 30.7703C88.0635 30.7703 87.5151 30.2219 87.5151 29.5453C87.5151 28.8686 88.0635 28.3202 88.7402 28.3202C89.4169 28.3202 89.9653 28.8686 89.9653 29.5453Z" fill="white"/>
<path d="M88.1281 75.9123C88.1281 76.589 87.5797 77.1374 86.9031 77.1374C86.2264 77.1374 85.678 76.589 85.678 75.9123C85.678 75.2359 86.2264 74.6873 86.9031 74.6873C87.5797 74.6873 88.1281 75.2359 88.1281 75.9123Z" fill="white"/>
<path d="M42.3913 87.0404C42.3913 87.7171 41.8427 88.2655 41.1662 88.2655C40.4896 88.2655 39.9412 87.7168 39.9412 87.0404C39.9412 86.3639 40.4896 85.8153 41.1662 85.8153C41.8429 85.8153 42.3913 86.3637 42.3913 87.0404Z" fill="white"/>
<path d="M23.0422 30.0993C23.0422 30.776 22.4938 31.3244 21.8171 31.3244C21.1404 31.3244 20.592 30.7758 20.592 30.0993C20.592 29.4229 21.1404 28.8743 21.8171 28.8743C22.4936 28.8743 23.0422 29.4227 23.0422 30.0993Z" fill="white"/>
<path d="M76.4875 22.4009C76.4875 24.203 75.0267 25.6636 73.2246 25.6636C71.4225 25.6636 69.9619 24.2028 69.9619 22.4009C69.9619 20.599 71.4228 19.1382 73.2246 19.1382C75.0267 19.1382 76.4875 20.599 76.4875 22.4009Z" fill="white"/>
<path d="M87.9732 48.5679L88.4247 46.2516L88.6618 48.4045C88.7286 49.0108 89.216 49.4846 89.824 49.5342L91.4321 49.6656L89.5514 50.1974C89.0645 50.3353 88.7051 50.7483 88.6363 51.2496L88.1315 53.4126L87.9332 51.2878C87.8202 50.7957 87.4268 50.4171 86.9312 50.3224L84.7668 49.9092L86.9142 49.5833C87.4463 49.5027 87.8702 49.0962 87.9732 48.5679Z" fill="white"/>
<path d="M65.8333 86.9449L66.2848 84.6284L66.5219 86.7814C66.5887 87.3876 67.0761 87.8614 67.6839 87.911L69.292 88.0422L67.4115 88.5741C66.9246 88.7119 66.5652 89.1249 66.4964 89.6262L65.9916 91.7892L65.7936 89.6644C65.6803 89.1723 65.2872 88.7937 64.7913 88.699L62.627 88.2858L64.7743 87.9599C65.3066 87.8795 65.7303 87.4732 65.8333 86.9449Z" fill="white"/>
<path d="M18.9854 48.6389L19.4369 46.3226L19.674 48.4756C19.7408 49.0819 20.2282 49.5556 20.8362 49.6052L22.4444 49.7366L20.5638 50.2685C20.0769 50.4064 19.7175 50.8194 19.6487 51.3206L19.1439 53.4836L18.9457 51.359C18.8326 50.867 18.4393 50.4884 17.9434 50.3936L15.7791 49.9804L17.9264 49.6546C18.4585 49.5735 18.8824 49.1672 18.9854 48.6389Z" fill="white"/>
<path d="M51.5511 4.39496C51.4684 4.39496 51.4011 4.32747 51.4011 4.24501V0.824755C51.4011 0.74207 51.4684 0.674805 51.5511 0.674805C51.6338 0.674805 51.701 0.74207 51.701 0.824755V4.24478C51.701 4.32747 51.6335 4.39496 51.5511 4.39496Z" fill="#FCB96D"/>
<path d="M51.5511 102.096C51.4684 102.096 51.4011 102.029 51.4011 101.946V98.5258C51.4011 98.4433 51.4684 98.3759 51.5511 98.3759C51.6338 98.3759 51.701 98.4433 51.701 98.5258V101.946C51.701 102.028 51.6335 102.096 51.5511 102.096Z" fill="#FCB96D"/>
<path d="M56.3754 4.95628C56.3707 4.95628 56.3655 4.95628 56.3609 4.95561C56.2782 4.94735 56.2178 4.8736 56.2261 4.79159L56.5635 1.38787C56.5718 1.30586 56.6485 1.23792 56.7276 1.25312C56.8103 1.26138 56.8704 1.33513 56.8623 1.41715L56.5249 4.82086C56.5171 4.89841 56.4514 4.95628 56.3754 4.95628Z" fill="#FCB96D"/>
<path d="M46.7301 102.18C46.7254 102.18 46.72 102.18 46.7153 102.179C46.6327 102.171 46.5723 102.097 46.5806 102.015L46.918 98.6115C46.9263 98.5295 46.9994 98.4669 47.0821 98.4767C47.1647 98.485 47.2249 98.5587 47.2168 98.6408L46.8794 102.044C46.872 102.122 46.8063 102.18 46.7301 102.18Z" fill="#FCB96D"/>
<path d="M60.6955 5.5883C60.6861 5.5883 60.6768 5.58763 60.6669 5.58539C60.5856 5.56953 60.5328 5.49109 60.5487 5.40974L61.1995 2.05229C61.2147 1.97139 61.2898 1.91284 61.3751 1.93407C61.4565 1.94994 61.5092 2.02838 61.4936 2.10972L60.8428 5.46718C60.8292 5.53846 60.7659 5.5883 60.6955 5.5883Z" fill="#FCB96D"/>
<path d="M42.0957 101.502C42.0863 101.502 42.0769 101.502 42.0671 101.499C41.9857 101.484 41.933 101.405 41.9489 101.324L42.5996 97.9664C42.6148 97.8855 42.691 97.8265 42.7753 97.8479C42.8566 97.8638 42.9093 97.9423 42.8935 98.0236L42.2427 101.381C42.2293 101.453 42.1661 101.502 42.0957 101.502Z" fill="#FCB96D"/>
<path d="M64.9386 6.61674C64.9245 6.61674 64.9104 6.61495 64.8963 6.61093C64.8172 6.58747 64.7717 6.50434 64.7944 6.42478L65.7534 3.14174C65.7768 3.06218 65.86 3.0157 65.9395 3.03984C66.0186 3.0633 66.0642 3.14643 66.0414 3.22599L65.0825 6.50903C65.0633 6.57451 65.0036 6.61674 64.9386 6.61674Z" fill="#FCB96D"/>
<path d="M37.5453 100.399C37.5312 100.399 37.5171 100.397 37.503 100.393C37.4239 100.369 37.3783 100.286 37.4011 100.207L38.3601 96.9236C38.3835 96.844 38.4678 96.7982 38.5462 96.8217C38.6253 96.8452 38.6709 96.9283 38.6481 97.0079L37.6892 100.291C37.67 100.356 37.6103 100.399 37.5453 100.399Z" fill="#FCB96D"/>
<path d="M69.068 8.03383C69.0498 8.03383 69.0311 8.03026 69.013 8.02333C68.9357 7.99294 68.8981 7.90556 68.9285 7.82891L70.1873 4.64911C70.2177 4.57246 70.304 4.53492 70.3817 4.56486C70.4591 4.59526 70.4966 4.68263 70.466 4.75929L69.2072 7.93908C69.1842 7.99808 69.1278 8.03383 69.068 8.03383Z" fill="#FCB96D"/>
<path d="M33.1152 98.8789C33.0971 98.8789 33.0783 98.8753 33.0602 98.8684C32.9829 98.838 32.9454 98.7506 32.976 98.674L34.2348 95.4942C34.2652 95.4169 34.3512 95.38 34.4292 95.4099C34.5066 95.4403 34.5441 95.5277 34.5137 95.6043L33.2549 98.7841C33.2312 98.8431 33.1751 98.8789 33.1152 98.8789Z" fill="#FCB96D"/>
<path d="M73.0495 9.82705C73.0267 9.82705 73.0032 9.82169 72.9816 9.81074C72.9078 9.77319 72.8785 9.68313 72.9159 9.60917L74.4634 6.55921C74.501 6.48479 74.5917 6.45619 74.665 6.49351C74.7387 6.53105 74.768 6.62111 74.7307 6.69508L73.1831 9.74504C73.1566 9.79711 73.1038 9.82705 73.0495 9.82705Z" fill="#FCB96D"/>
<path d="M28.8461 96.956C28.8233 96.956 28.7999 96.9506 28.7782 96.9397C28.7045 96.9022 28.6752 96.8121 28.7125 96.7381L30.2594 93.6882C30.2969 93.6137 30.387 93.5845 30.461 93.6225C30.5347 93.66 30.564 93.7501 30.5267 93.824L28.9798 96.874C28.9532 96.9263 28.9007 96.956 28.8461 96.956Z" fill="#FCB96D"/>
<path d="M76.8477 11.9806C76.8202 11.9806 76.7927 11.973 76.7681 11.9578C76.6977 11.9133 76.6767 11.8208 76.7208 11.7511L78.5436 8.85755C78.5881 8.78738 78.6817 8.76726 78.7503 8.81017C78.8205 8.85464 78.8417 8.94716 78.7977 9.01688L76.9748 11.9104C76.9462 11.956 76.8975 11.9806 76.8477 11.9806Z" fill="#FCB96D"/>
<path d="M24.7729 94.6465C24.7454 94.6465 24.7179 94.6389 24.6934 94.6237C24.6232 94.5793 24.602 94.4868 24.646 94.417L26.4689 91.5231C26.514 91.4522 26.6072 91.4335 26.6756 91.4757C26.7457 91.5202 26.767 91.6127 26.7229 91.6824L24.9001 94.5764C24.8713 94.622 24.8228 94.6465 24.7729 94.6465Z" fill="#FCB96D"/>
<path d="M80.4309 14.4765C80.3987 14.4765 80.367 14.4664 80.3395 14.4454C80.2741 14.3949 80.2615 14.3008 80.312 14.2351L82.3948 11.5226C82.4446 11.4558 82.5389 11.4442 82.6051 11.4951C82.6706 11.5454 82.6831 11.6397 82.6326 11.7054L80.5498 14.4179C80.5205 14.4564 80.4761 14.4765 80.4309 14.4765Z" fill="#FCB96D"/>
<path d="M20.9298 91.9687C20.8976 91.9687 20.8659 91.9587 20.8384 91.9377C20.7727 91.8874 20.7604 91.7931 20.8109 91.7274L22.8937 89.0149C22.9435 88.9487 23.0371 88.9364 23.1039 88.9874C23.1696 89.0376 23.1819 89.132 23.1314 89.1977L21.0487 91.9102C21.0194 91.9488 20.9749 91.9687 20.9298 91.9687Z" fill="#FCB96D"/>
<path d="M83.7668 17.2933C83.7303 17.2933 83.6935 17.2799 83.6649 17.2535C83.6038 17.1972 83.6005 17.1024 83.6566 17.0414L85.9814 14.5327C86.0381 14.4731 86.1331 14.4688 86.1935 14.5245C86.2542 14.5808 86.2578 14.6755 86.2017 14.7365L83.8769 17.2452C83.847 17.2768 83.8072 17.2933 83.7668 17.2933Z" fill="#FCB96D"/>
<path d="M17.3512 88.9487C17.315 88.9487 17.2779 88.9353 17.2493 88.9089C17.1883 88.8526 17.185 88.7578 17.2411 88.6968L19.5658 86.1881C19.6226 86.1285 19.7176 86.1242 19.7779 86.1799C19.8389 86.2362 19.8423 86.3309 19.7862 86.3919L17.4614 88.9006C17.4315 88.9324 17.3917 88.9487 17.3512 88.9487Z" fill="#FCB96D"/>
<path d="M86.8275 20.4061C86.7864 20.4061 86.7455 20.3891 86.7156 20.3563C86.6606 20.2948 86.6657 20.1999 86.7272 20.1442L89.2746 17.8617C89.336 17.8071 89.4303 17.8114 89.4866 17.8733C89.5416 17.9347 89.5365 18.0297 89.475 18.0854L86.9276 20.3679C86.8988 20.3932 86.8633 20.4061 86.8275 20.4061Z" fill="#FCB96D"/>
<path d="M14.0685 85.6091C14.0276 85.6091 13.9865 85.5921 13.9565 85.5593C13.9016 85.4978 13.9067 85.4028 13.9682 85.3472L16.5149 83.0646C16.5759 83.0108 16.6706 83.0144 16.7269 83.0763C16.7819 83.1377 16.7768 83.2327 16.7153 83.2883L14.1686 85.5711C14.1398 85.5961 14.104 85.6091 14.0685 85.6091Z" fill="#FCB96D"/>
<path d="M89.5875 23.7896C89.5419 23.7896 89.4968 23.7686 89.4668 23.7286C89.4176 23.6624 89.4317 23.5686 89.4985 23.519L92.2457 21.4818C92.3114 21.4333 92.405 21.4467 92.4553 21.5135C92.5045 21.5797 92.4904 21.6735 92.4236 21.7231L89.6764 23.7603C89.6501 23.7802 89.6183 23.7896 89.5875 23.7896Z" fill="#FCB96D"/>
<path d="M11.107 81.9809C11.0614 81.9809 11.0163 81.9599 10.9863 81.9199C10.9372 81.8538 10.9513 81.7599 11.0181 81.7103L13.7657 79.6738C13.8307 79.6253 13.925 79.6387 13.9753 79.7055C14.0245 79.7717 14.0104 79.8653 13.9436 79.9151L11.196 81.9517C11.1698 81.9715 11.1381 81.9809 11.107 81.9809Z" fill="#FCB96D"/>
<path d="M92.023 27.4133C91.9727 27.4133 91.9229 27.3876 91.8947 27.3413C91.8521 27.2705 91.8742 27.178 91.945 27.1351L94.8689 25.3609C94.9405 25.3182 95.0323 25.3404 95.0752 25.4112C95.1179 25.4821 95.0958 25.5746 95.0249 25.6175L92.101 27.3916C92.0764 27.4062 92.0494 27.4133 92.023 27.4133Z" fill="#FCB96D"/>
<path d="M8.49519 78.0935C8.4449 78.0935 8.39507 78.0678 8.36691 78.0216C8.32423 77.9507 8.34635 77.8582 8.41719 77.8153L11.3411 76.0418C11.4126 75.9992 11.5045 76.0213 11.5474 76.0921C11.5901 76.163 11.5679 76.2555 11.4971 76.2984L8.57318 78.0719C8.5486 78.0864 8.52156 78.0935 8.49519 78.0935Z" fill="#FCB96D"/>
<path d="M94.1127 31.2467C94.057 31.2467 94.0038 31.2157 93.9779 31.1623C93.9415 31.0878 93.9725 30.9982 94.047 30.962L97.1226 29.4661C97.1959 29.4292 97.2866 29.4603 97.3228 29.5351C97.3593 29.6096 97.3282 29.6992 97.2538 29.7354L94.1781 31.2313C94.1571 31.242 94.1348 31.2467 94.1127 31.2467Z" fill="#FCB96D"/>
<path d="M6.25392 73.9816C6.19827 73.9816 6.14509 73.9505 6.11916 73.8974C6.08296 73.8229 6.1138 73.7333 6.18822 73.6971L9.26387 72.2012C9.33762 72.1643 9.42835 72.1954 9.46411 72.2703C9.50053 72.3447 9.46947 72.4343 9.39505 72.4705L6.3194 73.9664C6.29839 73.9769 6.27604 73.9816 6.25392 73.9816Z" fill="#FCB96D"/>
<path d="M95.8385 35.2573C95.7781 35.2573 95.7207 35.2204 95.6979 35.1601C95.6693 35.0828 95.7077 34.9961 95.7857 34.9668L98.9861 33.762C99.0627 33.7321 99.1495 33.7721 99.1794 33.8499C99.208 33.9272 99.1693 34.0139 99.0916 34.0432L95.8912 35.2479C95.8736 35.2544 95.8561 35.2573 95.8385 35.2573Z" fill="#FCB96D"/>
<path d="M4.4034 69.6806C4.34306 69.6806 4.28563 69.6437 4.26283 69.5833C4.23423 69.506 4.27289 69.4193 4.35066 69.39L7.55168 68.1853C7.62967 68.156 7.71504 68.1947 7.74499 68.2731C7.77381 68.3504 7.73448 68.4372 7.65716 68.4664L4.45614 69.6714C4.43848 69.6774 4.42105 69.6806 4.4034 69.6806Z" fill="#FCB96D"/>
<path d="M97.1865 39.4102C97.1203 39.4102 97.06 39.3662 97.0419 39.3C97.0202 39.2198 97.0672 39.1371 97.1467 39.1155L100.446 38.2122C100.529 38.1912 100.609 38.2379 100.63 38.317C100.652 38.3972 100.605 38.4799 100.525 38.5016L97.2267 39.4049C97.2129 39.4084 97.1995 39.4102 97.1865 39.4102Z" fill="#FCB96D"/>
<path d="M2.95847 65.2263C2.89232 65.2263 2.83198 65.1823 2.81388 65.1162C2.79221 65.0359 2.83913 64.9533 2.91869 64.9316L6.21693 64.0279C6.29961 64.0068 6.37984 64.0536 6.40152 64.1327C6.42319 64.2129 6.37626 64.2956 6.29671 64.3172L2.99847 65.221C2.98484 65.2246 2.97143 65.2263 2.95847 65.2263Z" fill="#FCB96D"/>
<path d="M98.1438 43.6701C98.0723 43.6701 98.009 43.6191 97.9963 43.5458C97.9816 43.4645 98.0361 43.3865 98.1177 43.3724L101.486 42.778C101.574 42.7621 101.645 42.8184 101.659 42.8991C101.674 42.9811 101.62 43.0591 101.538 43.0732L98.1704 43.6676C98.1608 43.6696 98.1518 43.6701 98.1438 43.6701Z" fill="#FCB96D"/>
<path d="M1.93089 60.6573C1.85938 60.6573 1.79613 60.6064 1.78317 60.5331C1.76842 60.4518 1.82295 60.3738 1.90452 60.3597L5.27248 59.7652C5.36321 59.7465 5.43181 59.805 5.44634 59.8866C5.46109 59.9686 5.40656 60.0464 5.32499 60.0604L1.95703 60.6549C1.94787 60.6567 1.93916 60.6573 1.93089 60.6573Z" fill="#FCB96D"/>
<path d="M98.7028 48.0005C98.6255 48.0005 98.5598 47.9412 98.5535 47.8628C98.5466 47.7803 98.608 47.7075 98.6905 47.7012L102.099 47.4208C102.182 47.4074 102.255 47.4753 102.261 47.5578C102.268 47.6402 102.206 47.7131 102.124 47.7193L98.7151 47.9998C98.7111 48.0005 98.7068 48.0005 98.7028 48.0005Z" fill="#FCB96D"/>
<path d="M1.33096 56.0133C1.25364 56.0133 1.18817 55.9541 1.18169 55.8756C1.17476 55.7929 1.23621 55.7203 1.31867 55.7141L4.72753 55.4336C4.80887 55.4213 4.88217 55.4881 4.8891 55.5706C4.89625 55.6533 4.83457 55.7257 4.75211 55.7322L1.34326 56.0126C1.33923 56.0133 1.33499 56.0133 1.33096 56.0133Z" fill="#FCB96D"/>
<path d="M102.28 52.4002C102.279 52.4002 102.279 52.4002 102.278 52.4002L98.8581 52.3637C98.7754 52.3626 98.7093 52.2951 98.71 52.212C98.7111 52.13 98.7779 52.0638 98.8599 52.0638C98.8606 52.0638 98.861 52.0638 98.8617 52.0638L102.282 52.1003C102.364 52.1014 102.431 52.1689 102.43 52.252C102.429 52.334 102.362 52.4002 102.28 52.4002Z" fill="#FCB96D"/>
<path d="M4.58341 51.369C4.58274 51.369 4.58229 51.369 4.58162 51.369L1.1616 51.3332C1.07891 51.3326 1.01276 51.2646 1.01343 51.1815C1.0141 51.0995 1.08137 51.0333 1.16338 51.0333C1.16405 51.0333 1.1645 51.0333 1.16517 51.0333L4.5852 51.0691C4.66788 51.0698 4.73403 51.1377 4.73336 51.2208C4.73269 51.3028 4.66543 51.369 4.58341 51.369Z" fill="#FCB96D"/>
<path d="M102.013 57.0755C102.007 57.0755 102.003 57.0755 101.997 57.0748L98.5955 56.7222C98.5129 56.7135 98.4532 56.6395 98.4615 56.5577C98.4702 56.475 98.5453 56.4189 98.6262 56.4236L102.028 56.7763C102.111 56.785 102.17 56.8589 102.162 56.9407C102.154 57.0181 102.089 57.0755 102.013 57.0755Z" fill="#FCB96D"/>
<path d="M4.83176 47.0099C4.82639 47.0099 4.8217 47.0099 4.81656 47.0092L1.41463 46.6566C1.33217 46.6479 1.27228 46.5739 1.28055 46.4921C1.28926 46.4094 1.36614 46.3509 1.44502 46.358L4.84695 46.7107C4.92941 46.7194 4.9893 46.7933 4.98104 46.8753C4.97299 46.9524 4.90796 47.0099 4.83176 47.0099Z" fill="#FCB96D"/>
<path d="M101.315 61.7064C101.306 61.7064 101.296 61.7053 101.286 61.7035L97.9315 61.0375C97.8502 61.0217 97.7974 60.9426 97.8138 60.8612C97.8296 60.7803 97.9052 60.7253 97.9901 60.7434L101.344 61.4094C101.426 61.4253 101.478 61.5044 101.462 61.5857C101.448 61.6572 101.385 61.7064 101.315 61.7064Z" fill="#FCB96D"/>
<path d="M5.48161 42.6925C5.47223 42.6925 5.46239 42.6914 5.45234 42.6896L2.09801 42.0244C2.01711 42.0085 1.96392 41.9294 1.98024 41.848C1.9961 41.7671 2.06985 41.7122 2.15656 41.7303L5.51089 42.3958C5.59178 42.4116 5.64497 42.4907 5.62866 42.5721C5.61458 42.6432 5.55201 42.6925 5.48161 42.6925Z" fill="#FCB96D"/>
<path d="M100.193 66.2524C100.178 66.2524 100.164 66.2507 100.15 66.246L96.8711 65.273C96.792 65.2495 96.7464 65.1664 96.7703 65.0868C96.7937 65.0077 96.8769 64.9603 96.9564 64.986L100.235 65.959C100.314 65.9825 100.36 66.0656 100.336 66.1452C100.317 66.2102 100.258 66.2524 100.193 66.2524Z" fill="#FCB96D"/>
<path d="M6.52995 38.4536C6.51587 38.4536 6.50134 38.4518 6.48727 38.4471L3.20847 37.4741C3.12936 37.4507 3.08377 37.3675 3.10769 37.288C3.13115 37.2089 3.2154 37.1608 3.29384 37.1872L6.57286 38.1602C6.65196 38.1837 6.69755 38.2668 6.67364 38.3464C6.65398 38.4116 6.59498 38.4536 6.52995 38.4536Z" fill="#FCB96D"/>
<path d="M98.6525 70.6756C98.6338 70.6756 98.615 70.6721 98.5969 70.6651L95.4222 69.3925C95.3456 69.3614 95.308 69.274 95.3384 69.1974C95.3688 69.1207 95.4584 69.085 95.5335 69.1136L98.7082 70.3862C98.7848 70.4173 98.8224 70.5047 98.792 70.5813C98.7685 70.6399 98.7118 70.6756 98.6525 70.6756Z" fill="#FCB96D"/>
<path d="M7.96503 34.3298C7.94626 34.3298 7.92749 34.3262 7.90938 34.3193L4.73473 33.0471C4.65808 33.016 4.62053 32.9288 4.65093 32.852C4.68199 32.7746 4.76981 32.7384 4.84602 32.7682L8.02067 34.0404C8.09732 34.0715 8.13487 34.1586 8.10448 34.2355C8.08101 34.294 8.02425 34.3298 7.96503 34.3298Z" fill="#FCB96D"/>
<path d="M96.7124 74.9368C96.6889 74.9368 96.6661 74.9315 96.6438 74.9205L93.6003 73.3602C93.5265 73.3222 93.4977 73.232 93.5352 73.1582C93.5732 73.0845 93.6624 73.0552 93.7373 73.0932L96.7807 74.6535C96.8545 74.6915 96.8833 74.7817 96.8458 74.8555C96.819 74.9071 96.7669 74.9368 96.7124 74.9368Z" fill="#FCB96D"/>
<path d="M9.77462 30.3566C9.75115 30.3566 9.72836 30.3513 9.70601 30.3403L6.66253 28.78C6.58879 28.742 6.55996 28.6518 6.5975 28.578C6.63549 28.5036 6.72511 28.475 6.79952 28.513L9.843 30.0733C9.91675 30.1113 9.94558 30.2015 9.90803 30.2753C9.88122 30.3269 9.82915 30.3566 9.77462 30.3566Z" fill="#FCB96D"/>
<path d="M94.3845 79.0008C94.357 79.0008 94.3289 78.9932 94.3043 78.9773L91.4184 77.1417C91.3482 77.0973 91.3276 77.0047 91.3721 76.935C91.4172 76.8646 91.5109 76.8454 91.5788 76.8887L94.4647 78.7244C94.5351 78.7688 94.5555 78.8613 94.511 78.9311C94.4824 78.9762 94.4339 79.0008 94.3845 79.0008Z" fill="#FCB96D"/>
<path d="M11.9438 26.5682C11.9164 26.5682 11.8882 26.5606 11.8636 26.5447L8.97768 24.7091C8.90751 24.6646 8.88695 24.5721 8.93142 24.5024C8.97657 24.4327 9.0702 24.4121 9.13814 24.4561L12.0241 26.2917C12.0942 26.3362 12.1148 26.4287 12.0703 26.4985C12.0415 26.5436 11.993 26.5682 11.9438 26.5682Z" fill="#FCB96D"/>
<path d="M91.6897 82.8307C91.6576 82.8307 91.6254 82.8208 91.5979 82.7991L88.8948 80.7045C88.8291 80.6542 88.8174 80.5599 88.8684 80.4942C88.9189 80.4281 89.0125 80.4158 89.0787 80.4679L91.7818 82.5625C91.8473 82.6128 91.8591 82.7071 91.8082 82.7728C91.7789 82.8108 91.7344 82.8307 91.6897 82.8307Z" fill="#FCB96D"/>
<path d="M14.456 22.9964C14.4238 22.9964 14.3917 22.9863 14.3642 22.9647L11.6604 20.87C11.5947 20.8198 11.5831 20.7255 11.634 20.6598C11.6843 20.5941 11.7782 20.5813 11.8443 20.6334L14.5481 22.728C14.6138 22.7783 14.6254 22.8726 14.5745 22.9383C14.545 22.9765 14.5005 22.9964 14.456 22.9964Z" fill="#FCB96D"/>
<path d="M88.6541 86.3964C88.6173 86.3964 88.5808 86.383 88.5516 86.3559L86.0529 84.02C85.9926 83.9632 85.989 83.8682 86.046 83.8079C86.1023 83.7469 86.1971 83.7447 86.2581 83.801L88.7567 86.1369C88.8171 86.1937 88.8206 86.2887 88.7636 86.349C88.7344 86.3805 88.6939 86.3964 88.6541 86.3964Z" fill="#FCB96D"/>
<path d="M17.287 19.6724C17.2502 19.6724 17.2138 19.659 17.1845 19.6319L14.6865 17.296C14.6262 17.2392 14.6226 17.1442 14.6793 17.0839C14.7357 17.0229 14.8304 17.0207 14.8914 17.077L17.3896 19.4129C17.45 19.4697 17.4535 19.5647 17.3966 19.625C17.3673 19.6565 17.3268 19.6724 17.287 19.6724Z" fill="#FCB96D"/>
<path d="M85.3017 89.6652C85.2602 89.6652 85.2193 89.6482 85.1898 89.6149L82.9184 87.0582C82.8634 86.996 82.8685 86.9017 82.9307 86.8468C82.9928 86.7911 83.0882 86.7976 83.1421 86.8591L85.4135 89.4158C85.4684 89.4779 85.4633 89.5722 85.4012 89.6272C85.3726 89.6529 85.3375 89.6652 85.3017 89.6652Z" fill="#FCB96D"/>
<path d="M20.4128 16.6243C20.3712 16.6243 20.3301 16.6073 20.3008 16.574L18.0295 14.0173C17.9745 13.9552 17.9796 13.8608 18.0418 13.8059C18.1043 13.7502 18.1986 13.7567 18.2532 13.8182L20.5245 16.3749C20.5795 16.437 20.5744 16.5313 20.5122 16.5863C20.4836 16.612 20.4483 16.6243 20.4128 16.6243Z" fill="#FCB96D"/>
<path d="M81.6602 92.6105C81.6146 92.6105 81.5688 92.5895 81.5395 92.5495L79.5139 89.7929C79.4648 89.7261 79.4788 89.6318 79.5457 89.5833C79.6125 89.5346 79.7061 89.5482 79.7553 89.6151L81.7806 92.3714C81.8298 92.4382 81.8157 92.5325 81.7489 92.581C81.7223 92.6011 81.6912 92.6105 81.6602 92.6105Z" fill="#FCB96D"/>
<path d="M23.8079 13.879C23.7623 13.879 23.7165 13.858 23.6872 13.818L21.6619 11.0621C21.6127 10.9953 21.6268 10.901 21.6936 10.8525C21.7604 10.8038 21.8541 10.8174 21.9032 10.8842L23.9286 13.6401C23.9777 13.7069 23.9637 13.8012 23.8968 13.8497C23.8698 13.8696 23.8387 13.879 23.8079 13.879Z" fill="#FCB96D"/>
<path d="M77.7621 95.2053C77.7111 95.2053 77.6619 95.1796 77.6338 95.1327L75.8726 92.2012C75.8299 92.1304 75.8527 92.0378 75.9235 91.9956C75.9939 91.9522 76.0858 91.975 76.1291 92.0466L77.8903 94.9781C77.933 95.0489 77.9102 95.1414 77.8394 95.1837C77.8152 95.1984 77.7884 95.2053 77.7621 95.2053Z" fill="#FCB96D"/>
<path d="M27.4424 11.4595C27.3915 11.4595 27.3423 11.4338 27.3141 11.3868L25.5523 8.45531C25.5096 8.38447 25.5324 8.29195 25.6032 8.24972C25.6734 8.20636 25.7661 8.22983 25.8088 8.30067L27.5707 11.2322C27.6134 11.303 27.5906 11.3955 27.5197 11.4378C27.4956 11.4523 27.4688 11.4595 27.4424 11.4595Z" fill="#FCB96D"/>
<path d="M73.6402 97.4287C73.5846 97.4287 73.5307 97.3976 73.505 97.3438L72.0225 94.2623C71.9868 94.1879 72.0185 94.0983 72.0929 94.0621C72.1691 94.0274 72.2574 94.0574 72.2931 94.1325L73.7757 97.2139C73.8114 97.2883 73.7797 97.378 73.7055 97.4142C73.684 97.424 73.6619 97.4287 73.6402 97.4287Z" fill="#FCB96D"/>
<path d="M31.2853 9.38627C31.2296 9.38627 31.1758 9.35521 31.1501 9.30135L29.6675 6.21921C29.6318 6.1448 29.6635 6.05518 29.7377 6.01898C29.8132 5.98434 29.9029 6.01496 29.9379 6.08938L31.4205 9.17151C31.4562 9.24593 31.4245 9.33554 31.3503 9.37174C31.3291 9.38158 31.3069 9.38627 31.2853 9.38627Z" fill="#FCB96D"/>
<path d="M69.3304 99.2612C69.2693 99.2612 69.2119 99.2237 69.1898 99.1633L67.9985 95.9576C67.9696 95.8803 68.009 95.7936 68.087 95.765C68.162 95.7357 68.251 95.7755 68.2796 95.8535L69.4709 99.0592C69.4995 99.1365 69.4604 99.2232 69.3824 99.2518C69.3654 99.2581 69.3478 99.2612 69.3304 99.2612Z" fill="#FCB96D"/>
<path d="M35.3027 7.67781C35.2417 7.67781 35.1845 7.64027 35.1621 7.57993L33.9708 4.37377C33.9422 4.29645 33.9813 4.20974 34.0593 4.18113C34.1355 4.15186 34.2233 4.19164 34.2519 4.26963L35.4432 7.4758C35.4718 7.55312 35.4327 7.63982 35.3547 7.66843C35.3378 7.67491 35.3203 7.67781 35.3027 7.67781Z" fill="#FCB96D"/>
<path d="M64.8698 100.687C64.8037 100.687 64.7434 100.643 64.7253 100.577L63.8361 97.2739C63.8144 97.1937 63.8618 97.1116 63.9415 97.09C64.0242 97.0683 64.1038 97.1157 64.1255 97.1954L65.0147 100.498C65.0363 100.579 64.989 100.661 64.9092 100.682C64.8956 100.686 64.8828 100.687 64.8698 100.687Z" fill="#FCB96D"/>
<path d="M39.4612 6.34825C39.395 6.34825 39.3347 6.30445 39.3166 6.23763L38.4274 2.93537C38.4057 2.85515 38.4531 2.77313 38.5329 2.75146C38.616 2.7309 38.6951 2.77715 38.7168 2.85693L39.606 6.15919C39.6276 6.23942 39.5803 6.32143 39.5005 6.34311C39.4869 6.34646 39.4741 6.34825 39.4612 6.34825Z" fill="#FCB96D"/>
<path d="M60.2965 101.694C60.2245 101.694 60.1613 101.642 60.149 101.569L59.5691 98.1989C59.555 98.1176 59.6096 98.0402 59.6916 98.0262C59.7725 98.0092 59.8509 98.0673 59.8643 98.1486L60.4442 101.519C60.4583 101.6 60.4038 101.677 60.3218 101.692C60.3135 101.693 60.3048 101.694 60.2965 101.694Z" fill="#FCB96D"/>
<path d="M43.7262 5.40898C43.6542 5.40898 43.591 5.35736 43.5787 5.28428L42.9988 1.91342C42.9847 1.83207 43.0392 1.75475 43.1213 1.74067C43.2026 1.7219 43.2806 1.78112 43.294 1.86314L43.8739 5.234C43.888 5.31535 43.8335 5.39267 43.7515 5.40675C43.7432 5.40853 43.7345 5.40898 43.7262 5.40898Z" fill="#FCB96D"/>
<path d="M55.6505 102.274C55.5726 102.274 55.5071 102.214 55.5013 102.136L55.2353 98.7257C55.2289 98.643 55.2903 98.571 55.373 98.5645C55.4666 98.5529 55.5276 98.6202 55.5341 98.7022L55.8 102.112C55.8065 102.195 55.7451 102.267 55.6624 102.273C55.6581 102.274 55.6539 102.274 55.6505 102.274Z" fill="#FCB96D"/>
<path d="M48.0581 4.86865C47.9801 4.86865 47.9146 4.80898 47.9088 4.73032L47.6435 1.32079C47.6371 1.23811 47.6985 1.16615 47.7812 1.15967C47.8737 1.13911 47.9358 1.21464 47.9423 1.29733L48.2076 4.70685C48.2141 4.78931 48.1526 4.8615 48.0699 4.86798C48.0657 4.86865 48.0617 4.86865 48.0581 4.86865Z" fill="#FCB96D"/>
</svg>
