<svg width="20" height="22" viewBox="0 0 20 22"  xmlns="http://www.w3.org/2000/svg">
<path d="M14.9705 7.66004L14.9707 7.66015C15.1384 7.82301 15.3573 7.90298 15.5734 7.90298C15.7894 7.90298 16.0083 7.82302 16.176 7.66027L16.1761 7.66025L18.9968 4.9222L18.9968 4.92219C19.1582 4.7655 19.2501 4.55127 19.2501 4.32675C19.2501 4.10223 19.1582 3.88799 18.9968 3.7313L16.1761 0.992945C15.8424 0.669018 15.3043 0.669018 14.9707 0.992945L14.9705 0.993061C14.6332 1.32099 14.6332 1.85574 14.9705 2.18368L14.9707 2.1838L17.1783 4.32669L14.9707 6.46928L14.9705 6.46942C14.6332 6.79736 14.6332 7.3321 14.9705 7.66004Z"   stroke-width="0.5"/>
<path d="M0.780762 10.3743C0.780762 10.844 1.17115 11.2125 1.63669 11.2125C2.10221 11.2125 2.49261 10.8441 2.49261 10.3743V6.82892C2.49261 5.91851 3.25821 5.16473 4.21439 5.16473H18.3932C18.8587 5.16473 19.2491 4.79625 19.2491 4.32651C19.2491 3.85677 18.8587 3.48828 18.3932 3.48828H4.21444C2.32777 3.48828 0.780762 4.9796 0.780762 6.82897V10.3743Z"   stroke-width="0.5"/>
<path d="M1.60592 18.5116H15.8156C17.7022 18.5116 19.2496 17.0203 19.2495 15.171V11.5555C19.2495 11.0858 18.8592 10.7173 18.3936 10.7173C17.9281 10.7173 17.5377 11.0858 17.5377 11.5555V15.171C17.5377 16.0814 16.7721 16.8352 15.8156 16.8352H1.60592C1.14039 16.8352 0.75 17.2037 0.75 17.6734C0.75 18.1431 1.14039 18.5116 1.60592 18.5116Z"   stroke-width="0.5"/>
<path d="M1.00324 17.0782L1.00325 17.0782L3.82399 14.3401C3.82399 14.3401 3.82399 14.3401 3.824 14.3401C4.15767 14.0162 4.69572 14.0162 5.02939 14.3401L5.02951 14.3402C5.36686 14.6682 5.36686 15.2029 5.02951 15.5308L5.02937 15.531L2.82173 17.6736L5.02938 19.8165L5.02951 19.8166C5.36686 20.1445 5.36686 20.6793 5.02953 21.0072L1.00324 17.0782ZM1.00324 17.0782C0.841836 17.2349 0.75 17.4491 0.75 17.6736C0.75 17.8981 0.841835 18.1124 1.00324 18.2691L3.82399 21.0074C3.99174 21.1703 4.21066 21.2502 4.42671 21.2502M1.00324 17.0782L4.42671 21.2502M4.42671 21.2502C4.64271 21.2502 4.86172 21.1703 5.02951 21.0072L4.42671 21.2502Z"   stroke-width="0.5"/>
</svg>
