<svg width="130" height="130" viewBox="0 0 130 130" fill="none" xmlns="http://www.w3.org/2000/svg">
<path opacity="0.5" fill-rule="evenodd" clip-rule="evenodd" d="M46.0181 108.532C32.3287 98.3213 16.25 86.3279 16.25 65.5373C16.25 42.5857 43.0633 26.3089 65 48.3743C86.9367 26.3089 113.75 42.5857 113.75 65.5373C113.75 86.3279 97.6713 98.3213 83.9819 108.532C82.5591 109.594 81.162 110.636 79.8115 111.667C74.75 115.53 69.875 119.167 65 119.167C60.125 119.167 55.25 115.53 50.1884 111.667C48.838 110.636 47.4409 109.594 46.0181 108.532Z" fill="#2079FF"/>
<path d="M65 60.9375C67.2437 60.9375 69.0625 62.7563 69.0625 65V78.5417C69.0625 80.7853 67.2437 82.6042 65 82.6042C62.7563 82.6042 60.9375 80.7853 60.9375 78.5417V65C60.9375 62.7563 62.7563 60.9375 65 60.9375Z" fill="#2079FF"/>
<path d="M41.9792 37.9166C41.9792 29.7661 44.4022 24.1634 48.148 20.5791C51.9243 16.9656 57.5759 14.8958 65.0001 14.8958C72.4243 14.8958 78.0759 16.9656 81.8522 20.5791C85.5979 24.1634 88.0209 29.7661 88.0209 37.9166V37.9238C90.8572 37.9918 93.5896 38.5356 96.1459 39.4831V37.9166C96.1459 28.1178 93.186 20.1788 87.4695 14.7088C81.7835 9.2679 73.8934 6.77075 65.0001 6.77075C56.1068 6.77075 48.2167 9.2679 42.5307 14.7088C36.8142 20.1788 33.8542 28.1178 33.8542 37.9166V39.4831C36.4106 38.5356 39.143 37.9918 41.9792 37.9238V37.9166Z" fill="#2079FF"/>
</svg>
