<svg width="20" height="20" viewBox="0 0 20 20" fill="none" xmlns="http://www.w3.org/2000/svg">
<path fill-rule="evenodd" clip-rule="evenodd" d="M9.78234 1.6665C14.2573 1.6665 17.8973 5.3065 17.8973 9.7815C17.8973 11.8928 17.0871 13.8184 15.7612 15.2636L18.3702 17.8671C18.6143 18.1113 18.6152 18.5063 18.371 18.7504C18.2493 18.8738 18.0885 18.9346 17.9285 18.9346C17.7693 18.9346 17.6093 18.8738 17.4868 18.7521L14.8464 16.119C13.4574 17.2314 11.6962 17.8973 9.78234 17.8973C5.30734 17.8973 1.6665 14.2565 1.6665 9.7815C1.6665 5.3065 5.30734 1.6665 9.78234 1.6665ZM9.78234 2.9165C5.9965 2.9165 2.9165 5.99567 2.9165 9.7815C2.9165 13.5673 5.9965 16.6473 9.78234 16.6473C13.5673 16.6473 16.6473 13.5673 16.6473 9.7815C16.6473 5.99567 13.5673 2.9165 9.78234 2.9165Z" fill="white"/>
</svg>
