<svg width="19" height="20" viewBox="0 0 19 20" fill="none" xmlns="http://www.w3.org/2000/svg">
<g clip-path="url(#clip0_242_3184)">
<path d="M1.18752 1.7929C-0.305568 3.34377 1.53333e-05 4.99123 1.53333e-05 9.99615C1.53333e-05 14.1524 -0.725151 18.3189 3.0701 19.2998C4.25522 19.6046 14.7559 19.6046 15.9394 19.2982C17.5196 18.8905 18.8053 17.6088 18.981 15.3739C19.0056 15.062 19.0056 4.93582 18.9802 4.61757C18.7934 2.23702 17.328 0.865066 15.3971 0.587191C14.9546 0.523066 14.8659 0.504066 12.5954 0.500108C4.54181 0.504066 2.77639 0.145441 1.18752 1.7929Z" fill="url(#paint0_linear_242_3184)"/>
<path d="M9.49835 2.9848C6.62381 2.9848 3.89414 2.72909 2.85152 5.40492C2.42085 6.51009 2.48339 7.94538 2.48339 10.0005C2.48339 11.804 2.4256 13.4989 2.85152 14.5954C3.89177 17.2728 6.6436 17.0163 9.49677 17.0163C12.2494 17.0163 15.0875 17.3029 16.1428 14.5954C16.5743 13.4791 16.5109 12.0652 16.5109 10.0005C16.5109 7.2598 16.6621 5.49042 15.3329 4.16201C13.9871 2.81617 12.1671 2.9848 9.49518 2.9848H9.49835ZM8.86977 4.24909C14.8659 4.23959 15.629 3.57301 15.2079 12.8331C15.0582 16.1083 12.5645 15.7488 9.49914 15.7488C3.90998 15.7488 3.74927 15.5889 3.74927 9.99738C3.74927 4.34092 4.1926 4.25226 8.86977 4.24751V4.24909ZM13.2429 5.41363C12.7782 5.41363 12.4014 5.79046 12.4014 6.25517C12.4014 6.71988 12.7782 7.09671 13.2429 7.09671C13.7076 7.09671 14.0845 6.71988 14.0845 6.25517C14.0845 5.79046 13.7076 5.41363 13.2429 5.41363ZM9.49835 6.39767C7.50889 6.39767 5.89627 8.01109 5.89627 10.0005C5.89627 11.99 7.50889 13.6026 9.49835 13.6026C11.4878 13.6026 13.0996 11.99 13.0996 10.0005C13.0996 8.01109 11.4878 6.39767 9.49835 6.39767ZM9.49835 7.66196C12.5898 7.66196 12.5938 12.3391 9.49835 12.3391C6.40768 12.3391 6.40293 7.66196 9.49835 7.66196Z" fill="white"/>
</g>
<defs>
<linearGradient id="paint0_linear_242_3184" x1="1.22395" y1="18.2866" x2="18.8824" y2="3.00334" gradientUnits="userSpaceOnUse">
<stop stop-color="#FFDD55"/>
<stop offset="0.5" stop-color="#FF543E"/>
<stop offset="1" stop-color="#C837AB"/>
</linearGradient>
<clipPath id="clip0_242_3184">
<rect width="19" height="19" fill="white" transform="translate(0 0.5)"/>
</clipPath>
</defs>
</svg>
