
<svg xmlns="http://www.w3.org/2000/svg" width="22" height="22" viewBox="0 0 22 22" >
  <path fill-rule="evenodd" clip-rule="evenodd" d="M2.87374 7.41963C2.42871 8.23266 2.42871 9.21342 2.42871 11.1749V12.4787C2.42871 15.8223 2.42871 17.4941 3.43292 18.5328C4.43712 19.5716 6.05337 19.5716 9.28585 19.5716H12.7144C15.9469 19.5716 17.5632 19.5716 18.5674 18.5328C19.5716 17.4941 19.5716 15.8223 19.5716 12.4787V11.1749C19.5716 9.21342 19.5716 8.23266 19.1265 7.41963C18.6815 6.6066 17.8685 6.10201 16.2424 5.09282L14.5281 4.02888C12.8092 2.9621 11.9498 2.42871 11.0001 2.42871C10.0505 2.42871 9.19104 2.9621 7.47217 4.02889L5.75788 5.09282C4.13181 6.10201 3.31877 6.6066 2.87374 7.41963ZM8.81152 13.9123C8.52629 13.7008 8.12368 13.7607 7.91226 14.0459C7.70084 14.3311 7.76067 14.7337 8.0459 14.9452C8.8794 15.563 9.89874 15.9287 11.0001 15.9287C12.1015 15.9287 13.1209 15.563 13.9544 14.9452C14.2396 14.7337 14.2994 14.3311 14.088 14.0459C13.8766 13.7607 13.474 13.7008 13.1888 13.9123C12.5645 14.375 11.8109 14.643 11.0001 14.643C10.1894 14.643 9.43581 14.375 8.81152 13.9123Z" />
</svg>