<svg width="20" height="20" viewBox="0 0 20 20" fill="none" xmlns="http://www.w3.org/2000/svg">
<path opacity="0.5" d="M11.8333 2.5H8.16658C4.70962 2.5 2.98114 2.5 1.90719 3.59835C0.833252 4.6967 0.833252 6.46447 0.833252 10C0.833252 13.5355 0.833252 15.3033 1.90719 16.4017C2.98114 17.5 4.70962 17.5 8.16658 17.5H11.8333C15.2902 17.5 17.0187 17.5 18.0926 16.4017C19.1666 15.3033 19.1666 13.5355 19.1666 10C19.1666 6.46447 19.1666 4.6967 18.0926 3.59835C17.0187 2.5 15.2902 2.5 11.8333 2.5Z" fill="white"/>
<path d="M15.9404 6.69492C16.2321 6.45184 16.2715 6.01833 16.0284 5.72664C15.7853 5.43495 15.3518 5.39554 15.0601 5.63861L13.0811 7.28777C12.2259 8.00045 11.6322 8.49365 11.1309 8.81605C10.6456 9.12814 10.3166 9.2329 10.0003 9.2329C9.68395 9.2329 9.35488 9.12814 8.86963 8.81605C8.36835 8.49365 7.77459 8.00045 6.91938 7.28777L4.94039 5.63861C4.6487 5.39554 4.21518 5.43495 3.97211 5.72664C3.72903 6.01833 3.76844 6.45184 4.06013 6.69492L6.07359 8.37279C6.88608 9.04989 7.54462 9.59869 8.12584 9.97251C8.7313 10.3619 9.32094 10.6079 10.0003 10.6079C10.6796 10.6079 11.2692 10.3619 11.8747 9.97251C12.4559 9.59869 13.1144 9.04989 13.9269 8.37278L15.9404 6.69492Z" fill="white"/>
</svg>
