<svg width="78" height="78" viewBox="0 0 78 78" fill="none" xmlns="http://www.w3.org/2000/svg">
<path fill-rule="evenodd" clip-rule="evenodd" d="M17.0625 32.6775V26C17.0625 13.8843 26.8843 4.0625 39 4.0625C51.1157 4.0625 60.9375 13.8843 60.9375 26V32.6775C64.5605 32.9481 66.9197 33.6312 68.6443 35.3557C71.5 38.2114 71.5 42.8076 71.5 52C71.5 61.1924 71.5 65.7886 68.6443 68.6443C65.7886 71.5 61.1924 71.5 52 71.5H26C16.8076 71.5 12.2114 71.5 9.35571 68.6443C6.5 65.7886 6.5 61.1924 6.5 52C6.5 42.8076 6.5 38.2114 9.35571 35.3557C11.0803 33.6312 13.4395 32.9481 17.0625 32.6775ZM21.9375 26C21.9375 16.5766 29.5766 8.9375 39 8.9375C48.4234 8.9375 56.0625 16.5766 56.0625 26V32.5116C54.8177 32.5 53.4674 32.5 52 32.5H26C24.5326 32.5 23.1823 32.5 21.9375 32.5116V26Z" fill="#2079FF"/>
</svg>
