<svg width="88" height="88" viewBox="0 0 88 88" fill="none" xmlns="http://www.w3.org/2000/svg">
<g filter="url(#filter0_d_1_1964)">
<g clip-path="url(#clip0_1_1964)">
<rect width="88" height="88" rx="19.5556" fill="url(#paint0_linear_1_1964)"/>
<circle cx="4.2578" cy="12.7744" r="75.2258" fill="white" fill-opacity="0.04"/>
<path d="M20.0966 53V34.1H26.8466C27.8726 34.1 28.7996 34.3565 29.6276 34.8695C30.4646 35.3825 31.1261 36.071 31.6121 36.935C32.0981 37.799 32.3411 38.7485 32.3411 39.7835C32.3411 40.8455 32.0891 41.8085 31.5851 42.6725C31.0901 43.5275 30.4241 44.2115 29.5871 44.7245C28.7501 45.2285 27.8366 45.4805 26.8466 45.4805H23.3906V53H20.0966ZM23.3906 42.1865H26.4956C26.9636 42.1865 27.3911 42.0695 27.7781 41.8355C28.1651 41.6015 28.4711 41.2865 28.6961 40.8905C28.9301 40.4945 29.0471 40.0535 29.0471 39.5675C29.0471 39.0725 28.9301 38.627 28.6961 38.231C28.4711 37.835 28.1651 37.52 27.7781 37.286C27.3911 37.052 26.9636 36.935 26.4956 36.935H23.3906V42.1865ZM34.8095 53V34.1H42.059C43.085 34.1 44.012 34.3565 44.84 34.8695C45.668 35.3825 46.325 36.071 46.811 36.935C47.297 37.79 47.54 38.7395 47.54 39.7835C47.54 40.6385 47.3825 41.426 47.0675 42.146C46.7615 42.857 46.3295 43.4735 45.7715 43.9955C45.2225 44.5175 44.588 44.9135 43.868 45.1835L48.3905 53H44.597L40.223 45.4805H38.1035V53H34.8095ZM38.1035 42.1865H41.681C42.149 42.1865 42.5765 42.0695 42.9635 41.8355C43.3505 41.6015 43.661 41.2865 43.895 40.8905C44.129 40.4945 44.246 40.0535 44.246 39.5675C44.246 39.0725 44.129 38.627 43.895 38.231C43.661 37.835 43.3505 37.52 42.9635 37.286C42.5765 37.052 42.149 36.935 41.681 36.935H38.1035V42.1865ZM59.1411 53.351C57.8631 53.351 56.6616 53.099 55.5366 52.595C54.4116 52.082 53.4216 51.3755 52.5666 50.4755C51.7116 49.5755 51.0411 48.536 50.5551 47.357C50.0691 46.169 49.8261 44.9 49.8261 43.55C49.8261 42.2 50.0691 40.9355 50.5551 39.7565C51.0411 38.5685 51.7116 37.5245 52.5666 36.6245C53.4216 35.7245 54.4116 35.0225 55.5366 34.5185C56.6616 34.0055 57.8631 33.749 59.1411 33.749C60.4281 33.749 61.6341 34.0055 62.7591 34.5185C63.8841 35.0225 64.8741 35.7245 65.7291 36.6245C66.5841 37.5245 67.2501 38.5685 67.7271 39.7565C68.2131 40.9355 68.4561 42.2 68.4561 43.55C68.4561 44.9 68.2131 46.169 67.7271 47.357C67.2501 48.536 66.5841 49.5755 65.7291 50.4755C64.8741 51.3755 63.8841 52.082 62.7591 52.595C61.6341 53.099 60.4281 53.351 59.1411 53.351ZM59.1411 50.057C59.9691 50.057 60.7476 49.886 61.4766 49.544C62.2056 49.202 62.8446 48.734 63.3936 48.14C63.9516 47.537 64.3836 46.844 64.6896 46.061C65.0046 45.278 65.1621 44.441 65.1621 43.55C65.1621 42.659 65.0046 41.822 64.6896 41.039C64.3746 40.247 63.9381 39.554 63.3801 38.96C62.8311 38.366 62.1921 37.898 61.4631 37.556C60.7431 37.214 59.9691 37.043 59.1411 37.043C58.3131 37.043 57.5346 37.214 56.8056 37.556C56.0766 37.898 55.4331 38.3705 54.8751 38.9735C54.3261 39.5675 53.8941 40.256 53.5791 41.039C53.2731 41.822 53.1201 42.659 53.1201 43.55C53.1201 44.45 53.2776 45.2915 53.5926 46.0745C53.9076 46.8575 54.3396 47.5505 54.8886 48.1535C55.4466 48.7475 56.0856 49.2155 56.8056 49.5575C57.5346 49.8905 58.3131 50.057 59.1411 50.057Z" fill="white"/>
</g>
</g>
<defs>
<filter id="filter0_d_1_1964" x="-21.4054" y="-21.4054" width="135.568" height="135.568" filterUnits="userSpaceOnUse" color-interpolation-filters="sRGB">
<feFlood flood-opacity="0" result="BackgroundImageFix"/>
<feColorMatrix in="SourceAlpha" type="matrix" values="0 0 0 0 0 0 0 0 0 0 0 0 0 0 0 0 0 0 127 0" result="hardAlpha"/>
<feOffset dx="2.37838" dy="2.37838"/>
<feGaussianBlur stdDeviation="11.8919"/>
<feColorMatrix type="matrix" values="0 0 0 0 0.243137 0 0 0 0 0.368627 0 0 0 0 0.956863 0 0 0 0.1 0"/>
<feBlend mode="normal" in2="BackgroundImageFix" result="effect1_dropShadow_1_1964"/>
<feBlend mode="normal" in="SourceGraphic" in2="effect1_dropShadow_1_1964" result="shape"/>
</filter>
<linearGradient id="paint0_linear_1_1964" x1="-25.4737" y1="-93.5" x2="125.424" y2="-65.9368" gradientUnits="userSpaceOnUse">
<stop stop-color="#3E60F9"/>
<stop offset="1" stop-color="#3D54F8"/>
</linearGradient>
<clipPath id="clip0_1_1964">
<rect width="88" height="88" rx="19.5556" fill="white"/>
</clipPath>
</defs>
</svg>
