<svg xmlns="http://www.w3.org/2000/svg" width="132" height="112" viewBox="0 0 132 112" fill="none">
  <path d="M118.28 76.8184C115.194 75.4242 114.724 72.0692 113.449 70.3245C112.174 68.5797 109.087 67.5058 109.087 67.5058C109.087 67.5058 112.04 65.2244 116.737 65.7611C118.945 66.0136 120.604 67.0075 121.959 68.0875C121.262 66.0663 121.97 64.9015 120.763 62.979C119.354 60.7336 116.603 59.5208 115.059 55.792C113.516 52.0632 115.059 48.7169 115.059 48.7169C115.059 48.7169 115.529 50.0592 117.408 51.4014C119.088 52.601 123.822 52.7848 126.629 56.4044C125.178 35.9801 110.979 24.8184 101.154 18.9961C92.7145 13.9952 87.2657 3.55782 64.4654 5.06724C41.665 6.57988 36.5886 21.207 30.9397 32.2799C27.8121 38.4096 20.7415 39.7659 14.7781 43.9835C19.1921 42.8286 21.9911 44.9586 25.3162 45.6303C29.3014 46.4355 29.9278 43.6257 33.5064 43.6438C37.0853 43.6619 38.4275 44.9147 38.4275 44.9147C38.4275 44.9147 34.8486 44.3778 33.6855 47.4197C32.5222 50.4617 31.0908 51.6042 27.5119 51.1225C23.933 50.6405 22.897 50.9007 20.9993 52.6051C19.1017 54.3092 14.7174 53.0567 12.2124 53.6828C10.728 54.0537 8.71028 56.6858 7.31204 58.7696C8.44171 57.8553 9.98826 56.8451 12.0723 55.9153C17.888 53.3206 25.3162 58.0667 25.3162 58.0667C25.3162 58.0667 19.4595 59.4089 16.0596 61.735C12.6597 64.0614 10.2439 61.8247 7.91762 62.63C6.75244 63.0331 5.81194 63.442 5.16307 63.7495C5.16263 63.7586 5.1617 63.7673 5.16114 63.7764C4.6946 71.0099 7.42826 77.4328 12.0723 82.938C23.4428 96.4158 46.2652 104.401 61.628 105.356C77.6956 106.352 105.895 100.384 119.285 82.5966C120.47 81.0231 121.538 79.3556 122.472 77.5939C121.133 77.5863 119.592 77.4103 118.28 76.8184Z" fill="#FCB96D"/>
  <path d="M60.2358 34.8262C60.2358 39.4854 56.459 43.2622 51.7998 43.2622C47.1408 43.2622 43.3638 39.4854 43.3638 34.8262C43.3638 30.1673 47.1408 26.3905 51.7998 26.3905C56.459 26.3905 60.2358 30.1673 60.2358 34.8262Z" fill="#FCB96D"/>
  <path d="M112.992 26.3904C112.992 28.082 111.621 29.4531 109.929 29.4531C108.238 29.4531 106.866 28.082 106.866 26.3904C106.866 24.6989 108.238 23.3277 109.929 23.3277C111.621 23.3277 112.992 24.6989 112.992 26.3904Z" fill="#FCB96D"/>
  <path d="M119.285 82.5966C105.895 100.384 77.6959 106.352 61.6283 105.356C46.2654 104.401 23.443 96.4158 12.0725 82.938C16.4034 78.1373 27.4762 68.4143 47.9093 65.6804C75.3789 62.0039 94.5249 83.8149 115.283 82.6626C116.68 82.584 118.014 82.5653 119.285 82.5966Z" fill="#FCB96D"/>
  <path d="M30.2411 25.9021C32.7911 18.2523 26.7516 21.7862 24.4702 26.6623C22.1887 31.5387 17.894 32.0748 17.894 34.8262C17.894 37.5782 27.6911 33.5518 30.2411 25.9021Z" stroke="#FCB96D" stroke-width="1.33333" stroke-miterlimit="10"/>
  <path d="M100.163 16.3035C100.163 16.3035 93.0498 10.2667 90.1645 8.32083C87.2789 6.375 88.5539 3.75777 95.1637 6.77749C101.773 9.79722 104.592 15.628 103.719 16.8396C102.847 18.0508 100.163 16.3035 100.163 16.3035Z" stroke="#FCB96D" stroke-width="1.33333" stroke-miterlimit="10"/>
  <path d="M34.1549 34.3683C34.1549 34.6214 33.9497 34.8263 33.6966 34.8263C33.4435 34.8263 33.2383 34.6214 33.2383 34.3683C33.2383 34.1151 33.4435 33.9099 33.6966 33.9099C33.9497 33.9099 34.1549 34.1151 34.1549 34.3683Z" fill="#FCB96D"/>
  <path d="M38.0023 35.2343C38.0023 35.4874 37.7971 35.6926 37.544 35.6926C37.2909 35.6926 37.0857 35.4874 37.0857 35.2343C37.0857 34.9812 37.2909 34.776 37.544 34.776C37.7971 34.776 38.0023 34.9812 38.0023 35.2343Z" fill="#FCB96D"/>
  <path d="M50.86 21.5427C50.86 21.7958 50.6548 22.001 50.4017 22.001C50.1486 22.001 49.9434 21.7958 49.9434 21.5427C49.9434 21.2895 50.1486 21.0843 50.4017 21.0843C50.6548 21.0843 50.86 21.2895 50.86 21.5427Z" fill="#FCB96D"/>
  <path d="M110.846 62.1806C110.846 62.434 110.64 62.6389 110.387 62.6389C110.134 62.6389 109.929 62.434 109.929 62.1806C109.929 61.9275 110.134 61.7223 110.387 61.7223C110.64 61.7223 110.846 61.9275 110.846 62.1806Z" fill="#FCB96D"/>
  <path d="M112.406 60.9391C112.406 61.1926 112.201 61.3975 111.948 61.3975C111.695 61.3975 111.49 61.1926 111.49 60.9391C111.49 60.686 111.695 60.4808 111.948 60.4808C112.201 60.4808 112.406 60.686 112.406 60.9391Z" fill="#FCB96D"/>
  <path d="M37.0855 32.881C37.0855 33.2884 36.7552 33.619 36.3474 33.619C35.9397 33.619 35.6094 33.2884 35.6094 32.881C35.6094 32.4732 35.9397 32.1426 36.3474 32.1426C36.7552 32.1426 37.0855 32.4732 37.0855 32.881Z" fill="#FCB96D"/>
  <path d="M114.947 37.8824C114.947 38.2902 114.617 38.6205 114.209 38.6205C113.801 38.6205 113.471 38.2902 113.471 37.8824C113.471 37.4747 113.801 37.1441 114.209 37.1441C114.617 37.1441 114.947 37.4747 114.947 37.8824Z" fill="#FCB96D"/>
  <path d="M35.6091 60.0781C35.6091 60.6066 35.1809 61.0348 34.6527 61.0348C34.1245 61.0348 33.6963 60.6066 33.6963 60.0781C33.6963 59.5499 34.1245 59.122 34.6527 59.122C35.1809 59.122 35.6091 59.5499 35.6091 60.0781Z" stroke="white" stroke-width="1.33333" stroke-miterlimit="10"/>
  <path d="M89.6654 19.293C89.6654 19.8212 89.2372 20.2494 88.709 20.2494C88.1811 20.2494 87.7529 19.8212 87.7529 19.293C87.7529 18.7651 88.1811 18.3369 88.709 18.3369C89.2372 18.3369 89.6654 18.7651 89.6654 19.293Z" stroke="white" stroke-width="1.33333" stroke-miterlimit="10"/>
  <path d="M44.8341 16.2331C44.8341 17.917 43.4691 19.2823 41.7848 19.2823C40.1006 19.2823 38.7356 17.917 38.7356 16.2331C38.7356 14.5489 40.1006 13.1836 41.7848 13.1836C43.4691 13.1836 44.8341 14.5489 44.8341 16.2331Z" stroke="white" stroke-width="1.33333" stroke-miterlimit="10"/>
  <path d="M130.655 42.5172C130.655 45.9681 127.858 48.7654 124.407 48.7654C120.956 48.7654 118.158 45.9681 118.158 42.5172C118.158 39.0666 120.956 36.2691 124.407 36.2691C127.858 36.2691 130.655 39.0666 130.655 42.5172Z" stroke="white" stroke-width="1.33333" stroke-miterlimit="10"/>
  <path d="M13.4963 72.9193C13.4963 76.3699 10.6989 79.1675 7.24807 79.1675C3.79738 79.1675 1 76.3699 1 72.9193C1 69.4685 3.79738 66.6712 7.24807 66.6712C10.6989 66.6712 13.4963 69.4685 13.4963 72.9193Z" stroke="white" stroke-width="1.33333" stroke-miterlimit="10"/>
  <path d="M54.6168 9.3359C54.6168 9.3359 53.3006 10.019 53.2383 12.9013C53.1764 15.7837 55.9377 17.1192 57.6786 17.0882L57.526 16.6387C57.526 16.6387 54.5607 16.3119 53.7908 13.7958C53.0209 11.2797 54.6984 9.5712 54.6984 9.5712L54.6168 9.3359Z" fill="#35181A"/>
  <path d="M102.563 59.6335C102.563 59.6335 101.96 64.1896 93.9694 65.9291C85.9783 67.6685 77.7363 63.1125 77.7363 63.1125L79.0812 62.9792C79.0812 62.9792 83.7416 65.6803 89.3329 65.3488C94.9243 65.0177 98.0908 61.6215 98.0908 61.6215L102.563 59.6335Z" fill="#35181A"/>
  <path d="M103.788 37.144C103.788 37.144 102.835 34.3693 99.1906 31.5115C95.5456 28.6537 92.6466 27.0799 92.6466 27.0799C103.995 30.6419 104.119 37.144 104.119 37.144H103.788ZM104.533 37.5997C105.03 31.9672 97.2436 26.1686 87.9664 24.6758C78.6891 23.1827 79.3591 13.2879 79.3591 13.2879L60.8242 23.9529C60.8242 23.9529 59.9689 32.7955 53.7909 37.7655C47.6132 42.7354 46.5498 54.4978 49.4488 59.1362C52.3481 63.7753 57.4838 64.1065 65.4773 63.6093C73.4704 63.1124 77.1759 63.5274 86.0615 64.2722C94.9467 65.017 101.282 67.0362 106.678 57.1898C112.074 47.3438 104.533 37.5997 104.533 37.5997Z" fill="#35181A"/>
  <path d="M54.4357 32.5802C54.4357 32.5802 51.8097 34.949 49.946 39.9192C48.0823 44.8891 44.1477 60.2961 44.1477 60.2961L50.5081 64.2623L56.6554 47.457L54.4357 32.5802Z" fill="#DA8480"/>
  <path d="M79.7783 56.4739C78.8108 59.3361 79.0484 62.4677 80.4453 65.1484L80.7867 66.6233V66.6263L81.723 70.6567C75.3161 76.218 66.4162 78.094 60.9423 76.885C55.4653 75.6761 54.0719 71.1952 54.0719 71.1952L54.9175 65.2735L53.4674 52.0993C53.4674 52.0993 52.3339 50.3675 51.8519 46.3811C51.3664 42.3916 54.4352 32.5806 54.4352 32.5806L64.4058 28.5945L71.6773 27.9743L83.8056 32.5806L85.3743 36.5108C85.3179 38.684 83.7176 44.2737 82.0454 49.5564C81.2532 52.0649 80.4453 54.5044 79.7783 56.4739Z" fill="#9CB1FB"/>
  <path d="M71.7462 28.6221C70.6071 30.6974 66.5398 33.3026 64.8971 32.7329C63.2547 32.1632 64.5858 29.2335 64.5858 29.2335C64.601 28.8176 64.6162 28.4338 64.6276 28.0807C64.7036 25.7377 64.6884 24.7482 64.6884 24.7482L71.7462 20.0773C71.5814 20.9296 71.4995 21.9039 71.4712 22.8837C71.3855 25.7339 71.7462 28.6221 71.7462 28.6221Z" fill="#DA8480"/>
  <path d="M71.7461 20.0775C71.5812 20.9299 71.4994 21.9041 71.471 22.8839C70.6619 24.0972 69.3139 25.9165 67.9126 26.9132C66.4657 27.9444 65.2807 28.0999 64.6274 28.0809C64.7034 25.7379 64.6882 24.7485 64.6882 24.7485L71.7461 20.0775Z" fill="#DA8480"/>
  <path d="M57.0176 17.5958C57.0176 17.5958 57.2616 23.3737 61.3307 25.9778C65.3995 28.5818 71.0958 23.1296 72.0727 20.1187C73.0492 17.1077 72.7236 10.5973 72.7236 10.5973C72.7236 10.5973 67.3526 7.0167 63.2836 7.0167C59.2148 7.0167 57.0176 9.0511 57.0176 9.0511C57.0176 9.0511 57.0176 14.5849 57.0176 17.5958Z" fill="#DA8480"/>
  <path d="M61.6551 7.13033C61.6551 7.13033 61.5341 9.25445 65.4401 11.7366C69.3463 14.2185 71.4643 14.7271 71.4643 14.7271L72.2915 19.2902C72.2915 19.2902 71.7236 20.7222 71.5643 21.2428C71.3907 21.811 71.4588 23.6177 71.4588 23.6177C71.4588 23.6177 74.7582 23.1284 75.8973 20.0774C75.8973 20.0774 79.2745 17.5551 79.3967 12.9979C79.5186 8.4407 77.1589 7.01662 77.1589 7.01662C77.1589 7.01662 76.5512 1.5641 70.5278 0.628458C64.5044 -0.30748 59.7028 3.06973 59.7028 3.06973C59.7028 3.06973 56.7734 2.66285 55.1865 4.73817C53.5997 6.81319 54.6169 9.33571 54.6169 9.33571C54.6169 9.33571 53.2334 10.6785 54.0472 12.8757C54.8609 15.0729 57.0175 15.3579 57.0175 15.3579C57.0175 15.3579 57.2209 11.6145 58.3194 9.74288C59.4181 7.87101 61.6551 7.13033 61.6551 7.13033Z" fill="#35181A"/>
  <path d="M71.7471 15.3987C71.7471 15.3987 72.5202 13.4864 74.1071 13.2827C75.694 13.0796 75.8161 15.8871 74.7174 17.7587C73.6186 19.6302 72.0727 19.2643 72.0727 19.2643L71.7471 15.3987Z" fill="#DA8480"/>
  <path d="M70.9736 13.2724C70.9736 13.2724 72.0317 16.4564 71.4214 18.9792C71.4214 18.9792 71.5927 18.81 71.8169 18.4832C72.3276 17.7393 72.5403 14.9105 72.7689 13.9406L70.9736 13.2724Z" fill="#35181A"/>
  <path d="M59.6216 3.35449C59.6216 3.35449 60.9506 1.42884 63.4735 0.641975C65.9963 -0.144598 68.1119 0.641975 68.1119 0.641975L68.5191 0.614786C68.5191 0.614786 66.1591 -0.518446 63.5006 0.292388C60.8422 1.10322 58.9978 3.19197 58.9978 3.19197L59.6216 3.35449Z" fill="#35181A"/>
  <path d="M77.1589 7.01673C77.1589 7.01673 78.5649 7.28798 79.4012 8.80705C80.2377 10.3261 79.3743 11.8683 79.3743 11.8683L79.234 11.6824C79.234 11.6824 79.9068 10.3735 79.0712 8.94268C78.2355 7.51189 77.1589 7.58642 77.1589 7.58642V7.01673Z" fill="#35181A"/>
  <path d="M57.5259 14.3902C57.5259 14.3902 57.6945 14.0052 58.8979 14.0292C60.1019 14.0531 60.8239 14.7272 60.8239 14.7272C60.8239 14.7272 60.2703 13.6922 59.175 13.5478C58.0798 13.4031 57.5501 14.2218 57.5259 14.3902Z" fill="#35181A"/>
  <path d="M61.6553 7.13036C61.6553 7.13036 61.4665 9.21386 62.6871 10.8957C63.9077 12.5776 67.5156 12.5776 67.5156 12.5776L67.6603 12.9012C67.6603 12.9012 64.0977 12.9301 62.6599 11.6551C61.2224 10.3804 61.0596 8.24811 61.3308 7.13036H61.6553Z" fill="#35181A"/>
  <path d="M64.0764 14.5232C64.0764 14.5232 64.2711 14.0786 65.6613 14.1064C67.0514 14.1342 67.8853 14.9128 67.8853 14.9128C67.8853 14.9128 67.2461 13.717 65.981 13.5501C64.716 13.3835 64.1042 14.3288 64.0764 14.5232Z" fill="#35181A"/>
  <path d="M60.8242 19.9964C60.8242 19.9964 61.0075 20.1797 61.6991 20.3828C62.3909 20.5866 62.8791 20.3828 62.8791 20.3828C62.8791 20.3828 62.6704 19.9964 62.134 19.9152C61.5973 19.8336 60.8242 19.9964 60.8242 19.9964Z" fill="#A13136"/>
  <path d="M60.8242 14.7272C60.8242 14.7272 61.2086 15.1341 61.3512 16.1919C61.4936 17.25 61.3512 18.0842 61.3512 18.0842C61.3512 18.0842 60.8672 15.3173 60.8242 14.7272Z" fill="#DA8480"/>
  <path d="M57.6787 15.9073C57.6787 15.9073 58.2689 16.1616 59.0113 16.2431C59.754 16.3244 60.6695 16.0905 60.6695 16.0905C60.6695 16.0905 60.3287 15.1745 59.5404 14.9614C58.2993 14.6255 57.6787 15.9073 57.6787 15.9073Z" fill="#DA8480"/>
  <path d="M64.0764 16.0571C64.0764 16.0571 64.1992 15.1183 65.3994 14.9128C66.5998 14.707 68.0239 15.9683 68.0239 15.9683C68.0239 15.9683 65.6633 17.0945 64.0764 16.0571Z" fill="#DA8480"/>
  <path d="M59.2081 16.2332C58.4078 16.2197 57.6788 15.9072 57.6788 15.9072L57.5262 16.009C57.4268 16.0753 57.2041 16.104 57.2041 16.104C57.4192 16.1978 57.6423 16.1922 57.7785 16.1756C58.0556 16.334 58.546 16.5497 59.1742 16.5582C60.1709 16.5719 60.6696 16.2261 60.6696 16.2261V16.0902C60.6696 16.0902 60.0084 16.2463 59.2081 16.2332Z" fill="#35181A"/>
  <path d="M68.0239 15.9682C68.0239 15.9682 67.0578 16.2619 66.0576 16.2891C65.0567 16.3166 64.1322 16.0223 64.1322 16.0223L63.946 16.1383C63.8247 16.214 63.5476 16.2558 63.5476 16.2558C63.8206 16.3444 64.0989 16.3271 64.2684 16.302C64.6215 16.4563 65.2438 16.6603 66.0292 16.6367C67.2756 16.5995 67.6599 16.3034 67.9306 16.1257C67.9689 16.1006 68.0239 15.9682 68.0239 15.9682Z" fill="#35181A"/>
  <path d="M60.8243 21.8411C60.8243 21.8411 61.03 21.9358 61.8517 22.0986C62.6733 22.2614 64.6276 21.8411 64.6276 21.8411C64.6276 21.8411 63.1854 21.597 62.7259 21.6239C62.2665 21.6511 61.9546 21.8791 61.9546 21.8791C61.9546 21.8791 61.5343 21.5427 61.2764 21.5427C61.0186 21.5427 60.5439 21.6918 60.5439 21.6918L60.8243 21.8411Z" fill="#A13136"/>
  <path d="M61.1194 22.711C61.1194 22.711 61.6788 23.0907 62.4926 23.1179C63.3064 23.1451 64.1879 22.806 64.1879 22.806C64.1879 22.806 63.698 23.509 62.6537 23.6177C61.6093 23.7262 61.1194 22.711 61.1194 22.711Z" fill="#DA8480"/>
  <path d="M51.1294 74.782L54.632 67.2843C54.632 67.2843 56.961 69.739 64.0767 69.9875C71.1927 70.2362 80.7874 66.6263 80.7874 66.6263C80.7874 66.6263 83.245 72.9698 83.245 75.3304C83.245 77.6913 69.2048 87.01 69.2048 87.01L60.8802 86.3886L51.1294 74.782Z" fill="#2A8AA3"/>
  <path d="M50.7306 87.0101C50.7306 87.0101 48.4305 87.9052 47.6425 88.2723C47.6425 88.2723 44.2062 88.6242 42.8269 89.0311C41.4472 89.4377 41.0991 91.287 40.7609 93.2843C40.4224 95.2813 37.8493 97.9608 37.0511 99.3503C36.2528 100.74 36.634 102.393 36.7442 102.735C36.8544 103.077 36.3996 104.243 36.9719 104.965C37.5445 105.687 37.8777 105.315 38.1978 105.136C38.5178 104.958 38.6152 104.322 38.6152 104.322C38.6152 104.322 39.5035 104.149 39.8358 103.891C40.1679 103.633 39.827 103.63 40.6481 103.365C41.4692 103.101 41.8918 102.889 42.3499 102.552C42.8079 102.216 45.3991 97.7185 47.0503 96.2801C48.7018 94.8417 51.6747 94.3372 51.6747 94.3372L50.7306 87.0101Z" fill="#DA8480"/>
  <path d="M95.7521 95.0861C90.1424 96.5005 77.96 97.4952 67.0415 98.1418C55.7927 98.8085 45.8864 99.1044 45.8864 99.1044L44.2195 93.8132L42.7407 89.1224L75.4377 82.6398C75.4377 82.6398 74.5477 75.8702 81.6707 72.2232C81.6707 72.2232 102.875 72.3913 108.013 78.3547C113.147 84.3185 107.598 92.1056 95.7521 95.0861Z" fill="#2A8AA3"/>
  <path d="M63.8323 93.2258C63.8323 93.2258 66.1324 94.1211 66.9204 94.4883C66.9204 94.4883 70.3564 94.8402 71.736 95.2468C73.1157 95.6536 73.4635 97.5027 73.802 99.5C74.1402 101.497 76.7133 104.176 77.5118 105.566C78.3098 106.957 77.9287 108.609 77.8185 108.951C77.7083 109.293 78.1634 110.459 77.5908 111.181C77.0184 111.903 76.6849 111.531 76.3652 111.352C76.0448 111.174 75.9475 110.538 75.9475 110.538C75.9475 110.538 75.0592 110.365 74.7268 110.107C74.3951 109.849 74.7359 109.846 73.9148 109.581C73.0935 109.316 72.6711 109.105 72.2131 108.768C71.7547 108.432 69.1635 103.934 67.5123 102.496C65.8611 101.057 62.8882 100.553 62.8882 100.553L63.8323 93.2258Z" fill="#DA8480"/>
  <path d="M52.9276 73.4667C52.9276 73.4667 24.9713 73.4667 20.4984 78.4367C16.0253 83.4069 18.5104 89.7433 22.1135 91.8558C25.717 93.9679 63.4889 102.417 63.4889 102.417L65.4771 90.8617L59.9044 89.1222L62.8882 85.1268L52.9276 73.4667Z" fill="#2A8AA3"/>
  <path d="M52.845 74.5434C52.845 74.5434 58.6789 81.7661 61.8504 83.9119C61.8504 83.9119 55.3301 83.241 52.845 74.5434Z" fill="#215B7B"/>
  <path d="M30.3145 80.7977C30.3145 80.7977 35.1602 81.4188 42.7394 83.034C50.3187 84.6493 59.9046 89.1223 59.9046 89.1223C59.9046 89.1223 50.0709 82.4126 42.3671 80.7977C34.663 79.1821 30.3145 80.7977 30.3145 80.7977Z" fill="#215B7B"/>
  <path d="M57.3477 87.4919C57.3477 87.4919 79.8902 80.7644 89.3332 79.2277C89.3332 79.2277 69.3664 85.2292 59.9047 89.1223L57.3477 87.4919Z" fill="#215B7B"/>
  <path d="M79.0813 73.9499C79.0813 73.9499 68.1525 79.3442 64.4749 84.8131C64.4749 84.8131 75.9946 78.9064 79.0813 73.9499Z" fill="#215B7B"/>
  <path d="M21.3954 74.108C20.1647 74.5424 18.7526 74.108 18.5716 73.8911C18.3906 73.674 19.7664 72.4069 19.7664 71.4291C19.7664 71.2765 19.747 71.1579 19.7155 71.0637C19.9177 71.2754 20.2019 71.4882 20.4874 71.61C21.2506 71.936 22.9159 72.1148 23.3504 72.3694C23.7849 72.624 22.6262 73.674 21.3954 74.108ZM50.5079 64.2623C50.5079 64.2623 48.6518 59.7463 44.2992 59.7056L27.0163 71.4309C26.683 71.2581 26.0987 71.0179 25.1967 70.8501C23.6399 70.5604 20.5628 70.5964 19.7664 70.4517C19.3822 70.3818 19.3608 70.5736 19.525 70.827C19.2714 70.7218 18.8671 71.005 18.5552 71.4654C18.0649 72.1897 16.8339 73.5386 16.8339 74.2942C16.8339 75.0495 18.1735 75.8095 18.9699 75.8457C18.9699 75.8457 16.2547 76.5338 15.7479 77.5112C15.241 78.4884 16.5805 78.3437 17.015 78.1265C17.4494 77.9094 20.2369 77.1491 20.2369 77.1491C20.2369 77.1491 17.4855 78.6699 17.4132 79.7196C17.3408 80.7695 18.2821 80.1539 19.1509 79.7196C20.0198 79.2852 21.5764 78.4884 21.5764 78.4884C21.5764 78.4884 19.3319 80.118 19.7301 80.8417C20.1284 81.566 21.9746 79.9125 23.4589 79.237C24.9433 78.5609 26.0651 78.4618 27.3176 77.9751C29.0702 77.2941 29.9948 75.8276 29.9951 75.8276C33.0835 74.678 46.3173 69.5324 50.5079 64.2623Z" fill="#DA8480"/>
  <path d="M107.432 49.4036C107.432 49.4036 109.006 54.2096 107.93 57.7914C106.852 61.3729 102.732 62.1805 102.732 62.1805L103.394 61.3522C103.394 61.3522 107.453 60.6691 107.681 55.0985C107.883 50.1496 107.432 49.4036 107.432 49.4036Z" fill="#35181A"/>
  <path d="M23.5825 72.3122C23.5825 72.3122 24.9492 73.0889 26.4712 73.0889C27.9932 73.0889 26.1608 73.7723 25.0269 73.4306C23.8931 73.0889 23.5825 72.3122 23.5825 72.3122Z" fill="#DA8480"/>
  <path d="M28.3781 75.0154C28.3781 75.0154 27.4463 75.0464 26.1417 75.7298C24.8372 76.4132 24.1538 78.1526 23.8121 77.8732C23.4702 77.5938 24.4023 74.9222 28.3781 75.0154Z" fill="#DA8480"/>
  <path d="M19.377 75.7987C19.377 75.7987 22.2323 78.1079 22.574 78.1388C22.9156 78.1701 21.396 75.9232 19.377 75.7987Z" fill="#DA8480"/>
  <path d="M54.4985 51.0215C54.4985 51.0215 55.9077 50.2835 60.2021 50.2835C64.4969 50.2835 71.645 51.961 71.645 51.961C71.645 51.961 58.4574 52.0282 54.4985 51.0215Z" fill="#9CB1FB"/>
  <path d="M80.4492 65.2267L80.7906 66.7019V66.7051L74.7029 68.584C74.7029 68.584 77.8001 61.0994 77.7404 55.3718C77.6811 49.6446 79.5503 42.5172 79.5503 42.5172L82.0495 49.6352C81.2571 52.1437 80.4492 54.5829 79.7821 56.5527C78.8146 59.4149 79.0526 62.5463 80.4492 65.2267Z" fill="#9CB1FB"/>
  <path d="M106.983 78.613C105.854 77.9571 104.911 76.7098 105.385 76.5409C105.86 76.3717 107.529 76.5058 108.34 76.3278C108.643 76.2609 108.962 76.1045 109.2 75.9344C109.151 76.0209 109.11 76.134 109.082 76.2837C108.9 77.2445 110.016 78.7451 109.798 78.9252C109.579 79.1046 108.111 79.2686 106.983 78.613ZM111.899 83.0071C111.582 81.9525 109.043 80.7716 109.043 80.7716C109.832 80.8844 111.289 80.3867 111.43 79.6445C111.57 78.9021 110.612 77.3473 110.265 76.5447C110.044 76.0343 109.7 75.681 109.431 75.7371C109.639 75.5187 109.654 75.3264 109.263 75.3235C108.454 75.3176 105.438 74.7097 103.854 74.7044C103.216 74.7023 102.723 74.7637 102.36 74.8374L90.7824 58.5567C90.1422 54.5776 89.2589 44.5057 88.2148 40.0434C86.848 34.2036 83.8043 32.5802 83.8043 32.5802C83.8043 32.5802 80.0302 34.8251 79.4009 39.1736C78.7716 43.5224 84.3141 62.9792 84.3141 62.9792C86.2822 68.5144 96.6476 77.3602 98.0907 79.0129C98.0907 79.0129 98.8492 80.3153 100.445 81.3106C101.585 82.0215 102.668 82.3281 104.001 83.2681C105.334 84.2085 106.84 86.1762 107.366 85.539C107.892 84.9018 105.99 82.8835 105.99 82.8835C105.99 82.8835 107.371 83.9556 108.144 84.544C108.917 85.1324 109.727 85.9123 109.851 84.8673C109.976 83.822 107.555 81.8163 107.555 81.8163C107.555 81.8163 110.153 83.0819 110.539 83.3763C110.925 83.6706 112.215 84.062 111.899 83.0071Z" fill="#DA8480"/>
  <path d="M105.019 76.6972C105.019 76.6972 103.653 77.4739 102.131 77.4739C100.609 77.4739 102.441 78.1573 103.575 77.8156C104.709 77.4739 105.019 76.6972 105.019 76.6972Z" fill="#DA8480"/>
  <path d="M99.2363 78.7412C99.2363 78.7412 100.168 78.7722 101.473 79.4556C102.777 80.139 103.461 81.8785 103.802 81.599C104.144 81.3193 103.212 78.648 99.2363 78.7412Z" fill="#DA8480"/>
  <path d="M107.888 80.3212C107.888 80.3212 105.032 82.63 104.691 82.6613C104.349 82.6923 105.869 80.4454 107.888 80.3212Z" fill="#DA8480"/>
  <path d="M63.39 30.3982C63.39 30.3982 62.0332 32.9815 64.1877 33.6862C66.3425 34.3907 70.0331 31.9412 71.912 30.1295C71.912 30.1295 69.4292 34.1223 65.4031 34.7595C61.3767 35.3973 62.3106 31.2765 63.39 30.3982Z" fill="#9CB1FB"/>
</svg>