<svg width="50" height="50" viewBox="0 0 104 104" fill="none" xmlns="http://www.w3.org/2000/svg">
<g clip-path="url(#clip0_139_7835)">
<path d="M59.84 86.7199C83.787 86.7199 103.2 67.307 103.2 43.36C103.2 19.4129 83.787 0 59.84 0C35.8929 0 16.48 19.4129 16.48 43.36C16.48 67.307 35.8929 86.7199 59.84 86.7199Z" fill="#2A8AA3"/>
<path d="M90.7203 43.6801C90.7203 40.16 88.1603 37.44 84.9603 37.1201C87.0404 36.0001 88.3204 33.76 88.3204 31.2001C88.3204 27.5201 85.4403 24.48 81.9204 24.48C81.7604 24.48 81.7604 24.48 81.6003 24.48C81.7604 24.0001 81.9204 23.5199 81.9204 22.8799C81.9204 19.2 79.0403 16.1599 75.5205 16.1599C74.4005 16.1599 73.4404 16.48 72.4806 17.12C72.1605 13.5999 69.4406 10.8799 66.0806 10.8799C62.5605 10.8799 59.6807 13.9198 59.6807 17.5999C59.6807 21.28 59.6807 68.9599 59.6807 68.9599C59.6807 72.6399 62.5607 75.68 66.0806 75.68C69.4406 75.68 72.3207 72.7999 72.4806 69.28C73.6005 70.2401 74.8805 70.8801 76.3205 70.8801C79.8406 70.8801 82.7205 67.8402 82.7205 64.1601C82.7205 63.0401 82.4004 62.08 81.9204 61.1202C82.2405 61.1202 82.4004 61.2802 82.7205 61.2802C86.2405 61.2802 89.1204 58.2403 89.1204 54.5602C89.1204 52.6402 88.3204 50.8802 87.0404 49.6003C89.2802 48.4801 90.7203 46.4001 90.7203 43.6801Z" fill="#2079FF"/>
<path d="M66.0801 77.4401C61.6001 77.4401 58.0801 73.7602 58.0801 69.1202V17.76C58.0801 13.12 61.76 9.44006 66.0801 9.44006C69.4401 9.44006 72.4801 11.6801 73.6002 15.0402C74.2402 14.8801 74.8802 14.7201 75.5202 14.7201C80.0001 14.7201 83.5202 18.4 83.5202 23.04C83.5202 23.04 83.5202 23.04 83.5202 23.2C87.2001 24.0001 89.9202 27.3601 89.9202 31.3601C89.9202 33.2801 89.2802 35.2001 88.0002 36.6401C90.5601 38.0802 92.1602 40.8002 92.1602 43.8401C92.1602 46.24 91.2001 48.4801 89.4402 50.0802C90.2402 51.3602 90.7202 52.9603 90.7202 54.7202C90.7202 58.8803 87.8401 62.2403 84.1602 62.8803C84.3203 63.3603 84.3203 63.8404 84.3203 64.3203C84.3203 68.9604 80.6403 72.6403 76.3202 72.6403C75.3601 72.6403 74.4002 72.4802 73.4401 72.0003C72.32 75.2001 69.4401 77.4401 66.0801 77.4401ZM66.0801 12.48C63.3601 12.48 61.28 14.8799 61.28 17.5999V68.9599C61.28 71.84 63.5201 74.0799 66.0801 74.0799C68.6401 74.0799 70.7201 71.9999 70.8802 69.2798C70.8802 68.6399 71.3601 68.1599 71.8403 67.8398C72.3204 67.5197 72.9602 67.6798 73.4404 67.9999C75.5204 69.7598 78.0804 69.4399 79.6805 67.6798C80.6405 66.7197 81.1205 65.4397 81.1205 63.9998C81.1205 63.1998 80.9604 62.5598 80.4805 61.5999C80.1604 61.12 80.3204 60.48 80.6405 59.9998C80.9606 59.5199 81.6006 59.1998 82.0806 59.3598C82.2406 59.3598 82.4007 59.3598 82.7206 59.5199C85.4406 59.5199 87.5206 57.2798 87.5206 54.3999C87.5206 52.9599 87.0407 51.6799 85.9206 50.72C85.7605 50.4001 85.6005 49.92 85.6005 49.44C85.6005 48.9601 85.9206 48.4799 86.4005 48.3201C88.0006 47.36 89.1205 45.6 89.1205 43.8401C89.1205 41.2801 87.2005 39.0401 84.8006 38.7202C84.1606 38.7202 83.5206 38.0802 83.3606 37.4402C83.2005 36.8002 83.5206 36.0001 84.1606 35.6802C85.7607 34.7201 86.7206 33.1203 86.7206 31.2003C86.7206 28.3202 84.6406 26.0803 82.0806 26.0803C81.9205 26.0803 81.7605 26.0803 81.7605 26.0803C81.2805 26.0803 80.8004 25.9203 80.4805 25.4403C80.1604 25.1202 80.0006 24.4802 80.1604 24.0003L80.3204 23.5204C80.4805 23.2003 80.4805 22.8804 80.4805 22.7203C80.4805 19.8402 78.2404 17.6004 75.6804 17.6004C75.0404 17.6004 74.2404 17.7604 73.4404 18.2403C72.9604 18.5604 72.3204 18.5604 71.8403 18.2403C71.3601 17.9202 71.0402 17.4403 71.0402 16.9604C70.5601 14.56 68.48 12.48 66.0801 12.48Z" fill="white"/>
<path d="M72.6401 35.0401C71.68 35.0401 71.04 34.4001 71.04 33.44C71.04 32.4799 71.68 31.8399 72.6401 31.8399C74.4001 31.8399 76.1602 31.0398 77.6 29.5998C79.0401 28.1598 79.8401 26.2398 79.8401 24.4799C79.8401 23.5198 80.4801 22.8798 81.4402 22.8798C82.4003 22.8798 83.0403 23.5198 83.0403 24.4799C83.0403 27.0398 81.9204 29.7599 79.8403 31.8399C77.9201 33.9201 75.3602 35.0401 72.6401 35.0401Z" fill="white"/>
<path d="M72.48 71.0399C71.5199 71.0399 70.8799 70.3999 70.8799 69.4398C70.8799 67.0399 68.48 64.7998 66.0798 64.7998C65.1197 64.7998 64.4797 64.1598 64.4797 63.1997C64.4797 62.2396 65.1197 61.5996 66.0798 61.5996C70.2399 61.5996 74.0799 65.2795 74.0799 69.4396C74.0801 70.3999 73.28 71.0399 72.48 71.0399Z" fill="white"/>
<path d="M77.1201 59.5201C76.16 59.5201 75.52 58.8801 75.52 57.92C75.52 52.4799 81.7601 48.16 87.2 48.16C88.1601 48.16 88.8001 48.8 88.8001 49.7601C88.8001 50.7202 88.1601 51.3602 87.2 51.3602C83.36 51.3602 78.72 54.4001 78.72 57.9202C78.7202 58.72 78.0802 59.5201 77.1201 59.5201Z" fill="white"/>
<path d="M28.8 43.0401C28.8 46.5602 31.36 49.2802 34.56 49.6001C32.48 50.72 31.2 52.9601 31.2 55.5201C31.2 59.2 34.0801 62.2401 37.5999 62.2401C37.76 62.2401 37.76 62.2401 37.92 62.2401C37.76 62.7201 37.5999 63.2002 37.5999 63.8402C37.5999 67.5201 40.48 70.5602 43.9999 70.5602C45.1198 70.5602 46.0799 70.2402 47.0398 69.6002C47.3599 73.1202 50.0797 75.8403 53.4397 75.8403C56.9598 75.8403 59.8397 72.8003 59.8397 69.1202C59.8397 65.4401 59.8397 17.7602 59.8397 17.7602C59.8397 14.0803 56.9596 11.0402 53.4397 11.0402C50.0797 11.0402 47.1996 13.9202 47.0398 17.4401C45.9198 16.48 44.6399 15.84 43.1998 15.84C39.6797 15.84 36.7999 18.8799 36.7999 22.5601C36.7999 23.68 37.12 24.6401 37.5999 25.6C37.2798 25.6 37.12 25.4399 36.7999 25.4399C33.2798 25.4399 30.3999 28.4799 30.3999 32.16C30.3999 34.08 31.2 35.8399 32.48 37.1199C30.2401 38.24 28.8 40.4801 28.8 43.0401Z" fill="#F16051"/>
<path d="M53.44 77.4401C50.08 77.4401 47.04 75.2001 45.9199 71.8402C45.2799 72.0003 44.6399 72.1603 43.9999 72.1603C39.52 72.1603 35.9999 68.4804 35.9999 63.8404C35.9999 63.8404 35.9999 63.8404 35.9999 63.6804C32.32 62.8803 29.5999 59.5203 29.5999 55.5203C29.5999 53.6003 30.2399 51.6803 31.5199 50.2403C28.96 48.8002 27.3599 46.0802 27.3599 43.0403C27.3599 40.6404 28.32 38.4003 30.0799 36.8002C29.2798 35.5202 28.7999 33.9201 28.7999 32.1602C28.7999 28.0001 31.68 24.6401 35.3599 24.0001C35.1998 23.5201 35.1998 23.04 35.1998 22.5601C35.1998 17.92 38.8798 14.2401 43.1999 14.2401C44.16 14.2401 45.1199 14.4002 46.08 14.8801C47.1999 11.6801 50.08 9.44006 53.6 9.44006C58.08 9.44006 61.6001 13.12 61.6001 17.76V69.12C61.44 73.76 57.92 77.4401 53.44 77.4401ZM47.04 68.0001C47.3601 68.0001 47.52 68.0001 47.8401 68.1601C48.32 68.4802 48.6401 68.9602 48.6401 69.4401C48.8002 72.1601 50.8802 74.0801 53.4402 74.0801C56.1602 74.0801 58.2403 71.6802 58.2403 68.9602V17.76C58.2403 14.8799 56.0002 12.64 53.4402 12.64C50.8802 12.64 48.8002 14.7201 48.6401 17.4401C48.6401 18.0801 48.1602 18.56 47.68 18.8801C47.2001 19.2002 46.5601 19.0402 46.08 18.7201C45.1199 17.92 44.16 17.6001 43.1999 17.6001C40.4798 17.6001 38.3998 20.0001 38.3998 22.7201C38.3998 23.5201 38.5599 24.1601 39.0398 25.12C39.3599 25.6 39.1999 26.24 38.8798 26.7201C38.5597 27.2001 37.9197 27.5202 37.4397 27.3601C37.2797 27.3601 37.1196 27.3601 36.7997 27.2001C35.5197 27.2001 34.3998 27.68 33.4397 28.6401C32.4796 29.6002 31.9997 30.8802 31.9997 32.32C31.9997 33.7601 32.4796 35.04 33.5998 35.9999C33.9199 36.32 34.0797 36.8 34.0797 37.2799C34.0797 37.7599 33.7596 38.24 33.2797 38.3999C31.6796 39.36 30.5596 41.1199 30.5596 42.8798C30.5596 45.4398 32.4796 47.6799 34.8795 47.9998C35.5195 47.9998 36.1595 48.6398 36.3196 49.2798C36.4796 49.9198 36.1595 50.7198 35.5195 51.0397C33.7596 51.9998 32.7995 53.5997 32.7995 55.5197C32.7995 58.3997 34.8795 60.6396 37.4395 60.6396C37.5996 60.6396 37.7596 60.6396 37.7596 60.6396C38.2396 60.6396 38.7197 60.7997 39.0396 61.2796C39.3597 61.5997 39.5195 62.2397 39.3597 62.7196L39.1997 63.1996C39.1997 63.3596 39.1997 63.6795 39.1997 63.8396C39.1997 66.7197 41.4397 68.9595 43.9997 68.9595C44.6397 68.9595 45.4398 68.7995 46.2398 68.3195C46.5599 68.1601 46.88 68.0001 47.04 68.0001Z" fill="white"/>
<path d="M53.4401 25.12C49.28 25.12 45.6001 21.4401 45.6001 17.28C45.6001 16.3199 46.2401 15.6799 47.2002 15.6799C48.1603 15.6799 48.8003 16.3199 48.8003 17.28C48.8003 19.6799 51.2002 21.92 53.6003 21.92C54.5604 21.92 55.2004 22.56 55.2004 23.5201C55.0402 24.32 54.2401 25.12 53.4401 25.12Z" fill="white"/>
<path d="M32.3201 38.72C31.36 38.72 30.72 38.08 30.72 37.1199C30.72 36.1598 31.36 35.5198 32.3201 35.5198C34.24 35.5198 36.4801 34.7198 38.08 33.4398C39.0401 32.6397 40.8 31.0399 40.8 28.9598C40.8 27.9997 41.44 27.3597 42.4001 27.3597C43.3602 27.3597 44.0002 27.9997 44.0002 28.9598C44.0002 31.5198 42.5602 34.0798 40.0002 35.9998C37.7601 37.7601 34.88 38.72 32.3201 38.72Z" fill="white"/>
<path d="M59.8398 55.36C58.8797 55.36 58.2397 54.72 58.2397 53.7599C58.2397 48.4799 62.5597 44.16 67.8397 44.16C68.7998 44.16 69.4398 44.8 69.4398 45.7601C69.4398 46.7202 68.7998 47.3602 67.8397 47.3602C64.3196 47.3602 61.4397 50.2403 61.4397 53.7602C61.4399 54.72 60.7999 55.36 59.8398 55.36Z" fill="white"/>
<path d="M51.52 40.8C50.5599 40.8 49.9199 40.16 49.9199 39.1999C49.9199 33.9199 54.2398 29.6 59.5198 29.6C60.4799 29.6 61.1199 30.24 61.1199 31.2001C61.1199 32.1602 60.4799 32.8002 59.5198 32.8002C55.9998 32.8002 53.1199 35.6802 53.1199 39.2001C53.1201 40.16 52.4799 40.8 51.52 40.8Z" fill="white"/>
<path d="M53.6001 56.3201C53.6001 43.3601 42.8801 33.12 29.7601 33.76C18.7201 34.24 9.44009 43.04 8.31995 54.24C7.51991 62.8801 11.5199 70.56 17.9199 75.04C19.6798 76.3199 20.7999 78.4 20.7999 80.48V95.8401H41.1199V80.48C41.1199 78.4 42.08 76.3199 43.8399 75.04C49.6001 70.8801 53.6001 64 53.6001 56.3201Z" fill="white"/>
<path d="M40.96 97.2801H20.8001C19.84 97.2801 19.2 96.6401 19.2 95.68V80.32C19.2 78.56 18.4 77.12 16.9599 76.1599C9.75994 71.2 5.91997 62.56 6.72002 53.9199C7.83996 42.08 17.76 32.6399 29.6 31.9999C43.52 31.3599 55.1999 42.5599 55.1999 56.3199C55.1999 64.3199 51.36 71.6799 44.8 76.32C43.52 77.2801 42.72 78.7199 42.72 80.48V95.8401C42.5601 96.4801 41.9199 97.2801 40.96 97.2801ZM22.4 94.08H39.52V80.32C39.52 77.5999 40.8 75.04 43.0401 73.5999C48.4801 69.5999 52 63.2 52 56.3199C52 44.3198 41.9199 34.7199 29.9199 35.3599C19.5199 35.8399 11.0399 43.9999 9.91978 54.2398C9.11974 61.9198 12.4798 69.1198 18.8797 73.5999C21.1198 75.2 22.3998 77.76 22.3998 80.48L22.4 94.08Z" fill="#215B7B"/>
<path d="M30.8801 39.2001C30.56 39.2001 30.2401 39.2001 30.08 39.2001C21.9199 39.5202 14.72 46.24 13.9199 54.5601C13.2799 60.8002 15.9999 66.5602 21.1199 70.2401C24.4799 72.4802 26.3999 76.3202 26.3999 80.3202V83.8402H35.3598V80.32C35.3598 76.3199 37.2798 72.48 40.4798 70.2399C45.1198 67.0399 47.8398 61.7599 47.8398 56.3199C47.8402 46.88 40.1601 39.2001 30.8801 39.2001Z" fill="#FCB96D"/>
<path d="M25.6001 95.6802V97.1202C25.6001 100 28 102.4 30.8801 102.4C33.7602 102.4 36.1601 100 36.1601 97.1202V95.6802H25.6001Z" fill="white"/>
<path d="M36.1601 94.0801H25.6001C24.64 94.0801 24 94.7201 24 95.6802V97.1202C24 100.96 27.0399 104 30.8801 104C34.7203 104 37.7602 100.96 37.7602 97.1202V95.6802C37.7602 94.7203 36.9601 94.0801 36.1601 94.0801ZM30.8801 100.8C28.9601 100.8 27.36 99.2 27.2002 97.2801H34.5602C34.4002 99.2002 32.8001 100.8 30.8801 100.8Z" fill="#215B7B"/>
<path d="M40.4802 56C42.7202 58.4 40.8003 62.2401 37.7601 62.2401H34.4001V58.8801C34.2401 55.6801 38.08 53.7602 40.4802 56Z" fill="white"/>
<path d="M37.6 63.84H34.24C33.2799 63.84 32.6399 63.2 32.6399 62.2399V58.8799C32.6399 55.84 35.0398 53.4398 38.0799 53.4398C39.3599 53.4398 40.6399 53.9198 41.6 54.8799L41.7601 55.0399C43.2001 56.4799 43.52 58.56 42.7202 60.64C41.7601 62.56 39.8401 63.84 37.6 63.84ZM35.8401 60.64H37.6C38.7199 60.64 39.3599 59.84 39.68 59.2C39.8401 58.8799 40.16 57.92 39.3599 57.1199C38.88 56.64 38.5599 56.48 38.0799 56.48C36.96 56.48 35.8399 57.28 35.8399 58.72V60.64H35.8401Z" fill="white"/>
<path d="M21.2802 56C19.0401 58.4 20.9601 62.2401 24.0002 62.2401H27.3602V58.8801C27.3602 55.6801 23.5201 53.7602 21.2802 56Z" fill="white"/>
<path d="M27.3601 63.84H24C21.92 63.84 19.84 62.56 19.0401 60.48C18.2401 58.56 18.5602 56.4799 20.0002 55.0399L20.1603 54.8799C21.1204 53.9198 22.4004 53.4398 23.6804 53.4398C26.7203 53.4398 29.1204 55.8397 29.1204 58.8799V62.2399C28.96 63.0399 28.32 63.84 27.3601 63.84ZM23.6799 56.64C23.2 56.64 22.8799 56.8001 22.4 57.1199C21.5999 57.92 21.92 58.8799 21.92 59.2C22.2401 59.84 22.8801 60.64 24 60.64H25.76V58.8801C25.76 57.44 24.64 56.64 23.6799 56.64Z" fill="white"/>
<path d="M34.2399 85.4403C33.2799 85.4403 32.6399 84.8003 32.6399 83.8402V63.8401H28.9599V83.8402C28.9599 84.8003 28.3199 85.4403 27.3599 85.4403C26.3998 85.4403 25.7598 84.8003 25.7598 83.8402V62.2402C25.7598 61.2801 26.3998 60.6401 27.3599 60.6401H34.2399C35.2 60.6401 35.84 61.2801 35.84 62.2402V83.8402C35.84 84.6402 35.2 85.4403 34.2399 85.4403Z" fill="white"/>
<path d="M43.9999 85.4402H17.5998C16.6398 85.4402 15.9998 84.8002 15.9998 83.8401C15.9998 82.88 16.6398 82.24 17.5998 82.24H43.9999C44.96 82.24 45.6 82.88 45.6 83.8401C45.6 84.6401 44.96 85.4402 43.9999 85.4402Z" fill="#215B7B"/>
<path d="M43.9999 91.3601H17.5998C16.6398 91.3601 15.9998 90.7201 15.9998 89.76C15.9998 88.7999 16.6398 88.1599 17.5998 88.1599H43.9999C44.96 88.1599 45.6 88.7999 45.6 89.76C45.6 90.7201 44.96 91.3601 43.9999 91.3601Z" fill="#215B7B"/>
</g>
<defs>
<clipPath id="clip0_139_7835">
<rect width="104" height="104" fill="white"/>
</clipPath>
</defs>
</svg>
