<svg xmlns="http://www.w3.org/2000/svg" width="28" height="28" viewBox="0 0 28 28" fill="none">
  <path opacity="0.5" d="M25.6666 13.9999C25.6666 20.4432 20.4432 25.6666 13.9999 25.6666C7.5566 25.6666 2.33325 20.4432 2.33325 13.9999C2.33325 7.5566 7.5566 2.33325 13.9999 2.33325C20.4432 2.33325 25.6666 7.5566 25.6666 13.9999Z" fill="white"/>
  <path d="M9.42206 10.0535C9.33325 10.2679 9.33325 10.5397 9.33325 11.0833V16.9166C9.33325 17.4602 9.33325 17.732 9.42206 17.9464C9.54047 18.2322 9.76759 18.4594 10.0535 18.5778C10.2679 18.6666 10.5397 18.6666 11.0833 18.6666C11.6269 18.6666 11.8986 18.6666 12.113 18.5778C12.3989 18.4594 12.626 18.2322 12.7444 17.9464C12.8333 17.732 12.8333 17.4602 12.8333 16.9166V11.0833C12.8333 10.5397 12.8333 10.2679 12.7444 10.0535C12.626 9.76759 12.3989 9.54047 12.113 9.42206C11.8986 9.33325 11.6269 9.33325 11.0833 9.33325C10.5397 9.33325 10.2679 9.33325 10.0535 9.42206C9.76759 9.54047 9.54047 9.76759 9.42206 10.0535Z" fill="white"/>
  <path d="M15.2554 10.0535C15.1666 10.2679 15.1666 10.5397 15.1666 11.0833V16.9166C15.1666 17.4602 15.1666 17.732 15.2554 17.9464C15.3738 18.2322 15.6009 18.4594 15.8868 18.5778C16.1012 18.6666 16.373 18.6666 16.9166 18.6666C17.4602 18.6666 17.732 18.6666 17.9464 18.5778C18.2322 18.4594 18.4594 18.2322 18.5778 17.9464C18.6666 17.732 18.6666 17.4602 18.6666 16.9166V11.0833C18.6666 10.5397 18.6666 10.2679 18.5778 10.0535C18.4594 9.76759 18.2322 9.54047 17.9464 9.42206C17.732 9.33325 17.4602 9.33325 16.9166 9.33325C16.373 9.33325 16.1012 9.33325 15.8868 9.42206C15.6009 9.54047 15.3738 9.76759 15.2554 10.0535Z" fill="white"/>
</svg>