<svg width="28" height="28" viewBox="0 0 28 28" xmlns="http://www.w3.org/2000/svg">
<path opacity="0.5"  clip-rule="evenodd" d="M2.625 5.8335C2.625 5.35025 3.01675 4.9585 3.5 4.9585H17.5C17.9832 4.9585 18.375 5.35025 18.375 5.8335C18.375 6.31675 17.9832 6.7085 17.5 6.7085H3.5C3.01675 6.7085 2.625 6.31675 2.625 5.8335ZM2.625 10.5002C2.625 10.0169 3.01675 9.62516 3.5 9.62516H15.1667C15.6499 9.62516 16.0417 10.0169 16.0417 10.5002C16.0417 10.9834 15.6499 11.3752 15.1667 11.3752H3.5C3.01675 11.3752 2.625 10.9834 2.625 10.5002ZM2.625 15.1668C2.625 14.6836 3.01675 14.2918 3.5 14.2918H10.5C10.9832 14.2918 11.375 14.6836 11.375 15.1668C11.375 15.6501 10.9832 16.0418 10.5 16.0418H3.5C3.01675 16.0418 2.625 15.6501 2.625 15.1668ZM2.625 19.8335C2.625 19.3502 3.01675 18.9585 3.5 18.9585H9.33333C9.81658 18.9585 10.2083 19.3502 10.2083 19.8335C10.2083 20.3167 9.81658 20.7085 9.33333 20.7085H3.5C3.01675 20.7085 2.625 20.3167 2.625 19.8335Z" />
<path d="M22.5688 6.99166C22.8938 6.87189 23.2819 6.76913 23.7007 6.84575C24.2167 6.94014 24.6766 7.2295 24.985 7.65383C25.2353 7.9983 25.3106 8.3926 25.3433 8.73748C25.3751 9.07315 25.3751 9.49174 25.375 9.96869L25.375 10.0087L25.3752 10.097C25.3761 10.4471 25.3771 10.821 25.2514 11.1655C25.1522 11.4375 24.9963 11.6852 24.7941 11.8923C24.5379 12.1547 24.2004 12.3156 23.8843 12.4663L23.8047 12.5043L21.7216 13.5042C21.2917 13.7106 20.9144 13.8918 20.598 14.0083C20.2926 14.1208 19.9316 14.2183 19.5417 14.1662V19.1667C19.5417 21.2834 17.8672 23.0417 15.75 23.0417C13.6329 23.0417 11.9584 21.2834 11.9584 19.1667C11.9584 17.05 13.6329 15.2917 15.75 15.2917C16.5056 15.2917 17.2049 15.5156 17.7917 15.8999V11.6667H17.795C17.7917 11.4697 17.7917 11.257 17.7917 11.0313L17.7917 10.9913L17.7916 10.903C17.7906 10.5529 17.7897 10.179 17.9153 9.83448C18.0145 9.56253 18.1704 9.31478 18.3727 9.10767C18.6289 8.84531 18.9664 8.68438 19.2824 8.5337L19.362 8.49566L21.4451 7.4958C21.875 7.28939 22.2524 7.10823 22.5688 6.99166Z"/>
</svg>
