<svg width="19" height="20" viewBox="0 0 19 20" fill="none" xmlns="http://www.w3.org/2000/svg">
<path fill-rule="evenodd" clip-rule="evenodd" d="M18.0666 9.06645H10.5987V1.59837C10.5987 1.08319 10.1804 0.664917 9.66506 0.664917C9.14988 0.664917 8.73161 1.08318 8.73161 1.59837V9.06645H1.26353C0.748348 9.06645 0.330078 9.48471 0.330078 9.9999C0.330078 10.5152 0.748338 10.9335 1.26353 10.9335H8.73161V18.4014C8.73161 18.9168 9.14987 19.335 9.66506 19.335C10.1804 19.335 10.5987 18.9168 10.5987 18.4014V10.9335H18.0666C18.5819 10.9335 19.0002 10.5153 19.0002 9.9999C19.0002 9.48472 18.5819 9.06645 18.0666 9.06645Z" fill="white"/>
</svg>
