<svg width="28" height="28" xmlns="http://www.w3.org/2000/svg">
<path  clip-rule="evenodd" d="M16.1036 6.22238C16.1036 4.07461 17.8526 2.3335 20.0101 2.3335C22.1677 2.3335 23.9167 4.07461 23.9167 6.22238C23.9167 8.37016 22.1677 10.1113 20.0101 10.1113C18.9207 10.1113 17.9361 9.66711 17.2283 8.95254L11.8203 12.6346C11.8703 12.8831 11.8965 13.1397 11.8965 13.4019C11.8965 13.9211 11.7939 14.4173 11.6079 14.8709L17.5378 18.7669C18.2107 18.2189 19.0719 17.8891 20.0101 17.8891C22.1677 17.8891 23.9167 19.6302 23.9167 21.7779C23.9167 23.9257 22.1677 25.6668 20.0101 25.6668C17.8526 25.6668 16.1036 23.9257 16.1036 21.7779C16.1036 21.2154 16.224 20.6799 16.4404 20.1965L10.5585 16.332C9.87232 16.9283 8.97357 17.2908 7.98994 17.2908C5.8324 17.2908 4.08337 15.5496 4.08337 13.4019C4.08337 11.2541 5.8324 9.51298 7.98994 9.51298C9.2306 9.51298 10.335 10.0886 11.0501 10.9845L16.2913 7.41599C16.1694 7.03936 16.1036 6.63803 16.1036 6.22238Z"/>
</svg>
