<svg width="64" height="64" viewBox="0 0 64 64" fill="none" xmlns="http://www.w3.org/2000/svg">
<rect width="64" height="64" rx="32" fill="#0D1530"/>
<g clip-path="url(#clip0_4_908)">
<path d="M35.9999 21.3333H39.9999C40.3681 21.3333 40.6666 21.0348 40.6666 20.6666V16.6666C40.6666 16.2985 40.3681 16 39.9999 16H35.9999C31.9517 16.0044 28.671 19.2851 28.6666 23.3333V28H23.9999C23.6318 28 23.3333 28.2985 23.3333 28.6667V32.6667C23.3333 33.0349 23.6318 33.3334 23.9999 33.3334H28.6666V47.3334C28.6666 47.7016 28.9651 48.0001 29.3333 48.0001H33.3333C33.7015 48.0001 34 47.7016 34 47.3334V33.3334H38.6667C38.9535 33.3332 39.2081 33.1495 39.2987 32.8774L40.632 28.8774C40.7484 28.5281 40.5595 28.1506 40.2102 28.0342C40.1424 28.0116 40.0714 28.0001 40 28H34V23.3333C33.9999 22.2288 34.8954 21.3333 35.9999 21.3333Z" fill="#2079FF"/>
</g>
<defs>
<clipPath id="clip0_4_908">
<rect width="32" height="32" fill="white" transform="translate(16 16)"/>
</clipPath>
</defs>
</svg>
