<svg width="48" height="48" viewBox="0 0 48 48" fill="none" xmlns="http://www.w3.org/2000/svg">
<circle cx="24" cy="24" r="24" fill="#2A8AA3"/>
<path opacity="0.5" d="M32 21.8015V25.8676C32 29.7013 32 31.6181 30.8284 32.809C29.6569 34 27.7712 34 24 34H24H24C20.2288 34 18.3431 34 17.1716 32.809C16 31.6181 16 29.7013 16 25.8676V21.8015C16 17.9678 16 16.051 17.1716 14.86C17.5474 14.478 17.9967 14.2185 18.5581 14.0423C18.9114 13.9314 19.2856 14.0893 19.5 14.3926L19.6538 14.6275C20.2883 15.5975 20.5094 15.9354 21.0222 16.2594C21.1319 16.3287 21.246 16.3908 21.3637 16.4452C21.9555 16.7187 22.637 16.7187 24 16.7187C25.363 16.7187 26.0445 16.7187 26.6363 16.4452C26.754 16.3908 26.8681 16.3287 26.9778 16.2594C27.4906 15.9354 27.7117 15.5975 28.3462 14.6275L28.5 14.3926C28.6992 14.0884 29.0639 13.9264 29.4105 14.0326C29.9866 14.2089 30.4456 14.4709 30.8284 14.86C32 16.051 32 17.9678 32 21.8015Z" fill="white"/>
<path d="M20.25 30.9836C20.25 30.5671 20.5858 30.2295 21 30.2295H27C27.4142 30.2295 27.75 30.5671 27.75 30.9836C27.75 31.4001 27.4142 31.7377 27 31.7377H21C20.5858 31.7377 20.25 31.4001 20.25 30.9836Z" fill="white"/>
</svg>
