<svg width="64" height="64" viewBox="0 0 64 64" fill="none" xmlns="http://www.w3.org/2000/svg">
<rect width="64" height="64" rx="32" fill="#0D1530"/>
<g clip-path="url(#clip0_4_893)">
<path d="M43.5804 45.6899C40.4585 48.3266 36.4086 50 32 50C25.4398 50 19.6811 46.386 16.5593 41.1125L17.7281 35.725L22.9085 34.7633C24.1109 38.6445 27.7389 41.4922 32 41.4922C34.0671 41.4922 35.9867 40.8383 37.5687 39.6782L42.5468 40.4375L43.5804 45.6899Z" fill="#59C36A"/>
<path d="M43.5805 45.6898L42.5469 40.4375L37.5688 39.6781C35.9867 40.8383 34.0671 41.4922 32 41.4922V50C36.4087 50 40.4586 48.3265 43.5805 45.6898Z" fill="#00A66C"/>
<path d="M22.5078 32.0001C22.5078 32.9703 22.6555 33.8984 22.9086 34.7634L16.5594 41.1126C14.9773 38.4548 14 35.3328 14 32.0001C14 28.6672 14.9773 25.5454 16.5594 22.8876L21.6551 23.7646L22.9086 29.2368C22.6555 30.1016 22.5078 31.0297 22.5078 32.0001Z" fill="#FFDA2D"/>
<path d="M50 32C50 37.4843 47.4618 42.3992 43.5805 45.6898L37.5688 39.6781C38.7921 38.7921 39.8258 37.6109 40.5008 36.2188H32C31.4093 36.2188 30.9453 35.7546 30.9453 35.1641V28.8359C30.9453 28.2452 31.4093 27.7812 32 27.7812H48.65C49.1562 27.7812 49.5992 28.1398 49.6836 28.646C49.8945 29.743 50 30.882 50 32Z" fill="#2079FF"/>
<path d="M40.5009 36.2188C39.8259 37.6109 38.7921 38.7921 37.5688 39.6781L43.5805 45.6898C47.4618 42.3992 50 37.4844 50 32C50 30.882 49.8945 29.743 49.6835 28.646C49.5992 28.1398 49.1562 27.7812 48.6499 27.7812H32V36.2188H40.5009Z" fill="#2079FF"/>
<path d="M43.8757 19.0273C43.8968 19.3226 43.7703 19.5969 43.5804 19.8077L39.0664 24.3007C38.7078 24.6804 38.1172 24.7226 37.6953 24.4062C36.0288 23.1617 34.0671 22.5078 32 22.5078C27.7389 22.5078 24.1109 25.3554 22.9085 29.2367L16.5593 22.8875C19.6811 17.6141 25.4398 14 32 14C36.1976 14 40.2898 15.5469 43.496 18.2468C43.7281 18.4367 43.8546 18.732 43.8757 19.0273Z" fill="#FF641A"/>
<path d="M37.6953 24.4062C38.1172 24.7227 38.7077 24.6804 39.0663 24.3007L43.5804 19.8077C43.7703 19.5969 43.8969 19.3227 43.8757 19.0273C43.8546 18.7319 43.7281 18.4367 43.496 18.2468C40.2898 15.5469 36.1977 14 32 14V22.5078C34.0671 22.5078 36.0288 23.1617 37.6953 24.4062Z" fill="#F03800"/>
</g>
<defs>
<clipPath id="clip0_4_893">
<rect x="14" y="14" width="36" height="36" rx="18" fill="white"/>
</clipPath>
</defs>
</svg>
