<svg width="64" height="64" viewBox="0 0 64 64" fill="none" xmlns="http://www.w3.org/2000/svg">
<rect width="64" height="64" rx="32" fill="#0D1530"/>
<g clip-path="url(#clip0_4_912)">
<path d="M45.1091 26.5906C44.9096 26.7436 41.3872 28.7054 41.3872 33.0676C41.3872 38.1132 45.8693 39.8982 46.0034 39.9424C45.9828 40.0512 45.2914 42.387 43.6403 44.767C42.1681 46.8614 40.6305 48.9524 38.2914 48.9524C35.9523 48.9524 35.3504 47.6094 32.6501 47.6094C30.0187 47.6094 29.083 48.9966 26.9435 48.9966C24.8039 48.9966 23.3111 47.0586 21.5946 44.6786C19.6064 41.8838 18 37.542 18 33.4212C18 26.8116 22.3479 23.3062 26.627 23.3062C28.9007 23.3062 30.7961 24.7818 32.2236 24.7818C33.5823 24.7818 35.7012 23.2178 38.288 23.2178C39.2683 23.2178 42.7907 23.3062 45.1091 26.5906ZM37.0599 20.4196C38.1297 19.165 38.8865 17.4242 38.8865 15.6834C38.8865 15.442 38.8658 15.1972 38.8211 15C37.0806 15.0646 35.0098 16.1458 33.7612 17.5772C32.7808 18.6788 31.8658 20.4196 31.8658 22.1842C31.8658 22.4494 31.9106 22.7146 31.9312 22.7996C32.0413 22.82 32.2201 22.8438 32.399 22.8438C33.9607 22.8438 35.9248 21.8102 37.0599 20.4196Z" fill="white"/>
</g>
<defs>
<clipPath id="clip0_4_912">
<rect width="28" height="34" fill="white" transform="translate(18 15)"/>
</clipPath>
</defs>
</svg>
