<svg width="116" height="116" viewBox="0 0 116 116" fill="none" xmlns="http://www.w3.org/2000/svg">
<g clip-path="url(#clip0_241_3126)">
<path d="M109.133 56.811L107.704 55.0606C106.791 53.5817 105.681 52.2343 104.404 51.0558C101.58 48.4432 97.899 46.6043 93.6316 45.6536C94.3713 44.0392 95.1037 42.39 95.8288 40.7058C96.7602 41.2654 97.7644 41.6938 98.8129 41.9787C101.563 42.6391 104.631 41.4535 105.698 38.87C106.975 35.7791 104.185 21.7619 103.463 18.5091C101.408 9.26297 95.5515 8.02096 87.0197 12.3985C70.0384 21.1119 70.9934 20.6043 70.4882 20.9156C71.0792 19.6565 71.0467 18.5933 70.8642 17.3198L68.6727 2.03296C65.1516 7.71739 65.0997 7.90318 64.4249 8.82528C64.047 8.56829 63.6157 8.40034 63.1635 8.33406C62.7113 8.26778 62.2499 8.30489 61.8141 8.44261C61.3783 8.58033 60.9794 8.81506 60.6474 9.12916C60.3154 9.44326 60.0589 9.82855 59.8973 10.2561C58.2978 9.511 57.9112 9.04293 51.3466 4.59619C56.3232 17.552 52.9597 6.65068 58.436 23.1194L62.8635 24.7114L68.6796 48.6693C65.1037 50.1474 61.6812 51.9721 58.4611 54.1175C58.4251 54.1413 58.389 54.1653 58.3528 54.1894L43.2293 33.3395C43.7337 31.8726 44.1872 30.6118 43.8052 28.9981C43.5213 27.7996 43.5352 28.0388 35.0897 13.6822C33.9893 20.2791 34.0126 20.4682 33.7374 21.5805C33.2901 21.4858 32.8272 21.4938 32.3835 21.6039C31.9398 21.714 31.5269 21.9233 31.1758 22.2161C30.8247 22.5089 30.5446 22.8776 30.3567 23.2943C30.1687 23.711 30.0777 24.1649 30.0905 24.6219C28.3487 24.5394 27.9261 24.2803 20.0318 22.6287C24.4707 27.1615 32.0871 35.4113 33.624 37.076L38.3243 36.8681L53.4996 57.7893C50.4539 60.2775 47.6836 63.085 45.2362 66.1637L26.8714 54.5383C26.867 54.447 26.8629 54.3541 26.8589 54.2598C26.8087 53.0929 26.7462 51.6406 25.8002 50.2913C25.3608 49.7021 24.8332 49.1842 24.2361 48.7557L12.0376 39.2859C13.4555 45.821 13.547 45.9881 13.7029 47.1231C13.2525 47.2008 12.8255 47.3796 12.4541 47.646C12.0828 47.9125 11.7766 48.2597 11.5588 48.6615C11.3409 49.0633 11.217 49.5093 11.1963 49.9659C11.1756 50.4225 11.2587 50.8778 11.4394 51.2977C9.78769 51.8678 9.32075 51.7786 1.35938 53.1687C7.14374 55.7308 17.2856 60.5846 19.3292 61.5626L23.6193 59.6308L41.7865 71.1311C39.8226 74.3189 38.3513 77.785 37.4223 81.4121C24.471 89.1202 14.16 89.8903 12.9759 90.1967C13.059 93.1052 10.7351 92.3335 13.7924 112.762C15.1764 112.505 27.6499 112.552 43.6166 104.114C55.4426 119.097 77.097 115.157 92.7525 104.757C112.131 91.8839 121.4 69.4627 109.133 56.811Z" fill="#2F3951"/>
<path d="M107.328 58.4217L102.763 52.8299L100.91 54.2049C91.1352 50.2438 76.6786 52.5603 63.773 61.1338C49.0898 70.888 41.0839 85.6347 43.3658 96.9187L41.8931 98.0119C42.1617 98.3547 47.1384 104.683 47.157 104.707L47.1639 104.702C55.6163 114.454 74.8019 113.78 91.4151 102.744C109.86 90.4906 118.326 69.6458 107.328 58.4217Z" fill="#FFF6A5"/>
<path d="M94.6121 37.3856C87.348 54.7599 78.0792 71.5773 64.9259 85.0542C51.7726 98.531 34.3949 108.489 15.6384 110.17C14.1913 104.352 14.3341 98.1584 15.131 92.2888C30.3888 89.7553 44.3521 81.4683 55.2026 70.4462C66.053 59.424 73.9542 45.7726 79.6913 31.9661L72.538 27.6002C69.7481 25.8975 69.5238 24.0925 72.4571 22.5874L88.1232 14.5489C95.122 10.9578 99.3832 11.2921 101.103 19.0334C101.64 21.4465 104.408 35.6613 103.464 37.9473C102.852 39.4303 100.938 40.0035 99.3776 39.6286C97.8176 39.2537 96.5355 38.178 94.6121 37.3856Z" fill="#2A8AA3"/>
<path d="M87.4094 97.7705C104.933 86.1374 112.954 67.3917 105.326 55.9008C97.6971 44.4098 77.3077 44.5251 59.7844 56.1582C42.2611 67.7913 34.2397 86.537 41.8682 98.028C49.4966 109.519 69.8861 109.404 87.4094 97.7705Z" fill="#FCB96D"/>
<path d="M84.6835 93.6646C98.7487 84.3272 105.187 69.2808 99.0641 60.0575C92.9411 50.8342 76.5753 50.9267 62.5101 60.2641C48.4448 69.6016 42.0064 84.648 48.1294 93.8712C54.2524 103.095 70.6182 103.002 84.6835 93.6646Z" fill="white"/>
<path d="M81.5323 88.9178C91.5996 82.2344 96.208 71.4648 91.8254 64.8631C87.4427 58.2614 75.7287 58.3277 65.6614 65.011C55.5941 71.6944 50.9857 82.464 55.3683 89.0657C59.7509 95.6673 71.4649 95.6011 81.5323 88.9178Z" fill="#FFF6A5"/>
<path d="M77.6 82.9944C82.6784 79.623 85.003 74.1902 82.7922 70.8599C80.5813 67.5296 74.6722 67.563 69.5938 70.9344C64.5153 74.3058 62.1907 79.7385 64.4015 83.0688C66.6124 86.3991 72.5215 86.3658 77.6 82.9944Z" fill="#FCB96D"/>
<path d="M34.383 26.6083C35.3709 24.7484 36.0493 22.7401 36.3915 20.6621C41.1653 28.7767 41.2916 28.8725 41.4532 29.5552C41.8324 31.1566 40.5868 32.7056 40.5385 34.3506L34.7211 34.6081C32.459 31.866 30.0685 29.237 27.5496 26.721C29.8064 27.2026 32.1433 27.164 34.383 26.6083Z" fill="#2684FC"/>
<path d="M70.1618 76.5798L32.6528 24.8685C32.6092 24.8083 32.5778 24.7401 32.5605 24.6677C32.5432 24.5954 32.5403 24.5204 32.552 24.4469C32.5637 24.3735 32.5897 24.3031 32.6286 24.2397C32.6675 24.1763 32.7185 24.1212 32.7787 24.0775C32.8389 24.0338 32.9071 24.0025 32.9795 23.9852C33.0518 23.9678 33.1268 23.965 33.2003 23.9766C33.2737 23.9883 33.3442 24.0144 33.4075 24.0533C33.4709 24.0922 33.526 24.1432 33.5697 24.2034L71.0786 75.9147C71.1224 75.9749 71.1539 76.0432 71.1713 76.1156C71.1887 76.1879 71.1917 76.263 71.18 76.3366C71.1684 76.4101 71.1423 76.4806 71.1034 76.544C71.0645 76.6075 71.0135 76.6627 70.9532 76.7064C70.8929 76.7501 70.8247 76.7815 70.7523 76.7988C70.6799 76.8161 70.6048 76.8189 70.5312 76.8072C70.4577 76.7954 70.3873 76.7693 70.3239 76.7303C70.2605 76.6913 70.2054 76.6401 70.1618 76.5798Z" fill="#2A8AA3"/>
<path d="M66.9778 75.7938C68.8462 74.6536 70.5788 73.3046 72.1422 71.7728C72.2703 73.8481 72.3501 75.9255 72.3815 78.0052C70.3743 77.6988 68.4137 77.0886 66.9778 75.7938Z" fill="#FCC836"/>
<path d="M16.1628 51.5565C16.3926 49.4632 16.28 47.3464 15.8293 45.2892L22.7541 50.6649C23.1585 50.9479 23.5183 51.2898 23.8216 51.6791C24.7662 53.0267 24.1819 54.9267 24.7456 56.4728L19.436 58.8639C16.3201 57.153 13.1267 55.5947 9.85571 54.189C12.1306 53.8016 14.2875 52.9014 16.1628 51.5565Z" fill="#2684FC"/>
<path d="M67.888 84.7492L13.9116 50.5803C13.7849 50.4998 13.6954 50.3724 13.6626 50.2259C13.6298 50.0795 13.6565 49.926 13.7368 49.7992C13.8171 49.6724 13.9444 49.5826 14.0908 49.5496C14.2372 49.5166 14.3907 49.5431 14.5176 49.6231L68.494 83.792C68.6207 83.8725 68.7102 84 68.743 84.1464C68.7758 84.2929 68.7491 84.4464 68.6688 84.5731C68.5886 84.6999 68.4612 84.7897 68.3148 84.8227C68.1684 84.8557 68.0149 84.8293 67.888 84.7492Z" fill="#2A8AA3"/>
<path d="M64.7817 85.3997C66.0959 83.6492 67.2066 81.755 68.0925 79.7535C68.9791 81.6342 69.8217 83.5348 70.6202 85.4554C68.642 85.9131 66.5948 86.0715 64.7817 85.3997Z" fill="#FCC836"/>
<path d="M63.1123 13.7237C64.7323 12.3781 66.1223 10.7776 67.2277 8.98511C68.5637 18.3044 68.6442 18.441 68.5345 19.134C68.2774 20.7595 66.537 21.7197 65.8678 23.2232L60.3881 21.253C59.3364 17.8575 58.1229 14.5178 56.7476 11.2339C58.6527 12.5362 60.8292 13.3876 63.1123 13.7237Z" fill="#2684FC"/>
<path d="M77.2424 73.5367L62.172 11.4573C62.1366 11.3113 62.1606 11.1572 62.2387 11.0289C62.3169 10.9006 62.4428 10.8086 62.5888 10.7732C62.7348 10.7378 62.8888 10.7618 63.0171 10.8399C63.1454 10.9181 63.2374 11.044 63.2728 11.19L78.3432 73.2694C78.3608 73.3417 78.3639 73.4167 78.3525 73.4902C78.341 73.5637 78.3152 73.6343 78.2765 73.6978C78.2378 73.7613 78.187 73.8166 78.1269 73.8605C78.0668 73.9043 77.9987 73.9359 77.9264 73.9535C77.8542 73.971 77.7791 73.9742 77.7056 73.9627C77.6321 73.9513 77.5616 73.9255 77.4981 73.8868C77.4346 73.8481 77.3793 73.7972 77.3354 73.7372C77.2915 73.6771 77.2599 73.609 77.2424 73.5367Z" fill="#2A8AA3"/>
<path d="M74.4419 71.4135C76.6032 71.068 78.7183 70.4777 80.7462 69.6541C80.0769 71.6226 79.362 73.5748 78.6016 75.5107C76.861 74.4653 75.2788 73.1565 74.4419 71.4135Z" fill="#FCC836"/>
</g>
<defs>
<clipPath id="clip0_241_3126">
<rect width="116" height="116" fill="white"/>
</clipPath>
</defs>
</svg>
