<svg width="36" height="36" viewBox="0 0 36 36" fill="none" xmlns="http://www.w3.org/2000/svg">
<g clip-path="url(#clip0_122_4900)">
<rect x="-4" y="-4" width="44" height="44" rx="22" fill="#FCB96D"/>
<path d="M9.85719 16.9063C9.68196 16.3811 9.58333 15.8535 9.58333 15.3312C9.58333 10.6517 13.9376 8.52459 17.5 12.3532C21.0624 8.52459 25.4167 10.6515 25.4167 15.3312C25.4167 15.8535 25.318 16.3811 25.1428 16.9063H22.7536L22.6649 16.9062C22.2329 16.9055 21.8492 16.9049 21.5 17.0604C21.1508 17.2159 20.8946 17.5016 20.606 17.8233L20.5467 17.8893L19.7319 18.7947C19.6712 18.8621 19.6216 18.9171 19.5779 18.964C19.5364 18.9154 19.4893 18.8584 19.4317 18.7886L16.6203 15.3809C16.5099 15.2468 16.3917 15.1035 16.2761 14.9971C16.1414 14.8732 15.9424 14.7338 15.6641 14.7171C15.3858 14.7003 15.1715 14.8149 15.023 14.9218C14.8955 15.0136 14.761 15.1418 14.6352 15.2616L13.4243 16.4149C13.0508 16.7706 12.9729 16.8312 12.8913 16.8638C12.8098 16.8965 12.7116 16.9063 12.1958 16.9063H9.85719Z" fill="white"/>
<path d="M10.3785 18.0938C11.4718 20.122 13.4865 22.0237 15.0947 23.3352C16.1492 24.195 16.6764 24.625 17.5 24.625C18.3236 24.625 18.8508 24.1951 19.9053 23.3352C21.5135 22.0237 23.5282 20.122 24.6215 18.0938H22.7536C22.1802 18.0938 22.0715 18.1058 21.9831 18.1452C21.8947 18.1845 21.8131 18.2574 21.4294 18.6837L20.5943 19.6115C20.4693 19.7506 20.3372 19.8974 20.2103 20.0039C20.0637 20.1267 19.8455 20.2646 19.5501 20.2582C19.2548 20.2519 19.0428 20.1049 18.9016 19.9758C18.7794 19.8641 18.6538 19.7118 18.535 19.5677L15.7226 16.1587C15.6691 16.0939 15.6256 16.0412 15.5873 15.9962C15.5438 16.0363 15.4943 16.0834 15.4334 16.1413L14.1857 17.3298C13.9038 17.599 13.6538 17.8378 13.3324 17.9664C13.0109 18.095 12.6651 18.0945 12.2754 18.0939L10.3785 18.0938Z" fill="white"/>
<mask id="mask0_122_4900" style="mask-type:alpha" maskUnits="userSpaceOnUse" x="0" y="0" width="33" height="33">
<rect width="33" height="33" rx="8.27737" fill="url(#paint0_linear_122_4900)"/>
</mask>
<g mask="url(#mask0_122_4900)">
</g>
</g>
<defs>
<linearGradient id="paint0_linear_122_4900" x1="33" y1="0" x2="0" y2="0" gradientUnits="userSpaceOnUse">
<stop stop-color="#FFEBA2"/>
<stop offset="1" stop-color="#FF8669"/>
</linearGradient>
<clipPath id="clip0_122_4900">
<rect width="36" height="36" rx="18" fill="white"/>
</clipPath>
</defs>
</svg>
