<svg width="19" height="19" viewBox="0 0 19 19" fill="none" xmlns="http://www.w3.org/2000/svg">
<path fill-rule="evenodd" clip-rule="evenodd" d="M1.58337 12.7804V3.95663C1.58337 3.08725 2.28503 2.381 3.15278 2.43433C3.92574 2.48183 4.83989 2.57574 5.54171 2.76093C6.37233 2.98012 7.35946 3.44696 8.14016 3.85978C8.38328 3.98834 8.64183 4.07751 8.90643 4.12777V16.1442C8.66655 16.0913 8.43253 16.006 8.21154 15.8882C7.42028 15.4664 6.39786 14.9774 5.54171 14.7515C4.84765 14.5683 3.94593 14.4744 3.17847 14.4264C2.30066 14.3715 1.58337 13.6599 1.58337 12.7804ZM4.10252 6.54902C3.78439 6.46949 3.46202 6.66291 3.38249 6.98104C3.30296 7.29916 3.49638 7.62153 3.81451 7.70106L6.98118 8.49273C7.2993 8.57226 7.62167 8.37884 7.7012 8.06071C7.78074 7.74258 7.58732 7.42022 7.26919 7.34069L4.10252 6.54902ZM4.10252 9.71569C3.78439 9.63615 3.46202 9.82957 3.38249 10.1477C3.30296 10.4658 3.49638 10.7882 3.81451 10.8677L6.98118 11.6594C7.2993 11.7389 7.62167 11.5455 7.7012 11.2274C7.78074 10.9093 7.58732 10.5869 7.26919 10.5074L4.10252 9.71569Z" fill="white"/>
<path fill-rule="evenodd" clip-rule="evenodd" d="M10.0939 16.1441C10.3337 16.0913 10.5676 16.0059 10.7885 15.8882C11.5798 15.4664 12.6022 14.9774 13.4584 14.7515C14.1524 14.5683 15.0542 14.4744 15.8216 14.4264C16.6994 14.3715 17.4167 13.6599 17.4167 12.7804V3.90549C17.4167 3.05646 16.7468 2.35953 15.8983 2.38909C15.0048 2.42021 13.8913 2.51281 13.0625 2.76093C12.344 2.97605 11.5072 3.40752 10.8252 3.80222C10.5944 3.93574 10.3479 4.03382 10.0939 4.09602V16.1441ZM15.1859 7.70106C15.504 7.62153 15.6974 7.29916 15.6179 6.98104C15.5383 6.66291 15.216 6.46949 14.8978 6.54902L11.7312 7.34069C11.413 7.42022 11.2196 7.74258 11.2992 8.06071C11.3787 8.37884 11.7011 8.57226 12.0192 8.49273L15.1859 7.70106ZM15.1859 10.8677C15.504 10.7882 15.6974 10.4658 15.6179 10.1477C15.5383 9.82957 15.216 9.63615 14.8978 9.71569L11.7312 10.5074C11.413 10.5869 11.2196 10.9093 11.2992 11.2274C11.3787 11.5455 11.7011 11.7389 12.0192 11.6594L15.1859 10.8677Z" fill="white"/>
</svg>
