<svg width="19" height="19" viewBox="0 0 19 19" fill="none" xmlns="http://www.w3.org/2000/svg">
<path d="M1.85724 8.90631C1.682 8.3811 1.58337 7.85349 1.58337 7.33118C1.58337 2.65168 5.93767 0.524588 9.50004 4.35319C13.0624 0.524588 17.4167 2.65154 17.4167 7.33115C17.4167 7.85347 17.3181 8.38109 17.1428 8.90631H14.7536L14.665 8.90622C14.2329 8.90551 13.8492 8.90488 13.5001 9.06039C13.1509 9.2159 12.8946 9.5016 12.606 9.82333L12.5467 9.88931L11.7319 10.7947C11.6712 10.8621 11.6217 10.9171 11.578 10.964C11.5364 10.9154 11.4894 10.8584 11.4318 10.7886L8.62039 7.38085C8.50992 7.24685 8.39173 7.10348 8.27611 6.99707C8.14146 6.87315 7.94241 6.73377 7.66413 6.71705C7.38586 6.70034 7.17155 6.8149 7.02304 6.92181C6.8955 7.01361 6.761 7.1418 6.63529 7.26162L5.42432 8.41493C5.05084 8.77063 4.97291 8.83124 4.89139 8.86385C4.80987 8.89645 4.71164 8.90631 4.19587 8.90631H1.85724Z" fill="white"/>
<path d="M2.37853 10.0938C3.47181 12.122 5.48652 14.0237 7.09475 15.3352C8.14924 16.195 8.67649 16.625 9.50005 16.625C10.3236 16.625 10.8509 16.1951 11.9053 15.3352C13.5136 14.0237 15.5283 12.122 16.6216 10.0938H14.7536C14.1803 10.0938 14.0716 10.1058 13.9832 10.1452C13.8948 10.1845 13.8131 10.2574 13.4294 10.6837L12.5944 11.6115C12.4693 11.7506 12.3373 11.8974 12.2103 12.0039C12.0637 12.1267 11.8455 12.2646 11.5501 12.2582C11.2548 12.2519 11.0428 12.1049 10.9016 11.9758C10.7794 11.8641 10.6538 11.7118 10.535 11.5677L7.72264 8.1587C7.66919 8.0939 7.62568 8.04122 7.5873 7.99623C7.54381 8.0363 7.49431 8.0834 7.43348 8.14133L6.1857 9.3298C5.90389 9.59899 5.65385 9.83784 5.33241 9.96641C5.01098 10.095 4.66519 10.0945 4.27547 10.0939L2.37853 10.0938Z" fill="white"/>
</svg>
