<svg width="19" height="19" viewBox="0 0 19 19" fill="none" xmlns="http://www.w3.org/2000/svg">
<path d="M1.71169 6.72892C1.58337 7.60274 1.58337 8.74755 1.58337 10.2917C1.58337 13.2772 1.58337 14.77 2.51087 15.6975C3.43836 16.625 4.93115 16.625 7.91671 16.625H11.0834C14.0689 16.625 15.5617 16.625 16.4892 15.6975C17.4167 14.77 17.4167 13.2772 17.4167 10.2917C17.4167 8.74765 17.4167 7.60288 17.2884 6.72908C15.4861 7.90061 14.3309 8.64774 13.2605 9.10786V9.50007C13.2605 9.82799 12.9947 10.0938 12.6668 10.0938C12.3432 10.0938 12.0801 9.83498 12.0732 9.51306C10.3867 9.95766 8.61353 9.95765 6.92705 9.51303C6.92016 9.83496 6.65703 10.0938 6.33344 10.0938C6.00552 10.0938 5.73969 9.82799 5.73969 9.50007V9.1078C4.66932 8.64766 3.5141 7.90049 1.71169 6.72892Z" fill="white"/>
<path fill-rule="evenodd" clip-rule="evenodd" d="M8.37696 1.78125L8.36079 1.78125C8.27093 1.78124 8.20099 1.78123 8.13481 1.78523C7.2953 1.83608 6.56017 2.36593 6.24646 3.14629C6.22159 3.20814 6.18067 3.33098 6.15148 3.41861L6.14841 3.42783C6.06678 3.64943 5.9194 3.84135 5.74878 3.9784C5.5687 3.98422 5.3967 3.99174 5.23228 4.00144C3.93082 4.07823 3.1049 4.2918 2.51087 4.88583C2.31718 5.07952 2.16394 5.29787 2.0427 5.54931C2.08828 5.56486 2.13269 5.58625 2.17491 5.6137C3.83764 6.69447 4.88232 7.37048 5.75036 7.80414C5.80297 7.53007 6.04402 7.32299 6.33344 7.32299C6.66136 7.32299 6.92719 7.58882 6.92719 7.91674V8.27925C8.60508 8.78558 10.3951 8.78559 12.073 8.27929V7.91674C12.073 7.58882 12.3389 7.32299 12.6668 7.32299C12.9562 7.32299 13.1973 7.5301 13.2499 7.8042C14.1179 7.37054 15.1626 6.69452 16.8254 5.6137C16.8676 5.5863 16.9119 5.56493 16.9574 5.54939C16.8362 5.29791 16.6829 5.07954 16.4892 4.88583C15.8952 4.2918 15.0693 4.07823 13.7678 4.00144C13.6117 3.99223 13.4488 3.98499 13.2786 3.9793C13.2679 3.97056 13.2571 3.96155 13.2464 3.95225C13.0558 3.78761 12.9068 3.5705 12.8317 3.36687L12.8292 3.35939C12.8008 3.27415 12.7787 3.20779 12.754 3.14629C12.4403 2.36593 11.7051 1.83608 10.8656 1.78523C10.7995 1.78123 10.7295 1.78124 10.6396 1.78125L8.37696 1.78125ZM11.7307 3.81242L11.7271 3.80392L11.7232 3.79435L11.7196 3.78489L11.7167 3.77702L11.7153 3.77305L11.712 3.76337L11.7089 3.75443L11.7073 3.74947L11.7051 3.74287L11.7033 3.73729L11.7019 3.73279C11.6708 3.63936 11.6612 3.61162 11.6522 3.58922C11.5096 3.23452 11.1754 2.99367 10.7938 2.97056C10.7683 2.96902 10.737 2.96875 10.6235 2.96875H8.37696C8.26345 2.96875 8.23214 2.96902 8.2066 2.97056C7.82507 2.99367 7.49096 3.23444 7.34832 3.58905L7.34623 3.59458L7.33993 3.61194C7.33467 3.62666 7.32828 3.64506 7.3209 3.66666C7.30782 3.70495 7.29313 3.7489 7.27824 3.79355L7.27679 3.79823L7.27502 3.8038L7.27286 3.81041L7.2712 3.81537L7.26817 3.82431L7.26481 3.834L7.2634 3.83797L7.26052 3.84584L7.2569 3.85531L7.25303 3.86491L7.24973 3.87275L7.24922 3.87391C7.23819 3.90229 7.22652 3.93061 7.21421 3.95884C7.43874 3.95834 7.67274 3.95834 7.91671 3.95834H11.0834C11.33 3.95834 11.5664 3.95834 11.7931 3.95886C11.7706 3.91048 11.7497 3.86163 11.7307 3.81242Z" fill="white"/>
</svg>
