<svg width="19" height="19" viewBox="0 0 19 19" fill="none" xmlns="http://www.w3.org/2000/svg">
<path d="M6.53129 3.95881C4.69666 3.96301 3.71496 4.00814 2.99073 4.49205C2.64497 4.72309 2.34809 5.01997 2.11705 5.36574C1.58337 6.16444 1.58337 7.27631 1.58337 9.50004C1.58337 11.7238 1.58337 12.8356 2.11705 13.6343C2.34809 13.9801 2.64497 14.277 2.99074 14.508C3.71496 14.9919 4.69666 15.0371 6.53129 15.0413V11.8002C5.50694 11.5366 4.75004 10.6067 4.75004 9.50004C4.75004 8.39339 5.50694 7.46351 6.53129 7.19986V3.95881Z" fill="white"/>
<path d="M7.71879 15.0417L11.2813 15.0417V3.95837H7.71879V15.0417Z" fill="white"/>
<path d="M12.4688 3.95881V7.19986C13.4931 7.46351 14.25 8.39339 14.25 9.50004C14.25 10.6067 13.4931 11.5366 12.4688 11.8002V15.0413C14.3034 15.0371 15.2851 14.9919 16.0093 14.508C16.3551 14.277 16.652 13.9801 16.883 13.6343C17.4167 12.8356 17.4167 11.7238 17.4167 9.50004C17.4167 7.27631 17.4167 6.16444 16.883 5.36573C16.652 5.01997 16.3551 4.72309 16.0093 4.49205C15.2851 4.00814 14.3034 3.96301 12.4688 3.95881Z" fill="white"/>
</svg>
