<svg width="19" height="19" viewBox="0 0 19 19" fill="none" xmlns="http://www.w3.org/2000/svg">
<path fill-rule="evenodd" clip-rule="evenodd" d="M9.5408 1.58337H9.45912C8.12894 1.58336 7.07533 1.58335 6.25076 1.69615C5.40215 1.81223 4.71529 2.05681 4.17362 2.60793C3.63195 3.15905 3.39156 3.85789 3.27747 4.7213C3.16661 5.56026 3.16661 6.63223 3.16663 7.98562V11.0145C3.16661 12.3678 3.16661 13.4398 3.27747 14.2788C3.39156 15.1422 3.63195 15.841 4.17362 16.3921C4.71529 16.9433 5.40215 17.1879 6.25076 17.3039C7.07533 17.4167 8.12892 17.4167 9.4591 17.4167H9.54079C10.871 17.4167 11.9246 17.4167 12.7492 17.3039C13.5978 17.1879 14.2846 16.9433 14.8263 16.3921C15.368 15.841 15.6084 15.1422 15.7225 14.2788C15.8333 13.4398 15.8333 12.3679 15.8333 11.0145V7.98563C15.8333 6.63226 15.8333 5.56025 15.7225 4.7213C15.6084 3.85789 15.368 3.15905 14.8263 2.60793C14.2846 2.05681 13.5978 1.81223 12.7492 1.69615C11.9246 1.58335 10.871 1.58336 9.5408 1.58337ZM6.78567 14.6551C6.78567 14.35 7.02872 14.1028 7.32853 14.1028H11.6714C11.9712 14.1028 12.2142 14.35 12.2142 14.6551C12.2142 14.9601 11.9712 15.2074 11.6714 15.2074H7.32853C7.02872 15.2074 6.78567 14.9601 6.78567 14.6551Z" fill="white"/>
</svg>
