<svg width="35" height="35" viewBox="0 0 35 35" fill="none" xmlns="http://www.w3.org/2000/svg">
<path d="M17.5 29V25.55M17.5 9.45V6M29 17.5H25.55M9.45 17.5H6M25.6317 9.36827L23.1922 11.8078M11.8078 23.1922L9.36827 25.6317M9.36797 9.36853L11.8075 11.808M23.1919 23.1925L25.6314 25.632" stroke="white" stroke-width="1.37956" stroke-linecap="round"/>
<path d="M18.2814 22H17.7186C17.3222 22 17 22.291 17 22.649V23.351C17 23.709 17.3222 24 17.7186 24H18.2814C18.6779 24 19 23.709 19 23.351V22.649C19 22.2899 18.6779 22 18.2814 22Z" fill="white"/>
<path d="M14.3289 15.5528L15.3372 15.687C15.657 15.7293 15.9606 15.5329 16.0757 15.2109C16.2211 14.8044 16.4234 14.4837 16.6828 14.25C17.0503 13.9193 17.5074 13.7528 18.054 13.7528C18.6203 13.7528 19.0716 13.9119 19.4065 14.2289C19.7415 14.5471 19.9078 14.9275 19.9078 15.3738C19.9078 15.6945 19.8136 15.9878 19.6252 16.2539C19.503 16.4229 19.1274 16.7785 18.5005 17.3217C17.8725 17.8649 17.455 18.3547 17.2457 18.7898C17.0317 19.2348 16.9573 19.7283 16.9387 20.2231C16.9224 20.647 17.2387 21 17.6365 21H18.2063C18.5692 21 18.8692 20.7029 18.9018 20.3175C18.9251 20.0403 18.9681 19.8303 19.0332 19.6873C19.1425 19.4424 19.4251 19.1192 19.8787 18.7164C20.7568 17.9395 21.3289 17.3254 21.5976 16.8729C21.8651 16.4217 22 15.9431 22 15.4372C22 14.5235 21.636 13.7217 20.9068 13.033C20.1788 12.3443 19.1972 12 17.9644 12C16.7921 12 15.8466 12.3394 15.1256 13.0193C14.5115 13.5986 14.1382 14.2848 14.0068 15.0767C13.966 15.3079 14.1137 15.5242 14.3289 15.5528Z" fill="white"/>
</svg>
